<svg width="190" height="190" viewBox="0 0 190 190" fill="none" xmlns="http://www.w3.org/2000/svg">
<g clip-path="url(#clip0_348_224)">
<rect width="190" height="190" rx="95" fill="white"/>
<circle cx="95" cy="95" r="95" fill="#DEF4FF"/>
<path d="M135.527 73.3951C135.527 73.3951 142.253 72.5781 142.861 78.9811C143.469 85.3841 141.322 90.3051 137.332 92.4331C137.332 92.4331 136.477 92.8511 134.52 93.1931L135.527 73.4141V73.3951Z" fill="#FFB69F"/>
<path d="M59.4317 73.3951C59.4317 73.3951 52.7057 72.5781 52.0977 78.9811C51.4897 85.3841 53.6367 90.3051 57.6267 92.4331C57.6267 92.4331 58.4817 92.8511 60.4387 93.1931L59.4317 73.4141V73.3951Z" fill="#FFB69F"/>
<path d="M5.69995 198.989C5.69995 198.989 5.69995 172.123 21.432 166.822C37.1639 161.521 72.713 141.172 72.713 141.172H96.767V198.989H5.69995Z" fill="#F49037"/>
<path d="M186.351 198.989C186.351 198.989 186.351 172.123 170.619 166.822C154.887 161.521 119.718 141.172 119.718 141.172H95.2839V198.989H186.351Z" fill="#F49037"/>
<path d="M78.6979 122.587L76.4749 141.169H115.577L113.145 122.587H78.6979Z" fill="#FFB69F"/>
<path d="M96.0259 152.287C106.824 152.287 115.577 148.484 115.577 143.794C115.577 139.103 106.824 135.301 96.0259 135.301C85.2281 135.301 76.4749 139.103 76.4749 143.794C76.4749 148.484 85.2281 152.287 96.0259 152.287Z" fill="#FFB69F"/>
<path d="M77.2153 135.013C77.2153 135.013 103.91 137.464 113.315 125.76V112.308L79.4763 115.557L77.2153 135.013Z" fill="#FF9988"/>
<path d="M97.6221 127.984C119.144 127.984 136.591 105.679 136.591 78.1657C136.591 50.6519 119.144 28.3477 97.6221 28.3477C76.1001 28.3477 58.6531 50.6519 58.6531 78.1657C58.6531 105.679 76.1001 127.984 97.6221 127.984Z" fill="#FFB69F"/>
<path d="M131.651 38.3815C131.651 38.3815 131.689 38.2865 131.651 38.2295C130.359 35.1325 128.782 19.5715 103.436 17.2155C96.9382 16.6075 87.6472 17.6905 81.7572 20.5025C73.6822 24.3405 64.6572 26.5445 56.6772 26.5255C56.3352 26.5255 56.2022 26.9815 56.5062 27.1525L62.7382 32.1115C62.9852 32.2445 62.9662 32.6055 62.7002 32.7195L54.8722 35.0945C54.5872 35.2085 54.5872 35.6265 54.8722 35.7215C56.1452 36.1395 59.3752 37.5645 62.3012 38.5715C57.5132 47.0455 58.6152 59.2245 58.6152 73.8545C58.6152 73.8545 58.4632 89.0165 63.5742 106.401C69.1602 125.401 81.4152 133.552 98.6862 133.609C117.078 133.685 126.673 117.915 129.238 112.31C133.152 103.722 136.515 87.7625 136.534 78.1675C136.534 78.1675 143.602 53.9235 131.613 38.3815H131.651ZM116.033 108.776C112.233 110.714 114.152 100.625 106.59 100.207C104.063 100.055 95.4752 99.4665 88.2552 100.074C82.7642 100.549 81.4342 105.489 81.1872 107.997C81.0732 109.08 80.6932 109.574 79.6672 109.194C77.3872 108.358 72.5422 105.66 70.2622 103.152C67.9062 100.568 63.6502 93.5955 63.2512 78.8705L63.6692 57.8375C63.6692 57.8375 72.1242 50.7505 73.5872 45.7155C73.5872 45.7155 111.359 51.7575 122.303 45.7155C122.303 45.7155 126.882 54.4745 131.879 57.1155C133.418 57.9135 133.152 67.9075 133.019 74.8045C132.886 75.7355 132.772 76.7995 132.715 78.0535C131.708 97.7565 119.795 106.857 116.014 108.795L116.033 108.776Z" fill="#B54D4D"/>
<path d="M116.034 82.1538C117.303 82.1538 118.333 80.3674 118.333 78.1638C118.333 75.9602 117.303 74.1738 116.034 74.1738C114.764 74.1738 113.735 75.9602 113.735 78.1638C113.735 80.3674 114.764 82.1538 116.034 82.1538Z" fill="#441D39"/>
<path d="M81.5478 81.3374C82.8175 81.3374 83.8468 79.551 83.8468 77.3474C83.8468 75.1438 82.8175 73.3574 81.5478 73.3574C80.2781 73.3574 79.2488 75.1438 79.2488 77.3474C79.2488 79.551 80.2781 81.3374 81.5478 81.3374Z" fill="#441D39"/>
<path d="M100.301 96.1021H96.6722C95.0572 96.1021 93.6322 95.4751 92.8722 94.4301C92.3212 93.6891 92.1692 92.8151 92.4352 91.9601C93.2522 89.3381 94.3162 79.5531 94.3162 79.4581C94.3732 78.9261 94.8292 78.5651 95.3612 78.6221C95.8742 78.6791 96.2542 79.1541 96.1972 79.6671C96.1592 80.0851 95.0952 89.7181 94.2402 92.5301C94.1642 92.8151 94.2022 93.0621 94.3922 93.3281C94.7912 93.8601 95.6842 94.2211 96.6722 94.2211H100.301C100.833 94.2211 101.251 94.6391 101.251 95.1711C101.251 95.7031 100.833 96.1211 100.301 96.1211V96.1021Z" fill="#FF9988"/>
<path d="M118.046 88.4062C121.708 88.4062 124.677 87.7257 124.677 86.8862C124.677 86.0467 121.708 85.3662 118.046 85.3662C114.384 85.3662 111.415 86.0467 111.415 86.8862C111.415 87.7257 114.384 88.4062 118.046 88.4062Z" fill="#FF9988"/>
<path d="M79.3432 88.4062C83.0054 88.4062 85.9742 87.7257 85.9742 86.8862C85.9742 86.0467 83.0054 85.3662 79.3432 85.3662C75.681 85.3662 72.7122 86.0467 72.7122 86.8862C72.7122 87.7257 75.681 88.4062 79.3432 88.4062Z" fill="#FF9988"/>
<path d="M124.088 68.8928C117.761 67.0308 112.916 68.2088 109.971 68.5888C108.717 68.7408 108.451 67.2018 108.451 67.2018C108.204 66.1568 109.61 65.4348 110.598 65.2448C113.923 64.6368 118.179 64.3328 124.487 66.5178C125.703 66.9358 125.779 67.9618 125.779 67.9618C125.646 69.1018 124.924 69.1208 124.088 68.8738V68.8928Z" fill="#B54D4D"/>
<path d="M73.1492 69.0092C79.4382 67.0332 84.3022 68.1352 87.2472 68.4582C88.5012 68.5912 88.7482 67.0522 88.7482 67.0522C88.9762 66.0072 87.5512 65.3042 86.5632 65.1332C83.2192 64.5822 78.9632 64.3352 72.7122 66.6342C71.4962 67.0712 71.4392 68.0972 71.4392 68.0972C71.5912 69.2372 72.3132 69.2372 73.1302 68.9902L73.1492 69.0092Z" fill="#B54D4D"/>
<path d="M97.4132 111.532C92.9292 111.532 89.3572 110.582 89.1292 110.525C88.6162 110.392 88.3312 109.86 88.4642 109.366C88.5972 108.872 89.1292 108.568 89.6232 108.701C89.7182 108.72 98.4582 111.038 105.507 108.283C106.001 108.093 106.552 108.34 106.742 108.815C106.932 109.309 106.685 109.86 106.21 110.05C103.303 111.19 100.187 111.551 97.4322 111.551L97.4132 111.532Z" fill="#9B3D3D"/>
<path d="M77.3111 135.107L92.4351 145.899L85.12 163.417L65.55 145.196L77.3111 135.107Z" fill="#FFA242"/>
<path d="M92.435 145.899L93.347 152.378L89.908 151.941L92.435 145.899Z" fill="#F49037"/>
<path d="M101.061 145.559L99.7314 152.38L103.455 151.753L101.061 145.559Z" fill="#F49037"/>
<path d="M101.062 145.559L114.913 135.394L127.89 145.806L108.586 165.091L101.062 145.559Z" fill="#FFA242"/>
<path d="M99.7117 154.868H93.3467V198.967H99.7117V154.868Z" fill="white"/>
<path d="M93.2136 151.47L93.3466 155.346C93.3466 155.346 96.3106 156.638 99.7116 155.346L99.8066 151.831L93.1946 151.451L93.2136 151.47Z" fill="#FFB69F"/>
<path d="M99.7117 164.18H93.3467V166.08H99.7117V164.18Z" fill="#D6D6D6"/>
<path d="M99.7117 172.748H93.3467V174.648H99.7117V172.748Z" fill="#D6D6D6"/>
<path d="M99.7117 181.316H93.3467V183.216H99.7117V181.316Z" fill="#D6D6D6"/>
<path d="M99.7117 189.885H93.3467V191.785H99.7117V189.885Z" fill="#D6D6D6"/>
<path d="M105.127 174.593C106.051 174.593 106.799 173.844 106.799 172.921C106.799 171.998 106.051 171.249 105.127 171.249C104.204 171.249 103.455 171.998 103.455 172.921C103.455 173.844 104.204 174.593 105.127 174.593Z" fill="#FFA242"/>
<path d="M105.127 193.248C106.051 193.248 106.799 192.5 106.799 191.576C106.799 190.653 106.051 189.904 105.127 189.904C104.204 189.904 103.455 190.653 103.455 191.576C103.455 192.5 104.204 193.248 105.127 193.248Z" fill="#FFA242"/>
</g>
<defs>
<clipPath id="clip0_348_224">
<rect width="190" height="190" rx="95" fill="white"/>
</clipPath>
</defs>
</svg>
