<svg width="438" height="903" viewBox="0 0 438 903" fill="none" xmlns="http://www.w3.org/2000/svg">
<g filter="url(#filter0_dii_622_330)">
<path d="M36 58C36 43.0883 48.0883 31 63 31H376C390.912 31 403 43.0883 403 58V62H36V58Z" fill="#F8F8F8"/>
<path opacity="0.4" d="M349.931 42.9785H367.245C368.442 42.9785 369.412 43.9486 369.412 45.1452V51.8535C369.412 53.0501 368.442 54.0202 367.245 54.0202H349.931C348.735 54.0202 347.765 53.0501 347.765 51.8535V45.1452C347.765 43.9486 348.735 42.9785 349.931 42.9785Z" stroke="#151515"/>
<path opacity="0.5" d="M370.941 46.375V50.625C371.773 50.265 372.314 49.4277 372.314 48.5C372.314 47.5723 371.773 46.735 370.941 46.375" fill="#151515"/>
<path d="M349.324 45.9368C349.324 45.2005 349.921 44.6035 350.657 44.6035H366.52C367.256 44.6035 367.853 45.2005 367.853 45.9368V51.0618C367.853 51.7982 367.256 52.3952 366.52 52.3952H350.657C349.921 52.3952 349.324 51.7982 349.324 51.0618V45.9368Z" fill="#151515"/>
<path fill-rule="evenodd" clip-rule="evenodd" d="M334.226 44.8591C336.516 44.8592 338.719 45.7493 340.379 47.3453C340.503 47.4685 340.703 47.467 340.826 47.3418L342.021 46.1222C342.083 46.0588 342.118 45.9728 342.118 45.8833C342.117 45.7939 342.081 45.7083 342.018 45.6456C337.662 41.4228 330.789 41.4228 326.433 45.6456C326.37 45.7083 326.334 45.7938 326.333 45.8833C326.333 45.9727 326.367 46.0587 326.43 46.1222L327.625 47.3418C327.748 47.4672 327.948 47.4687 328.073 47.3453C329.733 45.7492 331.936 44.8591 334.226 44.8591ZM334.224 48.8175C335.484 48.8174 336.699 49.3026 337.633 50.1787C337.759 50.303 337.958 50.3003 338.081 50.1726L339.276 48.9219C339.339 48.8563 339.373 48.7673 339.373 48.6748C339.372 48.5823 339.335 48.4941 339.271 48.4298C336.427 45.6892 332.024 45.6892 329.18 48.4298C329.116 48.4941 329.079 48.5823 329.078 48.6749C329.078 48.7674 329.113 48.8564 329.176 48.9219L330.37 50.1726C330.493 50.3003 330.692 50.303 330.818 50.1787C331.752 49.3032 332.965 48.8181 334.224 48.8175ZM336.627 51.7113C336.629 51.8021 336.594 51.8897 336.53 51.9533L334.456 54.0688C334.395 54.131 334.312 54.166 334.226 54.166C334.139 54.166 334.056 54.131 333.995 54.0688L331.921 51.9533C331.857 51.8896 331.822 51.802 331.824 51.7113C331.826 51.6205 331.864 51.5345 331.931 51.4736C333.256 50.3413 335.196 50.3413 336.52 51.4736C336.587 51.5345 336.626 51.6205 336.627 51.7113Z" fill="#151515"/>
<path fill-rule="evenodd" clip-rule="evenodd" d="M321.186 43.8965C321.186 43.3097 320.725 42.834 320.157 42.834H319.127C318.559 42.834 318.098 43.3097 318.098 43.8965V53.1048C318.098 53.6916 318.559 54.1673 319.127 54.1673H320.157C320.725 54.1673 321.186 53.6916 321.186 53.1048V43.8965ZM314.324 45.3132H315.353C315.921 45.3132 316.382 45.7889 316.382 46.3757V53.1048C316.382 53.6916 315.921 54.1673 315.353 54.1673H314.324C313.755 54.1673 313.294 53.6916 313.294 53.1048V46.3757C313.294 45.7889 313.755 45.3132 314.324 45.3132ZM310.549 47.7923H309.52C308.951 47.7923 308.49 48.268 308.49 48.8548V53.1048C308.49 53.6916 308.951 54.1673 309.52 54.1673H310.549C311.118 54.1673 311.578 53.6916 311.578 53.1048V48.8548C311.578 48.268 311.118 47.7923 310.549 47.7923ZM306.775 50.9798C306.775 50.393 306.314 49.9173 305.745 49.9173H304.716C304.147 49.9173 303.686 50.393 303.686 50.9798V53.1048C303.686 53.6916 304.147 54.1673 304.716 54.1673H305.745C306.314 54.1673 306.775 53.6916 306.775 53.1048V50.9798Z" fill="#151515"/>
<path d="M73.1212 44.4146C73.7364 44.4146 74.3028 44.5098 74.8204 44.7002C75.3429 44.8906 75.7604 45.1787 76.0729 45.5645C76.3854 45.9453 76.5416 46.4238 76.5416 47C76.5416 47.4297 76.4562 47.8057 76.2853 48.1279C76.1192 48.4502 75.8922 48.7334 75.6041 48.9775C75.316 49.2168 74.9889 49.4268 74.6227 49.6074C75.0035 49.8076 75.3649 50.042 75.7067 50.3105C76.0484 50.5742 76.3268 50.8843 76.5416 51.2407C76.7613 51.5972 76.8712 52.0122 76.8712 52.4858C76.8712 53.0815 76.7125 53.5991 76.3951 54.0386C76.0777 54.4731 75.6383 54.8101 75.0768 55.0493C74.5152 55.2886 73.8634 55.4082 73.1212 55.4082C72.3204 55.4082 71.6393 55.2935 71.0777 55.064C70.5162 54.8345 70.089 54.5073 69.796 54.0825C69.503 53.6528 69.3566 53.1401 69.3566 52.5444C69.3566 52.0562 69.4469 51.6313 69.6275 51.27C69.8131 50.9087 70.0621 50.5986 70.3746 50.3398C70.6871 50.0762 71.0314 49.8516 71.4073 49.666C71.09 49.4658 70.7994 49.2388 70.5358 48.9849C70.277 48.731 70.0694 48.4404 69.9132 48.1133C69.7618 47.7861 69.6861 47.4102 69.6861 46.9854C69.6861 46.4189 69.8448 45.9453 70.1622 45.5645C70.4845 45.1836 70.9068 44.8979 71.4293 44.7075C71.9518 44.5122 72.5157 44.4146 73.1212 44.4146ZM71.4513 52.4126C71.4513 52.7983 71.588 53.1182 71.8614 53.3721C72.1398 53.6211 72.5499 53.7456 73.0919 53.7456C73.6534 53.7456 74.0733 53.626 74.3517 53.3867C74.63 53.1426 74.7692 52.8228 74.7692 52.4272C74.7692 52.1538 74.6886 51.9146 74.5275 51.7095C74.3712 51.5044 74.1734 51.3213 73.9342 51.1602C73.6949 50.9941 73.4532 50.8403 73.2091 50.6987L73.0113 50.5962C72.6988 50.7378 72.4254 50.8965 72.191 51.0723C71.9615 51.248 71.7809 51.4458 71.649 51.6655C71.5172 51.8853 71.4513 52.1343 71.4513 52.4126ZM73.1066 46.0698C72.7355 46.0698 72.4278 46.165 72.1837 46.3555C71.9396 46.5459 71.8175 46.8145 71.8175 47.1611C71.8175 47.4053 71.8761 47.6201 71.9933 47.8057C72.1153 47.9863 72.274 48.145 72.4693 48.2817C72.6695 48.4185 72.8868 48.5454 73.1212 48.6626C73.3458 48.5552 73.5558 48.4355 73.7511 48.3037C73.9464 48.1719 74.1051 48.0132 74.2272 47.8276C74.3492 47.6421 74.4103 47.4199 74.4103 47.1611C74.4103 46.8145 74.2858 46.5459 74.0367 46.3555C73.7926 46.165 73.4825 46.0698 73.1066 46.0698ZM78.503 54.2144C78.503 53.7554 78.6275 53.4331 78.8765 53.2476C79.1304 53.062 79.4356 52.9692 79.792 52.9692C80.1387 52.9692 80.4366 53.062 80.6856 53.2476C80.9395 53.4331 81.0664 53.7554 81.0664 54.2144C81.0664 54.6538 80.9395 54.9712 80.6856 55.1665C80.4366 55.3618 80.1387 55.4595 79.792 55.4595C79.4356 55.4595 79.1304 55.3618 78.8765 55.1665C78.6275 54.9712 78.503 54.6538 78.503 54.2144ZM78.503 48.1646C78.503 47.7056 78.6275 47.3833 78.8765 47.1978C79.1304 47.0122 79.4356 46.9194 79.792 46.9194C80.1387 46.9194 80.4366 47.0122 80.6856 47.1978C80.9395 47.3833 81.0664 47.7056 81.0664 48.1646C81.0664 48.6089 80.9395 48.9287 80.6856 49.124C80.4366 49.3145 80.1387 49.4097 79.792 49.4097C79.4356 49.4097 79.1304 49.3145 78.8765 49.124C78.6275 48.9287 78.503 48.6089 78.503 48.1646ZM88.3525 55.2617H86.0893V49.0654C86.0893 48.8945 86.0918 48.6846 86.0966 48.4355C86.1015 48.1816 86.1088 47.9229 86.1186 47.6592C86.1284 47.3906 86.1381 47.1489 86.1479 46.9341C86.0942 46.9976 85.9843 47.1074 85.8183 47.2637C85.6572 47.415 85.5058 47.5518 85.3642 47.6738L84.1337 48.6626L83.0424 47.3003L86.4921 44.5537H88.3525V55.2617ZM95.4701 48.4209C96.1244 48.4209 96.7055 48.5454 97.2133 48.7944C97.726 49.0435 98.1288 49.4097 98.4218 49.8931C98.7147 50.3765 98.8612 50.9722 98.8612 51.6802C98.8612 52.4517 98.7001 53.1182 98.3778 53.6797C98.0604 54.2363 97.5844 54.6636 96.9496 54.9614C96.3197 55.2593 95.5336 55.4082 94.5912 55.4082C94.0297 55.4082 93.4999 55.3594 93.0018 55.2617C92.5087 55.1689 92.0765 55.0249 91.7055 54.8296V52.874C92.0765 53.0693 92.5209 53.2354 93.0385 53.3721C93.5609 53.5039 94.0516 53.5698 94.5106 53.5698C94.9598 53.5698 95.3383 53.5112 95.6459 53.394C95.9535 53.272 96.1854 53.0864 96.3417 52.8374C96.5028 52.5835 96.5834 52.2612 96.5834 51.8706C96.5834 51.3481 96.4076 50.9478 96.056 50.6694C95.7045 50.3911 95.1649 50.252 94.4374 50.252C94.1591 50.252 93.8685 50.2788 93.5658 50.3325C93.268 50.3862 93.0189 50.4399 92.8187 50.4937L91.9179 50.0103L92.3207 44.5537H98.1288V46.4727H94.3055L94.1078 48.5747C94.2738 48.5405 94.4545 48.5063 94.6498 48.4722C94.8451 48.438 95.1185 48.4209 95.4701 48.4209Z" fill="#151515"/>
<path d="M159 31H279V31C279 45.3594 267.359 57 253 57H185C170.641 57 159 45.3594 159 31V31Z" fill="#222222"/>
<rect x="190" y="41" width="54" height="4" rx="2" fill="#393939"/>
<circle cx="250" cy="43" r="2" fill="#393939"/>
<rect x="31.5" y="27.5" width="375" height="840" rx="49.5" stroke="#222222" stroke-width="15"/>
</g>
<defs>
<filter id="filter0_dii_622_330" x="0" y="0" width="438" height="903" filterUnits="userSpaceOnUse" color-interpolation-filters="sRGB">
<feFlood flood-opacity="0" result="BackgroundImageFix"/>
<feColorMatrix in="SourceAlpha" type="matrix" values="0 0 0 0 0 0 0 0 0 0 0 0 0 0 0 0 0 0 127 0" result="hardAlpha"/>
<feOffset dy="4"/>
<feGaussianBlur stdDeviation="12"/>
<feColorMatrix type="matrix" values="0 0 0 0 0 0 0 0 0 0 0 0 0 0 0 0 0 0 0.35 0"/>
<feBlend mode="normal" in2="BackgroundImageFix" result="effect1_dropShadow_622_330"/>
<feBlend mode="normal" in="SourceGraphic" in2="effect1_dropShadow_622_330" result="shape"/>
<feColorMatrix in="SourceAlpha" type="matrix" values="0 0 0 0 0 0 0 0 0 0 0 0 0 0 0 0 0 0 127 0" result="hardAlpha"/>
<feOffset dx="-9" dy="-10"/>
<feGaussianBlur stdDeviation="5"/>
<feComposite in2="hardAlpha" operator="arithmetic" k2="-1" k3="1"/>
<feColorMatrix type="matrix" values="0 0 0 0 0.916667 0 0 0 0 0.916667 0 0 0 0 0.916667 0 0 0 0.19 0"/>
<feBlend mode="normal" in2="shape" result="effect2_innerShadow_622_330"/>
<feColorMatrix in="SourceAlpha" type="matrix" values="0 0 0 0 0 0 0 0 0 0 0 0 0 0 0 0 0 0 127 0" result="hardAlpha"/>
<feOffset dx="-3" dy="-7"/>
<feGaussianBlur stdDeviation="2.5"/>
<feComposite in2="hardAlpha" operator="arithmetic" k2="-1" k3="1"/>
<feColorMatrix type="matrix" values="0 0 0 0 0.233333 0 0 0 0 0.233333 0 0 0 0 0.233333 0 0 0 0.17 0"/>
<feBlend mode="normal" in2="effect2_innerShadow_622_330" result="effect3_innerShadow_622_330"/>
</filter>
</defs>
</svg>
