<svg width="50" height="54" viewBox="0 0 50 54" fill="none" xmlns="http://www.w3.org/2000/svg">
<path d="M46.7496 0.194336C47.3905 0.194336 48.0052 0.491812 48.4584 1.02132C48.9116 1.55084 49.1662 2.26901 49.1662 3.01785C49.1662 3.76669 48.9116 4.48486 48.4584 5.01438C48.0052 5.54389 47.3905 5.84136 46.7496 5.84136V36.9C46.7496 38.3977 46.2403 39.834 45.3339 40.8931C44.4275 41.9521 43.1981 42.547 41.9162 42.547H29.7L35.2414 49.0214C35.6816 49.5539 35.9252 50.2671 35.9197 51.0074C35.9142 51.7477 35.6601 52.4559 35.212 52.9794C34.7639 53.5029 34.1578 53.7999 33.5241 53.8063C32.8905 53.8127 32.2801 53.5281 31.8243 53.0138L24.9875 45.0289L18.1532 53.0138C17.6974 53.5281 17.087 53.8127 16.4533 53.8063C15.8197 53.7999 15.2136 53.5029 14.7655 52.9794C14.3174 52.4559 14.0633 51.7477 14.0578 51.0074C14.0523 50.2671 14.2958 49.5539 14.7361 49.0214L20.2775 42.547H8.08299C6.80111 42.547 5.57174 41.9521 4.66532 40.8931C3.75889 39.834 3.24967 38.3977 3.24967 36.9V5.84136C2.60873 5.84136 1.99404 5.54389 1.54083 5.01438C1.08762 4.48486 0.833008 3.76669 0.833008 3.01785C0.833008 2.26901 1.08762 1.55084 1.54083 1.02132C1.99404 0.491812 2.60873 0.194336 3.24967 0.194336H46.7496ZM41.9162 5.84136H8.08299V36.9H41.9162V5.84136ZM38.6707 11.974C39.1237 12.5035 39.3782 13.2216 39.3782 13.9703C39.3782 14.719 39.1237 15.437 38.6707 15.9665L28.4337 27.9269C27.976 28.4614 27.3553 28.7616 26.7082 28.7616C26.0611 28.7616 25.4404 28.4614 24.9827 27.9269L19.8763 21.9552L14.7506 27.9495C14.2971 28.4793 13.6821 28.7769 13.0408 28.7769C12.3995 28.7769 11.7844 28.4793 11.331 27.9495C10.8775 27.4197 10.6228 26.7011 10.6228 25.9518C10.6228 25.5808 10.6853 25.2135 10.8068 24.8707C10.9283 24.528 11.1064 24.2165 11.331 23.9542L18.1508 15.9919C18.6085 15.4574 19.2292 15.1571 19.8763 15.1571C20.5234 15.1571 21.1441 15.4574 21.6018 15.9919L26.7082 21.9552L35.2535 11.974C35.7067 11.4447 36.3213 11.1473 36.9621 11.1473C37.6029 11.1473 38.2175 11.4447 38.6707 11.974V11.974Z" fill="white"/>
</svg>
