<svg width="736" height="336" viewBox="0 0 736 336" fill="none" xmlns="http://www.w3.org/2000/svg">
<ellipse cx="368" cy="176.36" rx="368" ry="134.161" fill="#D45769"/>
<path d="M191.173 217.216C224.255 217.216 242.235 239.057 242.235 267.603V332.168H140.291V267.603C140.291 225.071 167.799 225.837 167.799 225.837C167.799 225.837 169.957 217.216 191.173 217.216Z" fill="#231F20"/>
<path d="M168.519 313.393H213.827V332.168H168.519V313.393Z" fill="#C28FEF"/>
<path d="M228.031 299.215C228.031 299.215 235.403 297.299 235.403 285.613C235.403 276.416 229.829 274.884 229.829 274.884C195.488 274.884 177.149 256.875 177.149 256.875C177.149 256.875 164.743 271.627 152.876 274.884C152.876 274.884 147.123 276.033 147.123 285.613C147.123 297.299 154.854 299.215 154.854 299.215C154.854 306.496 177.688 330.252 191.353 330.252C205.017 330.444 228.031 306.687 228.031 299.215Z" fill="#8A6859"/>
<path d="M191.173 324.888C195.145 324.888 198.365 322.315 198.365 319.14C198.365 315.966 195.145 313.393 191.173 313.393C187.201 313.393 183.981 315.966 183.981 319.14C183.981 322.315 187.201 324.888 191.173 324.888Z" fill="#574137"/>
<path opacity="0.3" d="M155.393 246.529C155.393 246.529 160.607 249.211 162.405 256.683C163.484 261.089 164.024 261.281 166.001 262.814L177.149 239.823C178.227 237.716 180.565 236.949 182.363 238.099C184.161 239.248 184.88 241.739 183.801 243.847L185.06 241.164C186.318 238.674 189.195 237.716 191.353 239.057C193.51 240.398 194.409 243.272 193.151 245.762L192.252 247.678C193.33 245.571 195.847 244.613 197.645 245.762C199.623 246.912 200.163 249.403 199.084 251.702L196.926 256.108C198.005 254.192 200.163 253.234 201.961 254.384C203.759 255.342 204.837 258.024 203.759 259.94C185.599 294.617 184.52 296.725 176.25 297.874C176.25 297.874 169.238 306.304 163.664 332.168L166.541 284.08L155.393 246.529Z" fill="black"/>
<path d="M173.733 293.851L158.09 284.846C158.09 284.846 144.785 304.005 134.357 331.977H163.664C163.664 332.168 163.844 310.519 173.733 293.851Z" fill="#B386E2"/>
<path d="M151.258 246.529C153.955 244.613 158.27 247.104 159.888 254.576C160.967 258.982 161.147 260.706 163.124 262.239L175.71 237.716C178.947 231.968 184.52 235.609 182.003 241.356L172.833 260.515L184.34 239.823C187.217 234.076 194.769 236.758 191.712 243.655L180.565 264.155L191.353 246.529C195.128 240.398 200.342 244.805 197.645 249.594L188.476 268.178L197.106 254.767C199.983 249.978 204.837 253.809 202.5 258.216C202.5 258.216 188.116 287.912 182.183 292.701C173.553 299.79 152.337 290.977 153.955 271.435C154.314 267.604 152.876 263.772 152.157 259.557C151.618 254.192 148.201 248.636 151.258 246.529Z" fill="#8A6859"/>
<path d="M199.803 291.552C204.658 301.322 214.546 301.322 219.401 291.552C219.581 290.977 219.041 290.785 218.142 290.21C213.288 294.234 205.197 294.042 200.882 290.21C200.163 290.977 199.444 291.168 199.803 291.552Z" fill="#574137"/>
<path d="M344.958 192.683C344.958 188.108 343.253 183.72 340.216 180.485C337.18 177.25 333.063 175.432 328.769 175.432C324.475 175.432 320.357 177.25 317.321 180.485C314.285 183.72 312.579 188.108 312.579 192.683C312.579 193.598 312.92 194.476 313.528 195.123C314.135 195.77 314.958 196.133 315.817 196.133C316.676 196.133 317.5 195.77 318.107 195.123C318.714 194.476 319.055 193.598 319.055 192.683C319.055 190.636 319.625 188.635 320.692 186.933C321.76 185.231 323.277 183.904 325.052 183.12C326.826 182.337 328.78 182.132 330.664 182.531C332.548 182.931 334.279 183.917 335.637 185.364C336.996 186.812 337.921 188.656 338.296 190.664C338.671 192.672 338.478 194.753 337.743 196.644C337.008 198.536 335.763 200.152 334.165 201.29C332.568 202.427 330.69 203.034 328.769 203.034C327.91 203.034 327.086 203.397 326.479 204.044C325.872 204.691 325.531 205.569 325.531 206.484V213.385C325.531 214.3 325.872 215.177 326.479 215.824C327.086 216.471 327.91 216.835 328.769 216.835C329.628 216.835 330.451 216.471 331.058 215.824C331.666 215.177 332.007 214.3 332.007 213.385V209.589C335.663 208.794 338.95 206.677 341.31 203.596C343.67 200.515 344.959 196.66 344.958 192.683Z" fill="black"/>
<path d="M328.769 230.636C330.557 230.636 332.007 229.091 332.007 227.186C332.007 225.28 330.557 223.735 328.769 223.735C326.98 223.735 325.531 225.28 325.531 227.186C325.531 229.091 326.98 230.636 328.769 230.636Z" fill="black"/>
<path d="M75.9661 218.957C75.9661 214.382 74.2604 209.994 71.2243 206.759C68.1882 203.524 64.0703 201.706 59.7766 201.706C55.4829 201.706 51.365 203.524 48.3289 206.759C45.2928 209.994 43.5872 214.382 43.5872 218.957C43.5872 219.872 43.9283 220.75 44.5355 221.397C45.1427 222.044 45.9663 222.407 46.825 222.407C47.6838 222.407 48.5074 222.044 49.1146 221.397C49.7218 220.75 50.0629 219.872 50.0629 218.957C50.0629 216.91 50.6326 214.909 51.7 213.207C52.7673 211.504 54.2844 210.178 56.0593 209.394C57.8343 208.611 59.7874 208.406 61.6716 208.805C63.5559 209.205 65.2867 210.191 66.6452 211.638C68.0037 213.086 68.9288 214.93 69.3036 216.938C69.6784 218.946 69.4861 221.027 68.7509 222.918C68.0157 224.81 66.7706 226.426 65.1732 227.563C63.5758 228.701 61.6978 229.308 59.7766 229.308C58.9179 229.308 58.0943 229.671 57.4871 230.318C56.8799 230.965 56.5387 231.843 56.5387 232.758V239.659C56.5387 240.574 56.8799 241.451 57.4871 242.098C58.0943 242.745 58.9179 243.109 59.7766 243.109C60.6353 243.109 61.4589 242.745 62.0661 242.098C62.6734 241.451 63.0145 240.574 63.0145 239.659V235.863C66.6713 235.068 69.9578 232.951 72.3179 229.87C74.6781 226.789 75.9668 222.934 75.9661 218.957Z" fill="black"/>
<path d="M59.7765 256.91C61.5647 256.91 63.0144 255.365 63.0144 253.46C63.0144 251.554 61.5647 250.009 59.7765 250.009C57.9882 250.009 56.5386 251.554 56.5386 253.46C56.5386 255.365 57.9882 256.91 59.7765 256.91Z" fill="black"/>
<path d="M146.204 123.412C146.204 118.837 144.498 114.449 141.462 111.214C138.426 107.979 134.308 106.161 130.014 106.161C125.721 106.161 121.603 107.979 118.567 111.214C115.531 114.449 113.825 118.837 113.825 123.412C113.825 124.327 114.166 125.205 114.773 125.852C115.381 126.499 116.204 126.862 117.063 126.862C117.922 126.862 118.745 126.499 119.352 125.852C119.96 125.205 120.301 124.327 120.301 123.412C120.301 121.365 120.87 119.364 121.938 117.662C123.005 115.96 124.522 114.633 126.297 113.849C128.072 113.066 130.025 112.861 131.909 113.26C133.794 113.66 135.525 114.646 136.883 116.093C138.241 117.541 139.167 119.385 139.541 121.393C139.916 123.401 139.724 125.482 138.989 127.373C138.253 129.265 137.008 130.881 135.411 132.019C133.814 133.156 131.936 133.763 130.014 133.763C129.156 133.763 128.332 134.126 127.725 134.773C127.118 135.421 126.777 136.298 126.777 137.213V144.114C126.777 145.029 127.118 145.906 127.725 146.553C128.332 147.2 129.156 147.564 130.014 147.564C130.873 147.564 131.697 147.2 132.304 146.553C132.911 145.906 133.252 145.029 133.252 144.114V140.318C136.909 139.523 140.196 137.406 142.556 134.325C144.916 131.244 146.205 127.389 146.204 123.412Z" fill="black"/>
<path d="M130.014 161.365C131.802 161.365 133.252 159.82 133.252 157.915C133.252 156.009 131.802 154.464 130.014 154.464C128.226 154.464 126.776 156.009 126.776 157.915C126.776 159.82 128.226 161.365 130.014 161.365Z" fill="black"/>
<path d="M259.032 116.246C259.032 111.671 257.326 107.283 254.29 104.048C251.254 100.813 247.136 98.9951 242.843 98.9951C238.549 98.9951 234.431 100.813 231.395 104.048C228.359 107.283 226.653 111.671 226.653 116.246C226.653 117.161 226.994 118.039 227.601 118.686C228.209 119.333 229.032 119.696 229.891 119.696C230.75 119.696 231.573 119.333 232.18 118.686C232.788 118.039 233.129 117.161 233.129 116.246C233.129 114.199 233.699 112.198 234.766 110.496C235.833 108.794 237.35 107.467 239.125 106.683C240.9 105.9 242.853 105.695 244.738 106.094C246.622 106.494 248.353 107.48 249.711 108.927C251.07 110.375 251.995 112.219 252.37 114.227C252.744 116.235 252.552 118.316 251.817 120.207C251.082 122.099 249.837 123.715 248.239 124.852C246.642 125.99 244.764 126.597 242.843 126.597C241.984 126.597 241.16 126.96 240.553 127.607C239.946 128.254 239.605 129.132 239.605 130.047V136.948C239.605 137.863 239.946 138.74 240.553 139.387C241.16 140.034 241.984 140.398 242.843 140.398C243.701 140.398 244.525 140.034 245.132 139.387C245.739 138.74 246.08 137.863 246.08 136.948V133.152C249.737 132.357 253.024 130.24 255.384 127.159C257.744 124.078 259.033 120.223 259.032 116.246Z" fill="black"/>
<path d="M242.842 154.199C244.631 154.199 246.08 152.654 246.08 150.749C246.08 148.843 244.631 147.298 242.842 147.298C241.054 147.298 239.604 148.843 239.604 150.749C239.604 152.654 241.054 154.199 242.842 154.199Z" fill="black"/>
<path d="M560.04 32.4752V25.5737L556.026 32.4752H560.04Z" fill="black"/>
<path d="M623.555 56.917H510.678C506.876 56.917 503.707 53.3444 503.707 48.8788V8.0382C503.707 3.65373 506.806 0 510.678 0H623.555C627.357 0 630.526 3.57253 630.526 8.0382V48.8788C630.455 53.3444 627.357 56.917 623.555 56.917ZM616.372 12.1791C616.372 11.1239 616.009 10.112 615.362 9.36587C614.715 8.61975 613.837 8.20059 612.922 8.20059H612.781C611.866 8.20059 610.988 8.61975 610.341 9.36587C609.694 10.112 609.331 11.1239 609.331 12.1791V24.4394H595.248V12.1791C595.248 11.1239 594.884 10.112 594.237 9.36587C593.59 8.61975 592.712 8.20059 591.797 8.20059H591.656C590.741 8.20059 589.864 8.61975 589.217 9.36587C588.57 10.112 588.206 11.1239 588.206 12.1791V44.8191C588.206 47.0113 589.755 48.7976 591.656 48.7976H591.797C593.698 48.7976 595.248 47.0113 595.248 44.8191V32.64H609.331V44.8191C609.331 47.0113 610.88 48.7976 612.781 48.7976H612.922C614.823 48.7976 616.372 47.0113 616.372 44.8191V12.1791ZM539.901 48.7976C542.365 48.7976 543.633 47.3361 543.633 44.4943C543.633 41.6525 542.295 40.597 539.83 40.597H530.043L535.746 33.8579C538 31.3409 539.549 28.9862 540.535 26.7128C541.45 24.5206 541.943 22.2471 541.943 19.8113C541.943 15.9952 540.887 13.1534 538.774 11.1236C536.662 9.09372 533.563 8.1194 529.62 8.1194C528.001 8.1194 526.311 8.36298 524.691 8.76895C523.072 9.17492 521.522 9.90566 519.973 10.7988C519.128 11.286 518.495 12.0167 518.213 12.8286C517.861 13.6406 517.72 13.9654 517.861 14.7773C518.002 15.5892 518.283 16.32 518.706 16.9695C519.128 17.6191 519.762 18.0251 520.466 18.2686C521.17 18.5122 522.015 18.3498 522.86 17.8627C524.497 16.7991 526.334 16.2137 528.212 16.1576C531.381 16.1576 533.071 18.1063 533.071 20.948C533.071 22.0848 532.789 23.2215 532.226 24.3582C531.662 25.4949 530.747 26.8752 529.479 28.4179L520.748 39.1355C520.044 39.9474 519.551 40.7594 519.128 41.5713C518.706 42.3832 518.635 43.0328 518.635 44.0883C518.635 45.631 518.987 46.7677 519.621 47.4985C520.255 48.3104 521.311 48.6352 522.719 48.6352H539.901V48.7976ZM574.193 36.7809C574.233 36.2256 574.167 35.667 574 35.144C573.834 34.621 573.571 34.146 573.229 33.752C572.887 33.3581 572.475 33.0545 572.022 32.8625C571.568 32.6705 571.084 32.5945 570.602 32.64H567.011V12.3415C567.009 12.272 566.998 12.2033 566.976 12.1385C566.962 12.0735 566.94 12.0167 566.94 11.9355C566.94 11.6919 566.87 11.3672 566.8 11.1236C566.8 10.9043 566.736 10.7663 566.673 10.6202C566.645 10.539 566.61 10.474 566.588 10.3928C566.539 10.2223 566.455 10.0924 566.363 9.94626C566.319 9.87978 566.277 9.8121 566.236 9.74327C566.109 9.51546 565.941 9.32167 565.743 9.17492L565.532 8.93133C565.497 8.89074 565.448 8.8745 565.391 8.85014C565.34 8.83568 565.292 8.80792 565.251 8.76895C565.039 8.60656 564.828 8.52536 564.617 8.44417C564.414 8.35169 564.2 8.29687 563.983 8.28178C563.923 8.2801 563.863 8.26636 563.807 8.24119C563.751 8.22495 563.701 8.20059 563.631 8.20059C563.561 8.20059 563.504 8.22495 563.455 8.24119C563.399 8.26636 563.339 8.2801 563.279 8.28178C562.997 8.28178 562.786 8.36298 562.575 8.44417C562.363 8.52536 562.152 8.60656 561.941 8.76895C561.793 8.82578 561.68 8.92321 561.554 9.02877C561.496 9.0791 561.437 9.12783 561.378 9.17492C561.166 9.33731 561.026 9.49969 560.885 9.74327L560.673 9.98686L546.52 34.345C546.486 34.3923 546.462 34.4479 546.45 34.5074C546.437 34.567 546.413 34.6225 546.379 34.6698C546.238 34.9134 546.168 35.157 546.097 35.4006C546.027 35.6441 545.957 35.9689 545.957 36.2125C545.953 36.2494 545.944 36.2853 545.928 36.3181C545.901 36.3867 545.886 36.4615 545.886 36.5373C545.886 36.6185 545.9 36.6834 545.921 36.7403C545.943 36.8051 545.955 36.8737 545.957 36.9432C545.957 37.1868 546.027 37.5116 546.097 37.7552C546.097 37.9744 546.161 38.1124 546.224 38.2586C546.252 38.3398 546.288 38.4047 546.309 38.4859C546.358 38.6564 546.443 38.7864 546.534 38.9325C546.578 38.999 546.62 39.0667 546.661 39.1355C546.802 39.3791 546.942 39.5415 547.154 39.7038L547.365 39.9474C547.4 39.988 547.435 39.988 547.471 39.988C547.506 39.988 547.541 39.988 547.576 40.0286C548.14 40.3534 548.703 40.597 549.337 40.597H559.969V44.7379C559.969 47.0925 561.659 48.96 563.701 48.7976C565.603 48.6352 567.011 46.7677 567.011 44.5755V40.597H570.532C572.433 40.597 574.052 38.9731 574.193 36.7809ZM524.832 56.917H531.874V73.0746H602.289V56.917H609.331V73.0746H660.312C663.269 73.0746 665.734 75.8352 665.734 79.3265V99.3814C665.663 102.873 663.269 105.633 660.312 105.633H658.622V203.066H475.541V105.633H473.922C472.484 105.633 471.104 104.975 470.088 103.802C469.071 102.63 468.5 101.04 468.5 99.3814V79.3265C468.5 75.9164 470.894 73.0746 473.922 73.0746H524.832V56.917ZM637.567 166.61V142.008C637.567 140.953 637.204 139.941 636.557 139.195C635.91 138.449 635.032 138.03 634.117 138.03H577.573C576.658 138.03 575.781 138.449 575.133 139.195C574.486 139.941 574.123 140.953 574.123 142.008V166.61C574.123 168.802 575.672 170.589 577.573 170.589H634.117C635.948 170.589 637.497 168.802 637.567 166.61ZM545.957 134.457C545.957 132.021 544.196 129.992 542.084 129.992H528.775C526.663 129.992 524.902 132.021 524.902 134.457V190.481C524.902 192.917 526.663 194.947 528.775 194.947H542.084C544.196 194.947 545.957 192.917 545.957 190.481V134.457ZM517.79 134.457C517.79 132.021 516.03 129.992 513.918 129.992H500.609C498.497 129.992 496.736 132.021 496.736 134.457V190.481C496.736 192.917 498.497 194.947 500.609 194.947H513.918C516.03 194.947 517.79 192.917 517.79 190.481V134.457ZM658.692 81.194H475.541V97.5139H658.692V81.194Z" fill="black"/>
</svg>
