<svg width="1400" height="1979" viewBox="0 0 1400 1979" fill="none" xmlns="http://www.w3.org/2000/svg">
<rect y="1" width="1400" height="1977" fill="white"/>
<line y1="153" x2="1400" y2="153" stroke="#E0EEF7" stroke-width="2"/>
<line y1="188" x2="1400" y2="188" stroke="#E0EEF7" stroke-width="2"/>
<line y1="223" x2="1400" y2="223" stroke="#E0EEF7" stroke-width="2"/>
<line y1="258" x2="1400" y2="258" stroke="#E0EEF7" stroke-width="2"/>
<line y1="293" x2="1400" y2="293" stroke="#E0EEF7" stroke-width="2"/>
<line y1="328" x2="1400" y2="328" stroke="#E0EEF7" stroke-width="2"/>
<line y1="363" x2="1400" y2="363" stroke="#E0EEF7" stroke-width="2"/>
<line y1="398" x2="1400" y2="398" stroke="#E0EEF7" stroke-width="2"/>
<line y1="433" x2="1400" y2="433" stroke="#E0EEF7" stroke-width="2"/>
<line y1="468" x2="1400" y2="468" stroke="#E0EEF7" stroke-width="2"/>
<line y1="503" x2="1400" y2="503" stroke="#E0EEF7" stroke-width="2"/>
<line y1="538" x2="1400" y2="538" stroke="#E0EEF7" stroke-width="2"/>
<line y1="573" x2="1400" y2="573" stroke="#E0EEF7" stroke-width="2"/>
<line y1="608" x2="1400" y2="608" stroke="#E0EEF7" stroke-width="2"/>
<line y1="643" x2="1400" y2="643" stroke="#E0EEF7" stroke-width="2"/>
<line y1="678" x2="1400" y2="678" stroke="#E0EEF7" stroke-width="2"/>
<line y1="713" x2="1400" y2="713" stroke="#E0EEF7" stroke-width="2"/>
<line y1="748" x2="1400" y2="748" stroke="#E0EEF7" stroke-width="2"/>
<line y1="783" x2="1400" y2="783" stroke="#E0EEF7" stroke-width="2"/>
<line y1="818" x2="1400" y2="818" stroke="#E0EEF7" stroke-width="2"/>
<line y1="853" x2="1400" y2="853" stroke="#E0EEF7" stroke-width="2"/>
<line y1="888" x2="1400" y2="888" stroke="#E0EEF7" stroke-width="2"/>
<line y1="923" x2="1400" y2="923" stroke="#E0EEF7" stroke-width="2"/>
<line y1="958" x2="1400" y2="958" stroke="#E0EEF7" stroke-width="2"/>
<line y1="993" x2="1400" y2="993" stroke="#E0EEF7" stroke-width="2"/>
<line y1="1028" x2="1400" y2="1028" stroke="#E0EEF7" stroke-width="2"/>
<line y1="1063" x2="1400" y2="1063" stroke="#E0EEF7" stroke-width="2"/>
<line y1="1098" x2="1400" y2="1098" stroke="#E0EEF7" stroke-width="2"/>
<line y1="1133" x2="1400" y2="1133" stroke="#E0EEF7" stroke-width="2"/>
<line y1="1168" x2="1400" y2="1168" stroke="#E0EEF7" stroke-width="2"/>
<line y1="1203" x2="1400" y2="1203" stroke="#E0EEF7" stroke-width="2"/>
<line y1="1238" x2="1400" y2="1238" stroke="#E0EEF7" stroke-width="2"/>
<line y1="1273" x2="1400" y2="1273" stroke="#E0EEF7" stroke-width="2"/>
<line y1="1308" x2="1400" y2="1308" stroke="#E0EEF7" stroke-width="2"/>
<line y1="1343" x2="1400" y2="1343" stroke="#E0EEF7" stroke-width="2"/>
<line y1="1378" x2="1400" y2="1378" stroke="#E0EEF7" stroke-width="2"/>
<line y1="1413" x2="1400" y2="1413" stroke="#E0EEF7" stroke-width="2"/>
<line y1="1448" x2="1400" y2="1448" stroke="#E0EEF7" stroke-width="2"/>
<line y1="1483" x2="1400" y2="1483" stroke="#E0EEF7" stroke-width="2"/>
<line y1="1518" x2="1400" y2="1518" stroke="#E0EEF7" stroke-width="2"/>
<line y1="1553" x2="1400" y2="1553" stroke="#E0EEF7" stroke-width="2"/>
<line y1="1588" x2="1400" y2="1588" stroke="#E0EEF7" stroke-width="2"/>
<line y1="1623" x2="1400" y2="1623" stroke="#E0EEF7" stroke-width="2"/>
<line y1="1658" x2="1400" y2="1658" stroke="#E0EEF7" stroke-width="2"/>
<line y1="1693" x2="1400" y2="1693" stroke="#E0EEF7" stroke-width="2"/>
<line y1="1728" x2="1400" y2="1728" stroke="#E0EEF7" stroke-width="2"/>
<line y1="1763" x2="1400" y2="1763" stroke="#E0EEF7" stroke-width="2"/>
<line y1="1798" x2="1400" y2="1798" stroke="#E0EEF7" stroke-width="2"/>
<line y1="1833" x2="1400" y2="1833" stroke="#E0EEF7" stroke-width="2"/>
<line y1="1868" x2="1400" y2="1868" stroke="#E0EEF7" stroke-width="2"/>
<line y1="1903" x2="1400" y2="1903" stroke="#E0EEF7" stroke-width="2"/>
<line y1="1938" x2="1400" y2="1938" stroke="#E0EEF7" stroke-width="2"/>
<line x1="78" y1="1978.01" x2="78" y2="0.989258" stroke="#FFE5E8"/>
<line x1="89" y1="1978.01" x2="89" y2="0.989258" stroke="#FFE5E8"/>
<line x1="100" y1="1978.01" x2="100" y2="0.989258" stroke="#FFE5E8"/>
</svg>
