<svg width="2506" height="2954" viewBox="0 0 2506 2954" fill="none" xmlns="http://www.w3.org/2000/svg">
<g clip-path="url(#clip0_941_289)">
<path d="M2506 0H0V2954H2506V0Z" fill="white"/>
<path d="M0 302.5H2506" stroke="#E0EEF7" stroke-width="3"/>
<path d="M0 356.5H2506" stroke="#E0EEF7" stroke-width="3"/>
<path d="M0 410.5H2506" stroke="#E0EEF7" stroke-width="3"/>
<path d="M0 464.5H2506" stroke="#E0EEF7" stroke-width="3"/>
<path d="M0 518.5H2506" stroke="#E0EEF7" stroke-width="3"/>
<path d="M0 572.5H2506" stroke="#E0EEF7" stroke-width="3"/>
<path d="M0 626.5H2506" stroke="#E0EEF7" stroke-width="3"/>
<path d="M0 680.5H2506" stroke="#E0EEF7" stroke-width="3"/>
<path d="M0 734.5H2506" stroke="#E0EEF7" stroke-width="3"/>
<path d="M0 788.5H2506" stroke="#E0EEF7" stroke-width="3"/>
<path d="M0 842.5H2506" stroke="#E0EEF7" stroke-width="3"/>
<path d="M0 896.5H2506" stroke="#E0EEF7" stroke-width="3"/>
<path d="M0 950.5H2506" stroke="#E0EEF7" stroke-width="3"/>
<path d="M0 1004.5H2506" stroke="#E0EEF7" stroke-width="3"/>
<path d="M0 1058.5H2506" stroke="#E0EEF7" stroke-width="3"/>
<path d="M0 1112.5H2506" stroke="#E0EEF7" stroke-width="3"/>
<path d="M0 1166.5H2506" stroke="#E0EEF7" stroke-width="3"/>
<path d="M0 1220.5H2506" stroke="#E0EEF7" stroke-width="3"/>
<path d="M0 1274.5H2506" stroke="#E0EEF7" stroke-width="3"/>
<path d="M0 1328.5H2506" stroke="#E0EEF7" stroke-width="3"/>
<path d="M0 1382.5H2506" stroke="#E0EEF7" stroke-width="3"/>
<path d="M0 1436.5H2506" stroke="#E0EEF7" stroke-width="3"/>
<path d="M0 1490.5H2506" stroke="#E0EEF7" stroke-width="3"/>
<path d="M0 1544.5H2506" stroke="#E0EEF7" stroke-width="3"/>
<path d="M0 1598.5H2506" stroke="#E0EEF7" stroke-width="3"/>
<path d="M0 1652.5H2506" stroke="#E0EEF7" stroke-width="3"/>
<path d="M0 1706.5H2506" stroke="#E0EEF7" stroke-width="3"/>
<path d="M0 1760.5H2506" stroke="#E0EEF7" stroke-width="3"/>
<path d="M0 1814.5H2506" stroke="#E0EEF7" stroke-width="3"/>
<path d="M0 1868.5H2506" stroke="#E0EEF7" stroke-width="3"/>
<path d="M0 1922.5H2506" stroke="#E0EEF7" stroke-width="3"/>
<path d="M0 1976.5H2506" stroke="#E0EEF7" stroke-width="3"/>
<path d="M0 2030.5H2506" stroke="#E0EEF7" stroke-width="3"/>
<path d="M0 2084.5H2506" stroke="#E0EEF7" stroke-width="3"/>
<path d="M0 2138.5H2506" stroke="#E0EEF7" stroke-width="3"/>
<path d="M0 2192.5H2506" stroke="#E0EEF7" stroke-width="3"/>
<path d="M0 2246.5H2506" stroke="#E0EEF7" stroke-width="3"/>
<path d="M0 2300.5H2506" stroke="#E0EEF7" stroke-width="3"/>
<path d="M0 2354.5H2506" stroke="#E0EEF7" stroke-width="3"/>
<path d="M0 2408.5H2506" stroke="#E0EEF7" stroke-width="3"/>
<path d="M0 2462.5H2506" stroke="#E0EEF7" stroke-width="3"/>
<path d="M0 2516.5H2506" stroke="#E0EEF7" stroke-width="3"/>
<path d="M0 2570.5H2506" stroke="#E0EEF7" stroke-width="3"/>
<path d="M0 2624.5H2506" stroke="#E0EEF7" stroke-width="3"/>
<path d="M0 2678.5H2506" stroke="#E0EEF7" stroke-width="3"/>
<path d="M0 2732.5H2506" stroke="#E0EEF7" stroke-width="3"/>
<path d="M0 2786.5H2506" stroke="#E0EEF7" stroke-width="3"/>
<path d="M0 2840.5H2506" stroke="#E0EEF7" stroke-width="3"/>
<path d="M0 2894.5H2506" stroke="#E0EEF7" stroke-width="3"/>
<path d="M284.5 0V2954" stroke="#F2CDD2" stroke-width="3"/>
<path d="M300.5 0V2954" stroke="#F2CDD2" stroke-width="3"/>
<path d="M316.5 0V2954" stroke="#F2CDD2" stroke-width="3"/>
<path d="M332.5 0V2954" stroke="#F2CDD2" stroke-width="3"/>
</g>
<defs>
<clipPath id="clip0_941_289">
<rect width="2506" height="2954" fill="white"/>
</clipPath>
</defs>
</svg>
