<svg width="74" height="71" viewBox="0 0 74 71" fill="none" xmlns="http://www.w3.org/2000/svg">
<path d="M69.8058 0.5625C70.7783 0.5625 71.7109 0.948808 72.3985 1.63644C73.0862 2.32408 73.4725 3.25671 73.4725 4.22917C73.4725 5.20163 73.0862 6.13426 72.3985 6.82189C71.7109 7.50953 70.7783 7.89584 69.8058 7.89584V48.2292C69.8058 50.1741 69.0332 52.0394 67.6579 53.4146C66.2827 54.7899 64.4174 55.5625 62.4725 55.5625H43.9375L52.3451 63.9702C53.0131 64.6617 53.3826 65.5879 53.3743 66.5493C53.3659 67.5107 52.9803 68.4304 52.3005 69.1102C51.6206 69.79 50.701 70.1756 49.7396 70.184C48.7782 70.1923 47.852 69.8228 47.1605 69.1549L36.7875 58.7855L26.4181 69.1549C25.7266 69.8228 24.8004 70.1923 23.839 70.184C22.8776 70.1756 21.958 69.79 21.2782 69.1102C20.5983 68.4304 20.2127 67.5107 20.2043 66.5493C20.196 65.5879 20.5656 64.6617 21.2335 63.9702L29.6411 55.5625H11.1392C9.19424 55.5625 7.32897 54.7899 5.95371 53.4146C4.57844 52.0394 3.80583 50.1741 3.80583 48.2292V7.89584C2.83337 7.89584 1.90073 7.50953 1.2131 6.82189C0.525468 6.13426 0.13916 5.20163 0.13916 4.22917C0.13916 3.25671 0.525468 2.32408 1.2131 1.63644C1.90073 0.948808 2.83337 0.5625 3.80583 0.5625H69.8058ZM62.4725 7.89584H11.1392V48.2292H62.4725V7.89584ZM57.5481 15.8598C58.2355 16.5474 58.6217 17.4799 58.6217 18.4522C58.6217 19.4244 58.2355 20.3569 57.5481 21.0445L42.0161 36.5765C41.3217 37.2706 40.38 37.6605 39.3981 37.6605C38.4163 37.6605 37.4746 37.2706 36.7801 36.5765L29.0325 28.8215L21.2555 36.6058C20.5675 37.2939 19.6343 37.6804 18.6613 37.6804C17.6883 37.6804 16.7552 37.2939 16.0672 36.6058C15.3791 35.9178 14.9926 34.9847 14.9926 34.0117C14.9926 33.5299 15.0875 33.0528 15.2719 32.6077C15.4562 32.1626 15.7265 31.7582 16.0672 31.4175L26.4145 21.0775C27.1089 20.3834 28.0506 19.9935 29.0325 19.9935C30.0143 19.9935 30.956 20.3834 31.6505 21.0775L39.3981 28.8215L52.3635 15.8598C53.0511 15.1724 53.9835 14.7863 54.9558 14.7863C55.9281 14.7863 56.8605 15.1724 57.5481 15.8598V15.8598Z" fill="black"/>
</svg>
