<svg width="63" height="61" viewBox="0 0 63 61" fill="none" xmlns="http://www.w3.org/2000/svg">
<path d="M55.125 3.9375C56.1693 3.9375 57.1708 4.35234 57.9092 5.09077C58.6477 5.82919 59.0625 6.83071 59.0625 7.875V39.375C59.0625 40.4193 58.6477 41.4208 57.9092 42.1592C57.1708 42.8977 56.1693 43.3125 55.125 43.3125H17.3801C15.2917 43.3129 13.289 44.1429 11.8125 45.6199L3.9375 53.4949V7.875C3.9375 6.83071 4.35234 5.82919 5.09077 5.09077C5.82919 4.35234 6.83071 3.9375 7.875 3.9375H55.125ZM7.875 0C5.78642 0 3.78338 0.829685 2.30653 2.30653C0.829685 3.78338 0 5.78642 0 7.875L0 58.2474C8.27461e-05 58.637 0.115733 59.0178 0.332314 59.3416C0.548895 59.6654 0.85667 59.9176 1.21668 60.0665C1.5767 60.2153 1.97277 60.2539 2.35477 60.1776C2.73676 60.1012 3.08751 59.9132 3.36262 59.6374L14.5963 48.4037C15.3346 47.6652 16.3359 47.2502 17.3801 47.25H55.125C57.2136 47.25 59.2166 46.4203 60.6935 44.9435C62.1703 43.4666 63 41.4636 63 39.375V7.875C63 5.78642 62.1703 3.78338 60.6935 2.30653C59.2166 0.829685 57.2136 0 55.125 0L7.875 0Z" fill="#515882"/>
<path d="M27.8225 18.7421C27.0555 17.5476 25.9215 16.6344 24.591 16.1396C23.2605 15.6449 21.8054 15.5953 20.4443 15.9984C19.0832 16.4015 17.8898 17.2354 17.0433 18.3749C16.1968 19.5144 15.743 20.8979 15.7501 22.3173C15.7508 23.4928 16.0671 24.6465 16.6661 25.658C17.2651 26.6694 18.1247 27.5014 19.1551 28.0671C20.1855 28.6328 21.3489 28.9114 22.5238 28.8739C23.6987 28.8363 24.8419 28.4839 25.834 27.8535C25.3182 29.3852 24.3575 31.0192 22.7746 32.6572C22.4717 32.9705 22.3058 33.3913 22.3131 33.8269C22.3205 34.2626 22.5007 34.6775 22.814 34.9803C23.1272 35.2832 23.548 35.4492 23.9837 35.4418C24.4193 35.4344 24.8342 35.2543 25.1371 34.941C30.9882 28.8772 30.2283 22.2858 27.8225 18.75V18.7421ZM43.5725 18.7421C42.8055 17.5476 41.6715 16.6344 40.341 16.1396C39.0105 15.6449 37.5554 15.5953 36.1943 15.9984C34.8332 16.4015 33.6398 17.2354 32.7933 18.3749C31.9468 19.5144 31.493 20.8979 31.5001 22.3173C31.5008 23.4928 31.8172 24.6465 32.4161 25.658C33.0151 26.6694 33.8747 27.5014 34.9051 28.0671C35.9355 28.6328 37.0989 28.9114 38.2738 28.8739C39.4487 28.8363 40.5919 28.4839 41.584 27.8535C41.0682 29.3852 40.1075 31.0192 38.5246 32.6572C38.2217 32.9705 38.0558 33.3913 38.0631 33.8269C38.0705 34.2626 38.2507 34.6775 38.564 34.9803C38.8772 35.2832 39.298 35.4492 39.7337 35.4418C40.1694 35.4344 40.5842 35.2543 40.8871 34.941C46.7382 28.8772 45.9783 22.2858 43.5725 18.75V18.7421Z" fill="#515882"/>
</svg>
