<svg width="82" height="83" viewBox="0 0 82 83" fill="none" xmlns="http://www.w3.org/2000/svg">
<path d="M69.6204 30.7812L51.9121 13.0729L57.8496 7.13542C59.4468 5.53819 61.4093 4.73958 63.7371 4.73958C66.0621 4.73958 68.0232 5.53819 69.6204 7.13542L75.5579 13.0729C77.1552 14.6701 77.9538 16.6312 77.9538 18.9562C77.9538 21.284 77.1552 23.2465 75.5579 24.8437L69.6204 30.7812ZM3.57878 79.1146V61.4062L22.3288 42.6562L0.349609 20.4688L20.0371 0.78125L42.1204 22.9687L51.9121 13.0729L69.6204 30.7812L59.8288 40.5729L81.8079 62.7604L62.2246 82.3437L40.0371 60.2604L21.2871 79.1146H3.57878ZM28.2663 36.7187L36.1829 28.8021L31.1829 23.8021L26.1829 28.6979L20.3496 22.8646L25.2454 17.8646L19.9329 12.6563L12.1204 20.5729L28.2663 36.7187ZM62.1204 70.5729L70.0371 62.6562L64.7246 57.4479L59.8288 62.3438L53.8913 56.5104L58.8913 51.5104L53.7871 46.5104L45.8704 54.4271L62.1204 70.5729ZM11.9121 70.7812H17.7454L57.8496 30.7812L51.9121 24.8437L11.9121 64.9479V70.7812Z" fill="black"/>
</svg>
