<svg width="39" height="56" viewBox="0 0 39 56" fill="none" xmlns="http://www.w3.org/2000/svg">
<path fill-rule="evenodd" clip-rule="evenodd" d="M38.7252 7.54127C38.7201 5.73701 37.7785 4.00927 36.1075 2.73816C34.4365 1.46704 32.1729 0.756659 29.8148 0.763292L9.06868 0.82165C6.71058 0.828283 4.45108 1.55139 2.78725 2.83188C1.12341 4.11238 0.191528 5.84539 0.196603 7.64965L0.311422 48.4676C0.316497 50.2719 1.25811 51.9996 2.92913 53.2707C4.60014 54.5418 6.86367 55.2522 9.22177 55.2456L29.9679 55.1872C32.326 55.1806 34.5855 54.4575 36.2494 53.177C37.9132 51.8965 38.8451 50.1635 38.84 48.3592L38.7252 7.54127ZM32.836 21.1639L32.8232 16.6286L18.0045 16.6703C17.2185 16.6725 16.464 16.4357 15.907 16.012C15.35 15.5883 15.0361 15.0124 15.0344 14.411C15.0327 13.8095 15.3434 13.2319 15.898 12.805C16.4526 12.3782 17.2058 12.1372 17.9918 12.135L32.8105 12.0933L32.7977 7.55794C32.796 6.95652 32.4822 6.38061 31.9251 5.95691C31.3681 5.5332 30.6136 5.29641 29.8276 5.29862L9.08144 5.35698C8.29541 5.35919 7.54224 5.60022 6.98762 6.02705C6.43301 6.45389 6.12239 7.03156 6.12408 7.63298L6.2389 48.4509C6.24059 49.0523 6.55446 49.6283 7.11146 50.052C7.66847 50.4757 8.42298 50.7125 9.20901 50.7102L29.9552 50.6519C30.7412 50.6497 31.4944 50.4086 32.049 49.9818C32.6036 49.555 32.9142 48.9773 32.9125 48.3759L32.8998 43.8406L24.0086 43.8656C23.2225 43.8678 22.468 43.631 21.911 43.2073C21.354 42.7836 21.0401 42.2077 21.0384 41.6062C21.0368 41.0048 21.3474 40.4272 21.902 40.0003C22.4566 39.5735 23.2098 39.3325 23.9958 39.3302L32.887 39.3052L32.8743 34.7699L18.0556 34.8116C17.2695 34.8138 16.515 34.577 15.958 34.1533C15.401 33.7296 15.0872 33.1537 15.0855 32.5523C15.0838 31.9508 15.3944 31.3732 15.949 30.9463C16.5036 30.5195 17.2568 30.2785 18.0428 30.2763L32.8615 30.2346L32.8487 25.6993L23.9575 25.7243C23.1715 25.7265 22.417 25.4897 21.86 25.066C21.303 24.6423 20.9891 24.0664 20.9874 23.4649C20.9857 22.8635 21.2964 22.2858 21.851 21.859C22.4056 21.4322 23.1587 21.1911 23.9448 21.1889L32.836 21.1639Z" fill="white"/>
</svg>
