<svg width="924" height="637" viewBox="0 0 924 637" fill="none" xmlns="http://www.w3.org/2000/svg">
<path d="M37.4215 135.88C30.4794 131.626 24.9814 126.596 20.9275 120.791C17.0359 114.946 14.8562 108.905 14.3885 102.667C13.9824 96.3289 15.4862 90.2616 18.9 84.4651L33.5389 93.436C31.0208 98.6742 30.4743 104.083 31.8994 109.661C33.4868 115.201 37.7012 120.067 44.5428 124.26C51.0825 128.268 57.2001 129.802 62.8957 128.864C68.7536 127.887 73.2547 124.832 76.3992 119.701C78.8654 115.677 79.7625 111.729 79.0904 107.857C78.4184 103.985 76.823 100.378 74.3044 97.0357C71.7858 93.6931 68.1718 89.5408 63.4624 84.579C57.63 78.5137 53.1559 73.2808 50.04 68.8803C47.0248 64.5414 45.1794 59.5355 44.504 53.8626C43.9909 48.1508 45.7381 42.025 49.7457 35.4853C53.2601 29.7505 57.8326 25.5636 63.4631 22.9247C69.0937 20.2859 75.2648 19.3622 81.9763 20.1536C88.7884 21.0067 95.6152 23.5295 102.457 27.7221C112.317 33.7643 118.855 41.1618 122.072 49.9144C125.389 58.7286 124.953 67.4571 120.764 76.0998L105.672 66.8515C107.635 62.5188 107.681 57.7026 105.808 52.403C103.996 47.0028 100.022 42.4222 93.8848 38.6612C88.15 35.1469 82.5467 33.789 77.0751 34.5878C71.6651 35.2859 67.3262 38.3011 64.0584 43.6335C61.7155 47.4567 60.8606 51.2231 61.4937 54.9325C62.2274 58.7036 63.753 62.1988 66.0704 65.418C68.5501 68.5983 72.1641 72.7506 76.9124 77.8747C82.6831 84.0406 87.0956 89.3741 90.1498 93.8752C93.2657 98.2758 95.1305 103.363 95.7442 109.136C96.4196 114.809 94.7227 120.966 90.6534 127.606C87.509 132.737 83.1913 136.734 77.7003 139.597C72.2093 142.46 65.9344 143.666 58.8757 143.215C51.8169 142.765 44.6655 140.32 37.4215 135.88ZM113.686 123.868C118.865 115.416 125.107 109.07 132.412 104.827C139.779 100.485 147.509 98.3713 155.603 98.4876C163.798 98.6656 171.567 101.005 178.912 105.506C186.156 109.945 191.488 115.358 194.909 121.745C198.331 128.131 199.9 134.491 199.618 140.822L208.866 125.731L222.751 134.239L172.07 216.941L158.186 208.433L167.619 193.039C161.943 196.204 155.402 197.732 147.996 197.622C140.752 197.473 133.559 195.21 126.415 190.832C119.071 186.331 113.54 180.451 109.824 173.191C106.107 165.932 104.542 157.984 105.129 149.348C105.716 140.712 108.568 132.218 113.686 123.868ZM183.619 166.931C187.441 160.693 189.513 154.489 189.834 148.32C190.155 142.15 188.892 136.533 186.045 131.467C183.361 126.362 179.453 122.237 174.322 119.093C169.191 115.948 163.773 114.289 158.067 114.114C152.362 113.939 146.834 115.395 141.482 118.482C136.131 121.568 131.544 126.231 127.721 132.469C123.837 138.807 121.703 145.111 121.321 151.382C121 157.551 122.181 163.188 124.866 168.293C127.612 173.297 131.55 177.372 136.681 180.516C141.813 183.66 147.231 185.32 152.936 185.495C158.804 185.631 164.413 184.155 169.765 181.069C175.178 177.881 179.796 173.169 183.619 166.931ZM251.461 170.309C256.774 167.06 262.445 165.484 268.475 165.581C274.605 165.74 280.89 167.792 287.329 171.738L278.636 185.924L275.014 183.704C259.62 174.271 246.806 177.905 236.571 194.607L209.011 239.58L195.278 231.164L245.959 148.461L259.692 156.877L251.461 170.309ZM271.971 220.867C277.15 212.416 283.392 206.069 290.697 201.827C298.064 197.484 305.795 195.371 313.889 195.487C322.083 195.665 329.853 198.004 337.197 202.505C344.441 206.944 349.774 212.357 353.195 218.744C356.616 225.131 358.186 231.49 357.904 237.822L367.152 222.73L381.036 231.238L330.355 313.941L316.471 305.432L325.904 290.039C320.228 293.203 313.687 294.731 306.281 294.621C299.038 294.472 291.844 292.209 284.701 287.831C277.356 283.331 271.826 277.45 268.109 270.191C264.393 262.931 262.828 254.983 263.415 246.347C264.002 237.711 266.854 229.218 271.971 220.867ZM341.904 263.93C345.727 257.692 347.798 251.489 348.119 245.319C348.44 239.15 347.177 233.532 344.331 228.466C341.647 223.361 337.739 219.237 332.608 216.092C327.477 212.948 322.058 211.288 316.353 211.113C310.647 210.938 305.119 212.394 299.768 215.481C294.416 218.568 289.829 223.23 286.006 229.468C282.122 235.806 279.989 242.111 279.606 248.381C279.285 254.55 280.467 260.187 283.151 265.292C285.897 270.296 289.836 274.371 294.967 277.515C300.098 280.66 305.516 282.319 311.222 282.494C317.089 282.63 322.699 281.155 328.05 278.068C333.464 274.881 338.081 270.168 341.904 263.93ZM446.219 269.107C452.457 272.93 457.258 277.741 460.624 283.54C464.052 289.239 465.54 295.617 465.09 302.676C464.739 309.796 462.222 317.18 457.536 324.826L427.664 373.572L414.081 365.249L442.751 318.465C447.807 310.215 449.598 302.662 448.124 295.808C446.712 288.854 442.434 283.187 435.29 278.81C428.046 274.371 420.874 273.089 413.773 274.965C406.773 276.903 400.622 282.199 395.319 290.851L367.297 336.579L353.564 328.163L422.001 216.485L435.735 224.901L410.764 265.648C416.07 263.087 421.797 262.099 427.943 262.682C434.191 263.328 440.283 265.469 446.219 269.107Z" fill="#355070"/>
<path d="M547.378 446.935L533.475 372.401L504.065 420.392L490.332 411.976L554.793 306.787L568.526 315.203L538.654 363.949L611.99 341.839L629.345 352.474L549.379 375.919L565.337 457.94L547.378 446.935ZM601.07 422.542C606.249 414.091 612.491 407.744 619.796 403.502C627.163 399.159 634.893 397.046 642.987 397.162C651.181 397.34 658.951 399.68 666.296 404.18C673.54 408.62 678.872 414.033 682.293 420.419C685.714 426.806 687.284 433.165 687.002 439.497L696.25 424.405L710.135 432.914L659.454 515.616L645.569 507.108L655.003 491.714C649.327 494.879 642.786 496.406 635.38 496.296C628.136 496.148 620.943 493.884 613.799 489.507C606.455 485.006 600.924 479.126 597.208 471.866C593.491 464.606 591.926 456.658 592.513 448.022C593.1 439.386 595.952 430.893 601.07 422.542ZM671.002 465.606C674.825 459.368 676.897 453.164 677.218 446.995C677.539 440.825 676.276 435.207 673.429 430.141C670.745 425.037 666.837 420.912 661.706 417.768C656.575 414.623 651.157 412.964 645.451 412.789C639.746 412.614 634.217 414.07 628.866 417.156C623.514 420.243 618.927 424.905 615.105 431.143C611.22 437.482 609.087 443.786 608.705 450.056C608.384 456.226 609.565 461.863 612.25 466.968C614.996 471.972 618.934 476.046 624.065 479.191C629.196 482.335 634.615 483.995 640.32 484.17C646.188 484.306 651.797 482.83 657.149 479.743C662.562 476.556 667.18 471.843 671.002 465.606ZM774.562 470.32C784.623 476.486 790.892 484.548 793.369 494.508C795.908 504.368 793.663 515.032 786.634 526.502L756.762 575.248L743.179 566.924L771.849 520.14C776.905 511.89 778.696 504.338 777.222 497.484C775.81 490.529 771.532 484.863 764.389 480.485C757.145 476.046 749.972 474.765 742.872 476.641C735.871 478.579 729.72 483.874 724.418 492.527L696.395 538.254L682.662 529.838L733.343 447.136L747.076 455.552L739.862 467.324C745.169 464.763 750.845 463.743 756.891 464.265C763.038 464.849 768.928 466.867 774.562 470.32ZM881.936 590.717C880.333 593.333 878.487 596.007 876.397 598.74L810.296 558.232C805.804 566.69 804.656 574.774 806.851 582.485C809.207 590.157 814.007 596.212 821.251 600.652C827.188 604.289 832.95 605.952 838.538 605.64C844.289 605.289 849.388 603.293 853.833 599.651L868.623 608.715C861.539 615.307 853.135 619.083 843.412 620.044C833.751 620.905 823.99 618.314 814.13 612.272C806.283 607.463 800.319 601.386 796.239 594.042C792.26 586.76 790.482 578.82 790.907 570.223C791.393 561.526 794.256 552.901 799.497 544.349C804.738 535.797 811.042 529.349 818.408 525.007C825.775 520.664 833.575 518.663 841.809 519.003C850.205 519.304 858.427 521.921 866.476 526.853C874.324 531.662 880.218 537.627 884.158 544.747C888.098 551.867 889.829 559.432 889.349 567.442C889.031 575.413 886.56 583.171 881.936 590.717ZM869.507 579.156C872.713 573.924 874.3 568.738 874.267 563.597C874.296 558.356 872.884 553.546 870.031 549.168C867.34 544.752 863.58 541.063 858.751 538.104C851.809 533.85 844.516 532.425 836.874 533.831C829.331 535.299 822.804 539.74 817.29 547.156L869.507 579.156Z" fill="#D45769"/>
</svg>
