<svg width="54" height="72" viewBox="0 0 54 72" fill="none" xmlns="http://www.w3.org/2000/svg">
<path d="M19.8759 34.6384C20.9968 43.3523 18.9433 48.1166 13.1441 49.1185C6.6998 50.2319 4.04448 45.1882 2.92357 36.4742C1.41588 24.7487 4.95927 17.4558 10.0116 16.9861C14.6098 16.5595 18.7537 25.926 19.8759 34.6384ZM22.8849 58.8224C23.2831 63.7695 20.9942 68.3866 17.5412 69.1775C14.055 69.9742 10.0714 66.744 9.25969 61.8653C8.44796 56.9866 11.518 56.7279 15.2803 55.8881C19.0425 55.0482 22.404 52.8556 22.8849 58.8224ZM34.1258 20.3664C33.0049 29.0803 35.0584 33.8446 40.8563 34.8465C47.3019 35.9599 49.9559 30.9162 51.0768 22.2023C52.5858 10.4752 49.0411 3.14223 43.99 2.71411C39.3588 2.32168 35.248 11.6525 34.1258 20.3664ZM31.1168 44.5519C30.7185 49.4976 33.0074 54.1161 36.4605 54.907C39.9466 55.7037 43.9302 52.4736 44.742 47.5948C45.5537 42.7161 42.4836 42.4574 38.7214 41.6161C34.9591 40.7747 31.5977 38.5836 31.1168 44.5519Z" stroke="white" stroke-width="5" stroke-miterlimit="10"/>
</svg>
