<svg width="250" height="250" viewBox="0 0 250 250" fill="none" xmlns="http://www.w3.org/2000/svg">
<path d="M205.813 191.252C188.563 185.439 145.458 163.127 145.458 163.127H102.604C102.604 163.127 59.5208 185.439 42.25 191.252C25 197.064 25 226.523 25 226.523H223.083C223.083 226.523 223.083 197.064 205.833 191.252H205.813Z" fill="#424777"/>
<path fill-rule="evenodd" clip-rule="evenodd" d="M102.23 166.375L105.042 142.75H142.813L145.73 165.125L141.728 165.24L131.77 172.002L126.978 219.168L119.062 172.585L111.447 166.11L102.23 166.375Z" fill="#C1735C"/>
<path d="M103.416 156.374C103.416 156.374 132.687 159.062 142.999 146.229V131.479L105.895 135.041L103.416 156.374Z" fill="#A5503C"/>
<path d="M103.104 159.002L88.9995 170.023L108.02 188.585L119.062 172.585L103.104 159.002Z" fill="#515882"/>
<path d="M131.771 172.002L144.958 159.189L157.812 169.356L140.792 187.981L131.771 172.002Z" fill="#515882"/>
<path d="M115.354 21.793C112.625 15.043 99.7498 10.918 99.7498 10.918C102.937 32.0221 115.062 27.4805 115.062 27.4805C115.312 26.9805 115.479 26.4805 115.625 26.0013C125.125 31.293 133.041 11.8763 133.041 11.8763C119.812 12.8346 116.187 18.0013 115.354 21.793Z" fill="#FF7C59"/>
<path fill-rule="evenodd" clip-rule="evenodd" d="M125.792 148.668C144.926 148.668 161.122 132.591 166.566 110.427C168.356 110.073 169.146 109.687 169.146 109.687C173.521 107.354 175.875 101.958 175.208 94.9371C174.708 89.6682 170.43 88.858 168.325 88.7817C166.255 61.0815 148.002 39.418 125.792 39.418C103.583 39.418 85.3316 61.0786 83.2588 88.7761C81.4364 88.7498 76.419 89.2041 75.8747 94.9371C75.208 101.958 77.5622 107.354 81.9372 109.687C81.9372 109.687 82.8747 110.145 85.0205 110.52L85.0151 110.415C90.4563 132.585 106.655 148.668 125.792 148.668Z" fill="#C1735C"/>
<path d="M125.791 36.2089C79.9581 35.5631 83.0622 89.1256 83.0622 89.1256L125.791 92.2506L168.521 89.1256C168.521 89.1256 171.625 35.5631 125.791 36.2089Z" fill="#C1735C"/>
<path d="M96.4995 83.0861C103.541 81.8152 109.77 82.8152 112.937 83.4194C113.895 83.6069 114.854 83.1486 115.145 82.3569C115.479 81.4611 114.854 80.5444 113.77 80.3361C110.166 79.6486 103.687 78.6069 96.8953 80.9819C95.8537 81.3569 93.9995 82.3777 94.562 83.1902C94.8745 83.4819 95.562 83.2319 96.4995 83.0652V83.0861Z" fill="#441D39"/>
<path d="M155.521 83.107C148.48 81.8362 142.251 82.8362 139.084 83.4403C138.126 83.6278 137.167 83.1487 136.876 82.357C136.542 81.4612 137.167 80.5237 138.251 80.3153C141.855 79.607 148.334 78.5653 155.126 80.982C156.167 81.357 158.021 82.3778 157.459 83.2112C157.146 83.5028 156.459 83.2528 155.521 83.0862V83.107Z" fill="#441D39"/>
<path d="M145.98 98.416C147.372 98.416 148.501 96.4573 148.501 94.041C148.501 91.6248 147.372 89.666 145.98 89.666C144.588 89.666 143.459 91.6248 143.459 94.041C143.459 96.4573 144.588 98.416 145.98 98.416Z" fill="#441D39"/>
<path d="M108.167 97.5195C109.559 97.5195 110.687 95.5608 110.687 93.1445C110.687 90.7283 109.559 88.7695 108.167 88.7695C106.774 88.7695 105.646 90.7283 105.646 93.1445C105.646 95.5608 106.774 97.5195 108.167 97.5195Z" fill="#441D39"/>
<path d="M128.75 113.708H124.771C123 113.708 121.437 113.021 120.604 111.896C120 111.083 119.833 110.125 120.125 109.187C121.041 106.187 121.812 103.354 121.812 103.333C121.958 102.771 122.521 102.458 123.083 102.604C123.646 102.75 123.979 103.333 123.812 103.875C123.812 103.875 123.041 106.771 122.104 109.792C122.021 110.083 122.062 110.375 122.271 110.667C122.708 111.271 123.687 111.646 124.771 111.646H128.75C129.333 111.646 129.791 112.104 129.791 112.687C129.791 113.271 129.333 113.729 128.75 113.729V113.708Z" fill="#A5503C"/>
<path d="M119.668 127.292C117.73 127.292 116.459 127.187 116.313 127.167C115.73 127.125 115.313 126.604 115.355 126.042C115.397 125.479 115.897 125.042 116.48 125.083C116.605 125.083 128.355 126.042 137.063 121.75C137.584 121.5 138.209 121.708 138.459 122.229C138.709 122.75 138.501 123.375 137.98 123.625C131.605 126.771 123.959 127.271 119.647 127.271L119.668 127.292Z" fill="#A5503C"/>
<path d="M148.063 105.271C152.078 105.271 155.333 104.525 155.333 103.604C155.333 102.684 152.078 101.938 148.063 101.938C144.047 101.938 140.792 102.684 140.792 103.604C140.792 104.525 144.047 105.271 148.063 105.271Z" fill="#AF5D4E"/>
<path d="M105.645 105.271C109.661 105.271 112.916 104.525 112.916 103.604C112.916 102.684 109.661 101.938 105.645 101.938C101.63 101.938 98.3745 102.684 98.3745 103.604C98.3745 104.525 101.63 105.271 105.645 105.271Z" fill="#AF5D4E"/>
<path d="M153.666 56.2721C153.666 56.2721 166.291 79.043 168.5 89.1263C168.5 89.1263 175.333 58.7721 159.229 42.3555L153.666 56.2513V56.2721Z" fill="#FF7C59"/>
<path d="M83.0618 89.1283L87.6034 71.7949H82.0618L83.0618 89.1283Z" fill="#FF7C59"/>
<path d="M152.229 33.3763C152.229 33.3763 152.229 33.2721 152.229 33.2305C152.229 28.3763 148.291 24.4596 143.458 24.4596C142.395 24.4596 141.416 24.668 140.479 25.0221C137.895 22.293 133.854 20.5221 129.27 20.5221C125.041 20.5221 121.249 22.043 118.645 24.4388C115.916 22.793 112.541 21.793 108.895 21.793C107.354 21.793 105.874 21.9805 104.458 22.293C102.395 20.5013 99.7286 19.418 96.7911 19.418C92.1661 19.418 88.1869 22.1055 86.2911 26.0013C85.1453 25.043 83.6869 24.4596 82.0828 24.4596C78.4161 24.4596 75.4578 27.4388 75.4578 31.0846C75.4578 31.4805 75.4994 31.8555 75.5828 32.2305C68.3536 32.3346 62.5203 38.2305 62.5203 45.4805C62.5203 49.8763 64.6661 53.7721 67.9786 56.1888C66.7494 58.1888 66.0411 60.543 66.0411 63.0846C66.0411 70.418 71.9786 76.3555 79.3119 76.3555C86.6453 76.3555 92.5828 70.418 92.5828 63.0846C92.5828 62.9388 92.5828 62.793 92.5619 62.6471C94.3328 63.5221 96.3119 64.0221 98.4161 64.0221C105.437 64.0221 111.166 58.5638 111.645 51.6888C114.041 54.1263 117.374 55.6263 121.062 55.6263C126.541 55.6263 131.249 52.293 133.27 47.543C134.374 53.7721 139.791 58.5013 146.333 58.5013C153.666 58.5013 159.604 52.5638 159.604 45.2305C159.604 40.043 156.624 35.5638 152.27 33.3763H152.229Z" fill="#441D39"/>
</svg>
