<svg width="438" height="903" viewBox="0 0 438 903" fill="none" xmlns="http://www.w3.org/2000/svg">
<g filter="url(#filter0_dii_566_492)">
<g clip-path="url(#clip0_566_492)">
<path d="M39 62H399V840C399 851.598 389.598 861 378 861H60C48.402 861 39 851.598 39 840V62Z" fill="#F8F8F8"/>
<g clip-path="url(#clip1_566_492)">
<rect width="360" height="800" transform="translate(39 62)" fill="#F8F8F8"/>
<path d="M90.905 -10C-4.03786 -10 -81 66.9621 -81 161.905C-81 256.848 -4.03786 333.81 90.905 333.81C185.848 333.81 262.81 256.848 262.81 161.905C262.81 66.9621 185.848 -10 90.905 -10ZM147.946 237.876C145.242 240.565 142.407 243.387 140.106 245.695C138.033 247.774 136.571 250.339 135.829 253.119C134.782 257.042 133.937 261.007 132.523 264.812L120.468 297.287C110.931 299.367 101.06 300.538 90.905 300.538V281.559C92.0764 272.811 85.6092 256.425 75.2187 246.034C71.0597 241.875 68.7237 236.233 68.7237 230.348V208.16C68.7237 200.091 64.3775 192.675 57.3142 188.772C47.3534 183.261 33.1851 175.56 23.4808 170.674C15.5233 166.667 8.16185 161.565 1.54212 155.597L0.987587 155.098C-3.74629 150.825 -7.9493 145.998 -11.531 140.722C-18.0329 131.177 -28.6244 115.477 -35.5076 105.273C-21.3185 73.7344 4.2524 48.4061 36.0271 34.6468L52.67 42.9717C60.0453 46.6593 68.7237 41.3012 68.7237 33.0525V25.2197C74.2621 24.3255 79.8975 23.7571 85.63 23.5423L105.247 43.1588C109.579 47.4911 109.579 54.5129 105.247 58.8452L101.996 62.0892L94.8283 69.2565C92.6656 71.4192 92.6656 74.9335 94.8283 77.0962L98.0793 80.3472C100.242 82.5098 100.242 86.0242 98.0793 88.1869L92.5339 93.7322C91.4928 94.7713 90.0816 95.3547 88.6106 95.3542H82.3791C80.9373 95.3542 79.5509 95.9156 78.5112 96.9277L71.635 103.617C70.7921 104.438 70.2318 105.505 70.035 106.665C69.8381 107.825 70.0149 109.017 70.5398 110.07L81.3463 131.69C83.1901 135.378 80.5075 139.717 76.3901 139.717H72.4807C71.1429 139.717 69.8535 139.232 68.8485 138.358L62.4159 132.771C60.9602 131.508 59.201 130.646 57.3111 130.27C55.4212 129.893 53.4658 130.014 51.6372 130.622L30.0312 137.824C28.3817 138.374 26.9471 139.43 25.9306 140.84C24.9142 142.251 24.3675 143.946 24.368 145.685C24.368 148.825 26.1426 151.688 28.9499 153.095L36.6301 156.935C43.1528 160.2 50.3479 161.898 57.64 161.898C64.9321 161.898 73.2986 180.815 79.8213 184.079H126.09C131.975 184.079 137.61 186.415 141.776 190.574L151.266 200.064C155.23 204.03 157.457 209.408 157.456 215.015C157.454 219.264 156.613 223.471 154.981 227.394C153.349 231.318 150.958 234.88 147.946 237.876ZM208.05 174.555C204.036 173.55 200.536 171.089 198.242 167.644L185.779 148.95C183.955 146.218 182.982 143.008 182.982 139.724C182.982 136.44 183.955 133.229 185.779 130.498L199.358 110.132C200.966 107.727 203.17 105.772 205.762 104.483L214.76 99.9845C224.131 118.645 229.538 139.634 229.538 161.905C229.538 167.915 229.025 173.8 228.276 179.608L208.05 174.555Z" fill="#FDFDFD"/>
<path d="M256.653 643.782C126.254 642.798 19.9797 717.659 19.2752 810.995C18.5707 904.331 123.703 980.788 254.102 981.772C384.502 982.757 490.776 907.895 491.481 814.559C492.185 721.224 387.053 644.766 256.653 643.782ZM407.869 791.78L407.834 796.503C407.804 800.503 404.615 804.138 399.604 805.886L384.912 811.022C382.579 811.838 379.983 812.197 377.387 812.061C374.791 811.925 372.288 811.3 370.132 810.25L352.858 801.846C350.995 800.941 348.869 800.35 346.644 800.119C344.418 799.889 342.151 800.025 340.015 800.516L337.488 801.096C328.237 803.228 324.407 811.077 329.761 816.916L342.264 830.545C344.974 833.502 349.569 835.302 354.5 835.339L362.316 835.398C370.466 835.46 377.037 840.239 376.993 846.072L376.935 853.799C376.917 856.082 375.863 858.303 373.936 860.114L355.966 877.002C354.604 878.286 353.67 879.779 353.239 881.363L349.028 896.889C348.42 899.127 346.815 901.159 344.452 902.688C335.385 908.534 327.343 915.145 320.501 922.379L307.996 935.608C305.564 938.18 302.279 940.279 298.433 941.719C294.587 943.16 290.299 943.896 285.95 943.864C275.944 943.789 266.826 939.672 262.4 933.233C257.24 925.727 254.587 917.473 254.651 909.125L254.804 888.757C254.848 882.924 248.277 878.145 240.128 878.083L215.489 877.897C201.694 877.793 188.5 873.768 178.795 866.717C169.097 859.661 163.689 850.151 163.761 840.278L163.833 830.697C163.922 818.983 171.716 808.009 184.86 801.076L211.223 787.175C220.263 782.41 231.233 779.88 242.487 779.963L243.334 779.969C251.407 780.03 259.366 781.432 266.563 784.076L280.538 789.197C284.032 790.478 288.077 790.713 291.797 789.855L336.918 779.449C342.955 778.056 347.051 774.053 347.085 769.508C347.129 763.675 340.558 758.896 332.409 758.834L322.803 758.762C318.89 758.732 315.147 757.593 312.392 755.589L305.839 750.824C304.477 749.833 302.856 749.042 301.07 748.498C299.283 747.954 297.366 747.666 295.428 747.652L209.698 747.004C201.549 746.943 194.978 742.164 195.022 736.331L195.044 733.333C195.081 728.488 199.721 724.297 206.299 723.168L220.074 720.812C223.639 720.198 226.755 718.661 228.809 716.489L236.563 708.295C239.318 705.379 243.939 703.649 248.87 703.686L271.919 703.86C280.068 703.921 286.711 699.242 286.755 693.409L286.867 678.622C362.22 687.941 422.492 728.868 440.251 781.462L422.706 781.33C414.556 781.268 407.913 785.947 407.869 791.78Z" fill="#FDFDFD"/>
<g filter="url(#filter1_d_566_492)">
<rect width="360" height="88" transform="translate(39 774)" fill="white"/>
<path d="M77 797.125H62.75V811.375H71V819.25H85.25V805H77V797.125ZM68.9518 800.5L66.5981 807.217H68.1875L68.5703 806.125H71V809.875H64.25V798.625H75.5V805H72.3749L70.7984 800.5H68.9518ZM70.6542 804.625H69.0958L69.875 802.401L70.6542 804.625ZM83.75 806.5V817.75H72.5V806.5H83.75Z" fill="#D45769"/>
<path d="M76.8796 813.273C77.0231 813.503 77.1811 813.724 77.3525 813.934C76.8088 814.228 76.1913 814.374 75.5 814.375V815.875C76.6316 815.875 77.6427 815.575 78.5 814.993C79.3573 815.575 80.3684 815.875 81.5 815.875V814.375C80.8102 814.375 80.1927 814.228 79.6475 813.934C79.819 813.724 79.9769 813.503 80.1204 813.273C80.5527 812.57 80.8706 811.803 81.0623 811H81.875V809.5H79.25V808.375H77.75V809.5H75.125V811H75.9377C76.1294 811.803 76.4473 812.57 76.8796 813.273ZM79.5092 811C79.354 811.519 79.1319 812.016 78.8483 812.477C78.7423 812.648 78.626 812.811 78.5 812.967C78.3831 812.823 78.2747 812.672 78.1752 812.515C77.8801 812.043 77.6498 811.533 77.4906 811H79.5092Z" fill="#D45769"/>
<path d="M63.5881 832.208H64.9001V837.968C64.8361 837.989 64.7507 838.011 64.6441 838.032C64.5374 838.064 64.4201 838.08 64.2921 838.08C64.0574 838.08 63.8814 838.032 63.7641 837.936C63.6467 837.84 63.5881 837.691 63.5881 837.488V832.208ZM64.9001 833.28H63.5881V828.304C63.6414 828.283 63.7214 828.261 63.8281 828.24C63.9454 828.208 64.0681 828.192 64.1961 828.192C64.4307 828.192 64.6067 828.24 64.7241 828.336C64.8414 828.421 64.9001 828.571 64.9001 828.784V833.28ZM69.8921 832.208H71.2041V837.968C71.1401 837.989 71.0547 838.011 70.9481 838.032C70.8414 838.064 70.7241 838.08 70.5961 838.08C70.3614 838.08 70.1854 838.032 70.0681 837.936C69.9507 837.84 69.8921 837.691 69.8921 837.488V832.208ZM71.2041 833.28H69.8921V828.304C69.9454 828.283 70.0254 828.261 70.1321 828.24C70.2494 828.208 70.3721 828.192 70.5001 828.192C70.7347 828.192 70.9107 828.24 71.0281 828.336C71.1454 828.421 71.2041 828.571 71.2041 828.784V833.28ZM70.5801 833.616H64.3721V832.528H70.5801V833.616ZM80.6968 834.304C80.6968 835.093 80.5475 835.781 80.2488 836.368C79.9501 836.955 79.5288 837.408 78.9848 837.728C78.4408 838.048 77.8008 838.208 77.0648 838.208C76.3288 838.208 75.6835 838.048 75.1288 837.728C74.5848 837.408 74.1635 836.955 73.8648 836.368C73.5661 835.781 73.4168 835.093 73.4168 834.304C73.4168 833.504 73.5661 832.816 73.8648 832.24C74.1741 831.653 74.6008 831.2 75.1448 830.88C75.6995 830.56 76.3395 830.4 77.0648 830.4C77.7901 830.4 78.4248 830.56 78.9688 830.88C79.5128 831.2 79.9341 831.653 80.2328 832.24C80.5421 832.816 80.6968 833.504 80.6968 834.304ZM77.0648 831.456C76.3501 831.456 75.7795 831.712 75.3528 832.224C74.9368 832.725 74.7288 833.419 74.7288 834.304C74.7288 835.2 74.9315 835.899 75.3368 836.4C75.7528 836.901 76.3288 837.152 77.0648 837.152C77.7901 837.152 78.3555 836.901 78.7608 836.4C79.1768 835.888 79.3848 835.189 79.3848 834.304C79.3848 833.419 79.1768 832.725 78.7608 832.224C78.3555 831.712 77.7901 831.456 77.0648 831.456ZM88.6446 832.88V834.72H87.3646V832.976C87.3646 832.453 87.2099 832.069 86.9006 831.824C86.6019 831.579 86.2019 831.456 85.7006 831.456C85.3699 831.456 85.0499 831.509 84.7406 831.616C84.4312 831.723 84.1699 831.845 83.9566 831.984V834.72H82.6766V832.048C82.6766 831.835 82.7192 831.653 82.8046 831.504C82.9006 831.355 83.0606 831.211 83.2846 831.072C83.5726 830.891 83.9352 830.736 84.3726 830.608C84.8206 830.469 85.2686 830.4 85.7166 830.4C86.2606 830.4 86.7406 830.485 87.1566 830.656C87.5726 830.816 87.8819 831.04 88.0846 831.328C88.1486 831.392 88.2019 831.451 88.2446 831.504C88.2872 831.557 88.3299 831.627 88.3726 831.712C88.4472 831.84 88.5112 832.005 88.5646 832.208C88.6179 832.411 88.6446 832.635 88.6446 832.88ZM93.3326 832.912V834.72H92.0526V832.976C92.0526 832.453 91.9032 832.069 91.6046 831.824C91.3059 831.579 90.9059 831.456 90.4046 831.456C90.0312 831.456 89.6686 831.536 89.3166 831.696C88.9752 831.845 88.6659 832.064 88.3886 832.352L87.8766 831.424C88.1539 831.147 88.5166 830.907 88.9646 830.704C89.4126 830.501 89.9246 830.4 90.5006 830.4C91.0766 830.4 91.5726 830.491 91.9886 830.672C92.4152 830.853 92.7459 831.131 92.9806 831.504C93.2152 831.877 93.3326 832.347 93.3326 832.912ZM82.6766 833.872H83.9566V837.968C83.9032 837.989 83.8232 838.011 83.7166 838.032C83.6099 838.064 83.4926 838.08 83.3646 838.08C83.1406 838.08 82.9699 838.037 82.8526 837.952C82.7352 837.856 82.6766 837.707 82.6766 837.504V833.872ZM87.3646 833.872H88.6446V837.968C88.5912 837.989 88.5059 838.011 88.3886 838.032C88.2819 838.064 88.1699 838.08 88.0526 838.08C87.8179 838.08 87.6419 838.037 87.5246 837.952C87.4179 837.856 87.3646 837.707 87.3646 837.504V833.872ZM92.0526 833.872H93.3326V837.968C93.2792 837.989 93.1939 838.011 93.0766 838.032C92.9699 838.064 92.8579 838.08 92.7406 838.08C92.5059 838.08 92.3299 838.037 92.2126 837.952C92.1059 837.856 92.0526 837.707 92.0526 837.504V833.872ZM96.2031 835.12L96.1391 834.112L100.971 833.456C100.928 832.869 100.726 832.389 100.363 832.016C100 831.632 99.4991 831.44 98.8591 831.44C98.1977 831.44 97.6484 831.68 97.2111 832.16C96.7844 832.629 96.5711 833.307 96.5711 834.192V834.544C96.6457 835.397 96.9231 836.048 97.4031 836.496C97.8937 836.933 98.5604 837.152 99.4031 837.152C99.8511 837.152 100.256 837.077 100.619 836.928C100.982 836.779 101.27 836.619 101.483 836.448C101.6 836.523 101.691 836.613 101.755 836.72C101.83 836.816 101.867 836.928 101.867 837.056C101.867 837.259 101.75 837.451 101.515 837.632C101.291 837.803 100.987 837.941 100.603 838.048C100.23 838.155 99.8084 838.208 99.3391 838.208C98.5177 838.208 97.8031 838.059 97.1951 837.76C96.5977 837.461 96.1337 837.019 95.8031 836.432C95.4831 835.835 95.3231 835.109 95.3231 834.256C95.3231 833.648 95.4084 833.109 95.5791 832.64C95.7604 832.16 96.0057 831.755 96.3151 831.424C96.6351 831.093 97.0137 830.843 97.4511 830.672C97.8884 830.491 98.3631 830.4 98.8751 830.4C99.5257 830.4 100.096 830.539 100.587 830.816C101.088 831.093 101.478 831.483 101.755 831.984C102.043 832.475 102.187 833.04 102.187 833.68C102.187 833.915 102.134 834.085 102.027 834.192C101.92 834.288 101.771 834.347 101.579 834.368L96.2031 835.12Z" fill="#D45769"/>
<path d="M224.471 800.85L223.131 800.29V809.32L225.561 803.46C225.971 802.44 225.501 801.27 224.471 800.85ZM204.971 804.55L209.931 816.5C210.077 816.864 210.326 817.177 210.647 817.4C210.969 817.624 211.349 817.749 211.741 817.76C212.001 817.76 212.271 817.71 212.531 817.6L219.901 814.55C220.651 814.24 221.111 813.5 221.131 812.76C221.141 812.5 221.091 812.21 221.001 811.95L216.001 800C215.859 799.634 215.611 799.319 215.288 799.096C214.965 798.873 214.583 798.753 214.191 798.75C213.931 798.75 213.671 798.81 213.421 798.9L206.061 801.95C205.571 802.15 205.182 802.537 204.977 803.024C204.773 803.512 204.771 804.061 204.971 804.55ZM221.121 800.75C221.121 800.22 220.91 799.711 220.535 799.336C220.16 798.961 219.651 798.75 219.121 798.75H217.671L221.121 807.09" fill="#C4C4C4"/>
<path d="M178.151 836.62C178.866 836.62 179.404 836.46 179.767 836.14C180.14 835.809 180.327 835.388 180.327 834.876C180.327 834.439 180.183 834.081 179.895 833.804C179.618 833.516 179.175 833.281 178.567 833.1L177.175 832.684C176.727 832.545 176.338 832.369 176.007 832.156C175.676 831.932 175.42 831.66 175.239 831.34C175.068 831.009 174.983 830.625 174.983 830.188C174.983 829.367 175.282 828.727 175.879 828.268C176.476 827.799 177.271 827.564 178.263 827.564C178.839 827.564 179.351 827.628 179.799 827.756C180.258 827.873 180.615 828.028 180.871 828.22C181.138 828.412 181.271 828.615 181.271 828.828C181.271 828.967 181.234 829.095 181.159 829.212C181.084 829.319 180.988 829.404 180.871 829.468C180.604 829.255 180.242 829.068 179.783 828.908C179.335 828.748 178.844 828.668 178.311 828.668C177.692 828.668 177.202 828.807 176.839 829.084C176.476 829.351 176.295 829.719 176.295 830.188C176.295 830.561 176.423 830.865 176.679 831.1C176.946 831.335 177.372 831.537 177.959 831.708L178.935 831.996C179.778 832.231 180.439 832.572 180.919 833.02C181.41 833.468 181.655 834.087 181.655 834.876C181.655 835.719 181.346 836.401 180.727 836.924C180.119 837.447 179.26 837.708 178.151 837.708C177.5 837.708 176.93 837.639 176.439 837.5C175.959 837.351 175.58 837.169 175.303 836.956C175.036 836.732 174.903 836.513 174.903 836.3C174.903 836.119 174.956 835.969 175.063 835.852C175.18 835.724 175.314 835.633 175.463 835.58C175.708 835.815 176.055 836.049 176.503 836.284C176.951 836.508 177.5 836.62 178.151 836.62ZM186.41 836.668C186.858 836.668 187.226 836.625 187.514 836.54C187.813 836.444 188.026 836.353 188.154 836.268V833.948L186.17 834.156C185.616 834.199 185.205 834.321 184.938 834.524C184.672 834.727 184.538 835.02 184.538 835.404C184.538 835.799 184.693 836.108 185.002 836.332C185.322 836.556 185.792 836.668 186.41 836.668ZM186.394 829.9C187.322 829.9 188.058 830.108 188.602 830.524C189.146 830.94 189.418 831.596 189.418 832.492V836.284C189.418 836.519 189.37 836.7 189.274 836.828C189.189 836.945 189.056 837.057 188.874 837.164C188.618 837.303 188.277 837.431 187.85 837.548C187.424 837.665 186.944 837.724 186.41 837.724C185.408 837.724 184.629 837.527 184.074 837.132C183.53 836.737 183.258 836.167 183.258 835.42C183.258 834.727 183.488 834.199 183.946 833.836C184.416 833.463 185.061 833.239 185.882 833.164L188.154 832.94V832.492C188.154 831.959 187.994 831.569 187.674 831.324C187.354 831.079 186.922 830.956 186.378 830.956C185.941 830.956 185.52 831.02 185.114 831.148C184.72 831.276 184.368 831.42 184.058 831.58C183.973 831.505 183.893 831.42 183.818 831.324C183.754 831.217 183.722 831.111 183.722 831.004C183.722 830.727 183.877 830.513 184.186 830.364C184.474 830.215 184.805 830.103 185.178 830.028C185.562 829.943 185.968 829.9 186.394 829.9ZM197.103 829.964C197.285 829.964 197.429 830.012 197.535 830.108C197.653 830.204 197.711 830.343 197.711 830.524C197.711 830.663 197.653 830.924 197.535 831.308C197.418 831.692 197.263 832.151 197.071 832.684C196.879 833.217 196.666 833.777 196.431 834.364C196.207 834.94 195.973 835.5 195.727 836.044C195.493 836.577 195.274 837.041 195.071 837.436C195.018 837.479 194.922 837.516 194.783 837.548C194.655 837.58 194.517 837.596 194.367 837.596C194.186 837.596 194.026 837.564 193.887 837.5C193.749 837.447 193.653 837.367 193.599 837.26C193.482 837.047 193.327 836.737 193.135 836.332C192.954 835.916 192.757 835.447 192.543 834.924C192.33 834.401 192.111 833.863 191.887 833.308C191.674 832.743 191.477 832.204 191.295 831.692C191.114 831.169 190.965 830.711 190.847 830.316C190.922 830.209 191.023 830.124 191.151 830.06C191.279 829.996 191.407 829.964 191.535 829.964C191.727 829.964 191.877 830.012 191.983 830.108C192.09 830.204 192.181 830.364 192.255 830.588L193.247 833.452C193.333 833.697 193.445 834.001 193.583 834.364C193.722 834.727 193.861 835.089 193.999 835.452C194.138 835.815 194.25 836.119 194.335 836.364H194.399C194.826 835.287 195.226 834.225 195.599 833.18C195.973 832.124 196.293 831.095 196.559 830.092C196.698 830.007 196.879 829.964 197.103 829.964ZM199.828 834.62L199.764 833.612L204.596 832.956C204.553 832.369 204.351 831.889 203.988 831.516C203.625 831.132 203.124 830.94 202.484 830.94C201.823 830.94 201.273 831.18 200.836 831.66C200.409 832.129 200.196 832.807 200.196 833.692V834.044C200.271 834.897 200.548 835.548 201.028 835.996C201.519 836.433 202.185 836.652 203.028 836.652C203.476 836.652 203.881 836.577 204.244 836.428C204.607 836.279 204.895 836.119 205.108 835.948C205.225 836.023 205.316 836.113 205.38 836.22C205.455 836.316 205.492 836.428 205.492 836.556C205.492 836.759 205.375 836.951 205.14 837.132C204.916 837.303 204.612 837.441 204.228 837.548C203.855 837.655 203.433 837.708 202.964 837.708C202.143 837.708 201.428 837.559 200.82 837.26C200.223 836.961 199.759 836.519 199.428 835.932C199.108 835.335 198.948 834.609 198.948 833.756C198.948 833.148 199.033 832.609 199.204 832.14C199.385 831.66 199.631 831.255 199.94 830.924C200.26 830.593 200.639 830.343 201.076 830.172C201.513 829.991 201.988 829.9 202.5 829.9C203.151 829.9 203.721 830.039 204.212 830.316C204.713 830.593 205.103 830.983 205.38 831.484C205.668 831.975 205.812 832.54 205.812 833.18C205.812 833.415 205.759 833.585 205.652 833.692C205.545 833.788 205.396 833.847 205.204 833.868L199.828 834.62ZM212.701 836.236V830.86L213.981 830.844V836.284C213.981 836.487 213.933 836.652 213.837 836.78C213.752 836.897 213.613 837.015 213.421 837.132C213.208 837.271 212.92 837.399 212.557 837.516C212.194 837.644 211.757 837.708 211.245 837.708C210.477 837.708 209.789 837.575 209.181 837.308C208.584 837.041 208.109 836.625 207.757 836.06C207.416 835.484 207.245 834.743 207.245 833.836C207.245 832.908 207.405 832.156 207.725 831.58C208.056 831.004 208.498 830.583 209.053 830.316C209.608 830.039 210.216 829.9 210.877 829.9C211.293 829.9 211.688 829.959 212.061 830.076C212.434 830.193 212.728 830.337 212.941 830.508V831.692C212.738 831.489 212.472 831.319 212.141 831.18C211.821 831.031 211.442 830.956 211.005 830.956C210.568 830.956 210.162 831.052 209.789 831.244C209.416 831.425 209.117 831.729 208.893 832.156C208.669 832.583 208.557 833.153 208.557 833.868C208.557 834.839 208.792 835.548 209.261 835.996C209.73 836.433 210.354 836.652 211.133 836.652C211.506 836.652 211.81 836.615 212.045 836.54C212.29 836.455 212.509 836.353 212.701 836.236ZM213.981 831.164L212.701 831.18V827.132C212.754 827.111 212.834 827.089 212.941 827.068C213.058 827.036 213.176 827.02 213.293 827.02C213.528 827.02 213.698 827.068 213.805 827.164C213.922 827.249 213.981 827.393 213.981 827.596V831.164ZM223.038 830.972C222.313 830.972 221.71 831.217 221.23 831.708C220.75 832.199 220.51 832.903 220.51 833.82C220.51 834.727 220.739 835.425 221.198 835.916C221.667 836.407 222.281 836.652 223.038 836.652C223.486 836.652 223.859 836.593 224.158 836.476C224.457 836.348 224.723 836.204 224.958 836.044C225.075 836.108 225.171 836.188 225.246 836.284C225.321 836.38 225.358 836.497 225.358 836.636C225.358 836.935 225.134 837.191 224.686 837.404C224.249 837.607 223.699 837.708 223.038 837.708C222.302 837.708 221.641 837.569 221.054 837.292C220.478 837.004 220.025 836.572 219.694 835.996C219.363 835.42 219.198 834.695 219.198 833.82C219.198 832.956 219.369 832.236 219.71 831.66C220.051 831.073 220.51 830.636 221.086 830.348C221.673 830.049 222.313 829.9 223.006 829.9C223.667 829.9 224.211 830.012 224.638 830.236C225.075 830.46 225.294 830.716 225.294 831.004C225.294 831.132 225.257 831.244 225.182 831.34C225.107 831.436 225.011 831.511 224.894 831.564C224.659 831.404 224.398 831.265 224.11 831.148C223.833 831.031 223.475 830.972 223.038 830.972ZM229.957 836.668C230.405 836.668 230.773 836.625 231.061 836.54C231.36 836.444 231.573 836.353 231.701 836.268V833.948L229.717 834.156C229.163 834.199 228.752 834.321 228.485 834.524C228.219 834.727 228.085 835.02 228.085 835.404C228.085 835.799 228.24 836.108 228.549 836.332C228.869 836.556 229.339 836.668 229.957 836.668ZM229.941 829.9C230.869 829.9 231.605 830.108 232.149 830.524C232.693 830.94 232.965 831.596 232.965 832.492V836.284C232.965 836.519 232.917 836.7 232.821 836.828C232.736 836.945 232.603 837.057 232.421 837.164C232.165 837.303 231.824 837.431 231.397 837.548C230.971 837.665 230.491 837.724 229.957 837.724C228.955 837.724 228.176 837.527 227.621 837.132C227.077 836.737 226.805 836.167 226.805 835.42C226.805 834.727 227.035 834.199 227.493 833.836C227.963 833.463 228.608 833.239 229.429 833.164L231.701 832.94V832.492C231.701 831.959 231.541 831.569 231.221 831.324C230.901 831.079 230.469 830.956 229.925 830.956C229.488 830.956 229.067 831.02 228.661 831.148C228.267 831.276 227.915 831.42 227.605 831.58C227.52 831.505 227.44 831.42 227.365 831.324C227.301 831.217 227.269 831.111 227.269 831.004C227.269 830.727 227.424 830.513 227.733 830.364C228.021 830.215 228.352 830.103 228.725 830.028C229.109 829.943 229.515 829.9 229.941 829.9ZM236.582 831.484V834.012H235.302V831.58C235.302 831.335 235.344 831.143 235.43 831.004C235.526 830.855 235.68 830.711 235.894 830.572C236.171 830.391 236.55 830.236 237.03 830.108C237.51 829.969 238.043 829.9 238.63 829.9C239.483 829.9 239.91 830.113 239.91 830.54C239.91 830.647 239.894 830.748 239.862 830.844C239.83 830.929 239.787 831.004 239.734 831.068C239.627 831.047 239.488 831.025 239.318 831.004C239.147 830.983 238.976 830.972 238.806 830.972C238.315 830.972 237.883 831.025 237.51 831.132C237.136 831.228 236.827 831.345 236.582 831.484ZM235.302 833.276L236.582 833.468V837.468C236.528 837.489 236.448 837.511 236.342 837.532C236.235 837.564 236.118 837.58 235.99 837.58C235.766 837.58 235.595 837.537 235.478 837.452C235.36 837.356 235.302 837.207 235.302 837.004V833.276ZM246.295 836.236V830.86L247.575 830.844V836.284C247.575 836.487 247.527 836.652 247.431 836.78C247.345 836.897 247.207 837.015 247.015 837.132C246.801 837.271 246.513 837.399 246.151 837.516C245.788 837.644 245.351 837.708 244.839 837.708C244.071 837.708 243.383 837.575 242.775 837.308C242.177 837.041 241.703 836.625 241.351 836.06C241.009 835.484 240.839 834.743 240.839 833.836C240.839 832.908 240.999 832.156 241.319 831.58C241.649 831.004 242.092 830.583 242.647 830.316C243.201 830.039 243.809 829.9 244.471 829.9C244.887 829.9 245.281 829.959 245.655 830.076C246.028 830.193 246.321 830.337 246.535 830.508V831.692C246.332 831.489 246.065 831.319 245.735 831.18C245.415 831.031 245.036 830.956 244.599 830.956C244.161 830.956 243.756 831.052 243.383 831.244C243.009 831.425 242.711 831.729 242.487 832.156C242.263 832.583 242.151 833.153 242.151 833.868C242.151 834.839 242.385 835.548 242.855 835.996C243.324 836.433 243.948 836.652 244.727 836.652C245.1 836.652 245.404 836.615 245.639 836.54C245.884 836.455 246.103 836.353 246.295 836.236ZM247.575 831.164L246.295 831.18V827.132C246.348 827.111 246.428 827.089 246.535 827.068C246.652 827.036 246.769 827.02 246.887 827.02C247.121 827.02 247.292 827.068 247.399 827.164C247.516 827.249 247.575 827.393 247.575 827.596V831.164ZM255.221 835.532C255.221 836.215 254.97 836.748 254.469 837.132C253.967 837.516 253.242 837.708 252.293 837.708C251.482 837.708 250.821 837.585 250.309 837.34C249.797 837.084 249.541 836.807 249.541 836.508C249.541 836.38 249.573 836.257 249.637 836.14C249.711 836.012 249.818 835.911 249.957 835.836C250.245 836.039 250.581 836.225 250.965 836.396C251.349 836.567 251.786 836.652 252.277 836.652C253.386 836.652 253.941 836.279 253.941 835.532C253.941 835.223 253.845 834.972 253.653 834.78C253.471 834.577 253.199 834.433 252.837 834.348L251.509 833.996C250.858 833.836 250.383 833.591 250.085 833.26C249.786 832.919 249.637 832.497 249.637 831.996C249.637 831.431 249.866 830.94 250.325 830.524C250.783 830.108 251.482 829.9 252.421 829.9C252.922 829.9 253.359 829.953 253.733 830.06C254.106 830.156 254.394 830.289 254.597 830.46C254.81 830.62 254.917 830.796 254.917 830.988C254.917 831.127 254.879 831.249 254.805 831.356C254.741 831.463 254.65 831.543 254.533 831.596C254.405 831.511 254.239 831.42 254.037 831.324C253.845 831.217 253.615 831.132 253.349 831.068C253.082 830.993 252.789 830.956 252.469 830.956C251.999 830.956 251.621 831.047 251.333 831.228C251.045 831.409 250.901 831.665 250.901 831.996C250.901 832.231 250.981 832.439 251.141 832.62C251.311 832.791 251.578 832.919 251.941 833.004L253.045 833.276C253.77 833.447 254.314 833.719 254.677 834.092C255.039 834.455 255.221 834.935 255.221 835.532Z" fill="#C4C4C4"/>
<path d="M350.5 798.5C344.977 798.5 340.5 802.977 340.5 808.5C340.5 814.023 344.977 818.5 350.5 818.5C356.023 818.5 360.5 814.023 360.5 808.5C360.5 802.977 356.023 798.5 350.5 798.5Z" stroke="#C4C4C4" stroke-width="1.5" stroke-linecap="round" stroke-linejoin="round"/>
<path d="M342.771 814.846C342.771 814.846 345 812 350.5 812C356 812 358.23 814.846 358.23 814.846M350.5 808.5C351.296 808.5 352.059 808.184 352.622 807.621C353.184 807.059 353.5 806.296 353.5 805.5C353.5 804.704 353.184 803.941 352.622 803.379C352.059 802.816 351.296 802.5 350.5 802.5C349.705 802.5 348.942 802.816 348.379 803.379C347.817 803.941 347.5 804.704 347.5 805.5C347.5 806.296 347.817 807.059 348.379 807.621C348.942 808.184 349.705 808.5 350.5 808.5V808.5Z" stroke="#C4C4C4" stroke-width="1.5" stroke-linecap="round" stroke-linejoin="round"/>
<path d="M330.212 832.94H331.764C332.618 832.94 333.279 832.764 333.748 832.412C334.218 832.049 334.452 831.505 334.452 830.78C334.452 830.055 334.223 829.527 333.764 829.196C333.316 828.855 332.671 828.684 331.828 828.684C331.54 828.684 331.252 828.7 330.964 828.732C330.687 828.753 330.436 828.785 330.212 828.828V832.94ZM331.844 834.028H328.916V828.476C328.916 828.305 328.959 828.177 329.044 828.092C329.14 827.996 329.274 827.921 329.444 827.868C329.754 827.772 330.127 827.703 330.564 827.66C331.012 827.617 331.444 827.596 331.86 827.596C333.215 827.596 334.202 827.884 334.82 828.46C335.45 829.025 335.764 829.793 335.764 830.764C335.764 831.425 335.62 832.001 335.332 832.492C335.055 832.983 334.628 833.361 334.052 833.628C333.476 833.895 332.74 834.028 331.844 834.028ZM328.916 833.404H330.228V837.468C330.164 837.489 330.079 837.511 329.972 837.532C329.866 837.564 329.748 837.58 329.62 837.58C329.386 837.58 329.21 837.532 329.092 837.436C328.975 837.34 328.916 837.191 328.916 836.988V833.404ZM338.738 831.484V834.012H337.458V831.58C337.458 831.335 337.5 831.143 337.586 831.004C337.682 830.855 337.836 830.711 338.05 830.572C338.327 830.391 338.706 830.236 339.186 830.108C339.666 829.969 340.199 829.9 340.786 829.9C341.639 829.9 342.066 830.113 342.066 830.54C342.066 830.647 342.05 830.748 342.018 830.844C341.986 830.929 341.943 831.004 341.89 831.068C341.783 831.047 341.644 831.025 341.474 831.004C341.303 830.983 341.132 830.972 340.962 830.972C340.471 830.972 340.039 831.025 339.666 831.132C339.292 831.228 338.983 831.345 338.738 831.484ZM337.458 833.276L338.738 833.468V837.468C338.684 837.489 338.604 837.511 338.498 837.532C338.391 837.564 338.274 837.58 338.146 837.58C337.922 837.58 337.751 837.537 337.634 837.452C337.516 837.356 337.458 837.207 337.458 837.004V833.276ZM350.275 833.804C350.275 834.593 350.126 835.281 349.827 835.868C349.528 836.455 349.107 836.908 348.563 837.228C348.019 837.548 347.379 837.708 346.643 837.708C345.907 837.708 345.262 837.548 344.707 837.228C344.163 836.908 343.742 836.455 343.443 835.868C343.144 835.281 342.995 834.593 342.995 833.804C342.995 833.004 343.144 832.316 343.443 831.74C343.752 831.153 344.179 830.7 344.723 830.38C345.278 830.06 345.918 829.9 346.643 829.9C347.368 829.9 348.003 830.06 348.547 830.38C349.091 830.7 349.512 831.153 349.811 831.74C350.12 832.316 350.275 833.004 350.275 833.804ZM346.643 830.956C345.928 830.956 345.358 831.212 344.931 831.724C344.515 832.225 344.307 832.919 344.307 833.804C344.307 834.7 344.51 835.399 344.915 835.9C345.331 836.401 345.907 836.652 346.643 836.652C347.368 836.652 347.934 836.401 348.339 835.9C348.755 835.388 348.963 834.689 348.963 833.804C348.963 832.919 348.755 832.225 348.339 831.724C347.934 831.212 347.368 830.956 346.643 830.956ZM353.327 831.564V830.524H356.719C356.751 830.567 356.783 830.636 356.815 830.732C356.847 830.817 356.863 830.919 356.863 831.036C356.863 831.207 356.82 831.34 356.735 831.436C356.649 831.521 356.527 831.564 356.367 831.564H353.327ZM353.551 829.516V831.388H352.287V829.452C352.287 828.823 352.399 828.316 352.623 827.932C352.857 827.537 353.188 827.249 353.615 827.068C354.052 826.876 354.569 826.78 355.167 826.78C355.775 826.78 356.249 826.86 356.591 827.02C356.943 827.18 357.119 827.377 357.119 827.612C357.119 827.729 357.092 827.836 357.039 827.932C356.996 828.028 356.932 828.119 356.847 828.204C356.655 828.097 356.415 828.012 356.127 827.948C355.839 827.873 355.561 827.836 355.295 827.836C354.644 827.836 354.191 827.969 353.935 828.236C353.679 828.503 353.551 828.929 353.551 829.516ZM352.287 830.684H353.567V837.468C353.513 837.489 353.433 837.511 353.327 837.532C353.22 837.564 353.103 837.58 352.975 837.58C352.751 837.58 352.58 837.537 352.463 837.452C352.345 837.356 352.287 837.207 352.287 837.004V830.684ZM358.479 827.772C358.479 827.548 358.559 827.361 358.719 827.212C358.879 827.052 359.076 826.972 359.311 826.972C359.556 826.972 359.753 827.052 359.903 827.212C360.052 827.361 360.127 827.548 360.127 827.772C360.127 827.996 360.052 828.188 359.903 828.348C359.753 828.497 359.556 828.572 359.311 828.572C359.076 828.572 358.879 828.497 358.719 828.348C358.559 828.188 358.479 827.996 358.479 827.772ZM358.671 833.276H359.951V837.468C359.897 837.489 359.817 837.511 359.711 837.532C359.604 837.564 359.487 837.58 359.359 837.58C359.135 837.58 358.964 837.537 358.847 837.452C358.729 837.356 358.671 837.207 358.671 837.004V833.276ZM359.951 833.9H358.671V830.14C358.724 830.119 358.804 830.097 358.911 830.076C359.028 830.044 359.151 830.028 359.279 830.028C359.503 830.028 359.668 830.076 359.775 830.172C359.892 830.257 359.951 830.407 359.951 830.62V833.9ZM362.601 833.276L363.881 833.468V837.468C363.828 837.489 363.748 837.511 363.641 837.532C363.535 837.564 363.417 837.58 363.289 837.58C363.065 837.58 362.895 837.537 362.777 837.452C362.66 837.356 362.601 837.207 362.601 837.004V833.276ZM363.881 834.076L362.601 833.9V827.132C362.655 827.111 362.735 827.089 362.841 827.068C362.959 827.036 363.076 827.02 363.193 827.02C363.428 827.02 363.599 827.068 363.705 827.164C363.823 827.249 363.881 827.393 363.881 827.596V834.076ZM366.875 834.62L366.811 833.612L371.643 832.956C371.6 832.369 371.398 831.889 371.035 831.516C370.672 831.132 370.171 830.94 369.531 830.94C368.87 830.94 368.32 831.18 367.883 831.66C367.456 832.129 367.243 832.807 367.243 833.692V834.044C367.318 834.897 367.595 835.548 368.075 835.996C368.566 836.433 369.232 836.652 370.075 836.652C370.523 836.652 370.928 836.577 371.291 836.428C371.654 836.279 371.942 836.119 372.155 835.948C372.272 836.023 372.363 836.113 372.427 836.22C372.502 836.316 372.539 836.428 372.539 836.556C372.539 836.759 372.422 836.951 372.187 837.132C371.963 837.303 371.659 837.441 371.275 837.548C370.902 837.655 370.48 837.708 370.011 837.708C369.19 837.708 368.475 837.559 367.867 837.26C367.27 836.961 366.806 836.519 366.475 835.932C366.155 835.335 365.995 834.609 365.995 833.756C365.995 833.148 366.08 832.609 366.251 832.14C366.432 831.66 366.678 831.255 366.987 830.924C367.307 830.593 367.686 830.343 368.123 830.172C368.56 829.991 369.035 829.9 369.547 829.9C370.198 829.9 370.768 830.039 371.259 830.316C371.76 830.593 372.15 830.983 372.427 831.484C372.715 831.975 372.859 832.54 372.859 833.18C372.859 833.415 372.806 833.585 372.699 833.692C372.592 833.788 372.443 833.847 372.251 833.868L366.875 834.62Z" fill="#C4C4C4"/>
</g>
<path d="M122.011 213.236V220.724C122.011 221.396 121.879 221.912 121.615 222.272C121.375 222.608 120.967 222.932 120.391 223.244C119.743 223.604 118.807 223.916 117.583 224.18C116.359 224.468 115.135 224.612 113.911 224.612C111.607 224.612 109.531 224.216 107.683 223.424C105.859 222.608 104.407 221.36 103.327 219.68C102.271 217.976 101.743 215.792 101.743 213.128C101.743 210.584 102.283 208.46 103.363 206.756C104.443 205.028 105.895 203.732 107.719 202.868C109.567 201.98 111.607 201.536 113.839 201.536C115.327 201.536 116.611 201.692 117.691 202.004C118.795 202.316 119.635 202.748 120.211 203.3C120.811 203.852 121.111 204.488 121.111 205.208C121.111 205.736 120.967 206.216 120.679 206.648C120.415 207.056 120.091 207.368 119.707 207.584C119.107 207.2 118.351 206.84 117.439 206.504C116.527 206.168 115.459 206 114.235 206C112.915 206 111.727 206.288 110.671 206.864C109.639 207.416 108.835 208.232 108.259 209.312C107.683 210.368 107.395 211.628 107.395 213.092C107.395 214.676 107.671 215.996 108.223 217.052C108.799 218.108 109.579 218.9 110.563 219.428C111.571 219.932 112.711 220.184 113.983 220.184C114.583 220.184 115.123 220.124 115.603 220.004C116.107 219.884 116.491 219.764 116.755 219.644V215.432H112.543C112.399 215.192 112.267 214.892 112.147 214.532C112.027 214.148 111.967 213.74 111.967 213.308C111.967 212.564 112.135 212.024 112.471 211.688C112.831 211.328 113.299 211.148 113.875 211.148H119.923C120.571 211.148 121.075 211.328 121.435 211.688C121.819 212.048 122.011 212.564 122.011 213.236ZM143.581 215.36C143.581 217.232 143.197 218.864 142.429 220.256C141.685 221.624 140.629 222.68 139.261 223.424C137.893 224.168 136.285 224.54 134.437 224.54C132.613 224.54 131.005 224.18 129.613 223.46C128.245 222.716 127.177 221.66 126.409 220.292C125.665 218.9 125.293 217.256 125.293 215.36C125.293 213.464 125.677 211.844 126.445 210.5C127.213 209.132 128.281 208.076 129.649 207.332C131.041 206.564 132.637 206.18 134.437 206.18C136.261 206.18 137.857 206.564 139.225 207.332C140.593 208.076 141.661 209.144 142.429 210.536C143.197 211.904 143.581 213.512 143.581 215.36ZM134.437 210.392C133.309 210.392 132.409 210.824 131.737 211.688C131.089 212.552 130.765 213.776 130.765 215.36C130.765 216.968 131.089 218.204 131.737 219.068C132.385 219.908 133.285 220.328 134.437 220.328C135.589 220.328 136.489 219.896 137.137 219.032C137.785 218.168 138.109 216.944 138.109 215.36C138.109 213.8 137.785 212.588 137.137 211.724C136.489 210.836 135.589 210.392 134.437 210.392ZM164.394 215.36C164.394 217.232 164.01 218.864 163.242 220.256C162.498 221.624 161.442 222.68 160.074 223.424C158.706 224.168 157.098 224.54 155.25 224.54C153.426 224.54 151.818 224.18 150.426 223.46C149.058 222.716 147.99 221.66 147.222 220.292C146.478 218.9 146.106 217.256 146.106 215.36C146.106 213.464 146.49 211.844 147.258 210.5C148.026 209.132 149.094 208.076 150.462 207.332C151.854 206.564 153.45 206.18 155.25 206.18C157.074 206.18 158.67 206.564 160.038 207.332C161.406 208.076 162.474 209.144 163.242 210.536C164.01 211.904 164.394 213.512 164.394 215.36ZM155.25 210.392C154.122 210.392 153.222 210.824 152.55 211.688C151.902 212.552 151.578 213.776 151.578 215.36C151.578 216.968 151.902 218.204 152.55 219.068C153.198 219.908 154.098 220.328 155.25 220.328C156.402 220.328 157.302 219.896 157.95 219.032C158.598 218.168 158.922 216.944 158.922 215.36C158.922 213.8 158.598 212.588 157.95 211.724C157.302 210.836 156.402 210.392 155.25 210.392ZM178.942 219.716V208.88H184.27V220.4C184.27 220.976 184.15 221.468 183.91 221.876C183.67 222.26 183.286 222.608 182.758 222.92C182.11 223.352 181.27 223.724 180.238 224.036C179.206 224.372 178.018 224.54 176.674 224.54C174.658 224.54 172.918 224.204 171.454 223.532C170.014 222.86 168.898 221.852 168.106 220.508C167.314 219.14 166.918 217.448 166.918 215.432C166.918 213.32 167.314 211.592 168.106 210.248C168.922 208.88 170.014 207.86 171.382 207.188C172.75 206.516 174.262 206.18 175.918 206.18C176.782 206.18 177.55 206.276 178.222 206.468C178.894 206.66 179.446 206.888 179.878 207.152V211.544C179.542 211.256 179.098 210.992 178.546 210.752C177.994 210.512 177.358 210.392 176.638 210.392C175.798 210.392 175.054 210.572 174.406 210.932C173.758 211.292 173.254 211.844 172.894 212.588C172.534 213.332 172.354 214.28 172.354 215.432C172.354 217.112 172.726 218.348 173.47 219.14C174.238 219.932 175.27 220.328 176.566 220.328C177.094 220.328 177.562 220.268 177.97 220.148C178.378 220.004 178.702 219.86 178.942 219.716ZM184.27 209.924L178.942 209.96V200.564C179.158 200.492 179.482 200.42 179.914 200.348C180.346 200.276 180.814 200.24 181.318 200.24C182.374 200.24 183.13 200.42 183.586 200.78C184.042 201.14 184.27 201.8 184.27 202.76V209.924ZM210.635 218.564C210.371 218.78 210.011 218.96 209.555 219.104C209.123 219.248 208.619 219.32 208.043 219.32C207.299 219.32 206.675 219.224 206.171 219.032C205.667 218.84 205.343 218.516 205.199 218.06C204.383 215.78 203.687 213.884 203.111 212.372C202.559 210.86 202.127 209.552 201.815 208.448H201.635C201.563 209.96 201.503 211.34 201.455 212.588C201.407 213.836 201.371 215.06 201.347 216.26C201.323 217.436 201.287 218.636 201.239 219.86C201.191 221.084 201.119 222.428 201.023 223.892C200.759 223.964 200.399 224.048 199.943 224.144C199.511 224.24 199.079 224.288 198.647 224.288C197.735 224.288 197.015 224.132 196.487 223.82C195.983 223.508 195.731 222.968 195.731 222.2C195.731 221.672 195.755 220.892 195.803 219.86C195.875 218.804 195.947 217.604 196.019 216.26C196.115 214.892 196.199 213.452 196.271 211.94C196.367 210.428 196.463 208.94 196.559 207.476C196.679 205.988 196.787 204.62 196.883 203.372C197.075 203.084 197.459 202.796 198.035 202.508C198.611 202.196 199.403 202.04 200.411 202.04C201.491 202.04 202.355 202.22 203.003 202.58C203.675 202.916 204.155 203.48 204.443 204.272C204.803 205.136 205.187 206.144 205.595 207.296C206.003 208.424 206.399 209.576 206.783 210.752C207.191 211.904 207.563 212.948 207.899 213.884H208.079C208.751 211.772 209.435 209.708 210.131 207.692C210.851 205.676 211.463 203.996 211.967 202.652C212.303 202.46 212.723 202.316 213.227 202.22C213.755 202.1 214.307 202.04 214.883 202.04C215.915 202.04 216.743 202.196 217.367 202.508C218.015 202.796 218.399 203.24 218.519 203.84C218.615 204.296 218.711 205.016 218.807 206C218.927 206.984 219.047 208.124 219.167 209.42C219.287 210.692 219.407 212.036 219.527 213.452C219.647 214.844 219.755 216.212 219.851 217.556C219.971 218.876 220.067 220.064 220.139 221.12C220.211 222.176 220.259 223.016 220.283 223.64C219.923 223.856 219.539 224.012 219.131 224.108C218.747 224.228 218.255 224.288 217.655 224.288C216.887 224.288 216.227 224.144 215.675 223.856C215.147 223.568 214.859 223.016 214.811 222.2C214.691 220.328 214.595 218.552 214.523 216.872C214.451 215.168 214.391 213.62 214.343 212.228C214.319 210.812 214.283 209.6 214.235 208.592H214.055C213.743 209.624 213.299 210.932 212.723 212.516C212.171 214.076 211.475 216.092 210.635 218.564ZM241.597 215.36C241.597 217.232 241.213 218.864 240.445 220.256C239.701 221.624 238.645 222.68 237.277 223.424C235.909 224.168 234.301 224.54 232.453 224.54C230.629 224.54 229.021 224.18 227.629 223.46C226.261 222.716 225.193 221.66 224.425 220.292C223.681 218.9 223.309 217.256 223.309 215.36C223.309 213.464 223.693 211.844 224.461 210.5C225.229 209.132 226.297 208.076 227.665 207.332C229.057 206.564 230.653 206.18 232.453 206.18C234.277 206.18 235.873 206.564 237.241 207.332C238.609 208.076 239.677 209.144 240.445 210.536C241.213 211.904 241.597 213.512 241.597 215.36ZM232.453 210.392C231.325 210.392 230.425 210.824 229.753 211.688C229.105 212.552 228.781 213.776 228.781 215.36C228.781 216.968 229.105 218.204 229.753 219.068C230.401 219.908 231.301 220.328 232.453 220.328C233.605 220.328 234.505 219.896 235.153 219.032C235.801 218.168 236.125 216.944 236.125 215.36C236.125 213.8 235.801 212.588 235.153 211.724C234.505 210.836 233.605 210.392 232.453 210.392ZM250.277 211.364V215.864H244.949V210.716C244.949 210.044 245.105 209.48 245.417 209.024C245.753 208.544 246.209 208.124 246.785 207.764C247.577 207.284 248.525 206.912 249.629 206.648C250.757 206.36 251.933 206.216 253.157 206.216C255.605 206.216 256.829 207.032 256.829 208.664C256.829 209.048 256.769 209.408 256.649 209.744C256.553 210.08 256.433 210.368 256.289 210.608C256.049 210.56 255.749 210.524 255.389 210.5C255.053 210.452 254.681 210.428 254.273 210.428C253.553 210.428 252.833 210.512 252.113 210.68C251.393 210.848 250.781 211.076 250.277 211.364ZM244.949 214.496L250.277 214.604V223.964C250.037 224.036 249.701 224.096 249.269 224.144C248.837 224.216 248.369 224.252 247.865 224.252C246.857 224.252 246.113 224.072 245.633 223.712C245.177 223.352 244.949 222.704 244.949 221.768V214.496ZM275.712 212.804V216.188H270.348V212.984C270.348 212.096 270.084 211.448 269.556 211.04C269.052 210.608 268.38 210.392 267.54 210.392C266.94 210.392 266.388 210.476 265.884 210.644C265.38 210.788 264.924 210.968 264.516 211.184V216.188H259.188V210.572C259.188 209.972 259.308 209.48 259.548 209.096C259.812 208.688 260.184 208.328 260.664 208.016C261.432 207.488 262.416 207.056 263.616 206.72C264.816 206.36 266.136 206.18 267.576 206.18C270.168 206.18 272.172 206.756 273.588 207.908C275.004 209.036 275.712 210.668 275.712 212.804ZM259.188 214.532H264.516V223.964C264.276 224.036 263.94 224.096 263.508 224.144C263.076 224.216 262.608 224.252 262.104 224.252C261.096 224.252 260.352 224.072 259.872 223.712C259.416 223.352 259.188 222.704 259.188 221.768V214.532ZM270.348 214.532H275.712V223.964C275.472 224.036 275.136 224.096 274.704 224.144C274.272 224.216 273.804 224.252 273.3 224.252C272.292 224.252 271.548 224.072 271.068 223.712C270.588 223.352 270.348 222.704 270.348 221.768V214.532ZM279.715 201.752C279.715 200.936 279.991 200.252 280.543 199.7C281.119 199.148 281.839 198.872 282.703 198.872C283.591 198.872 284.311 199.148 284.863 199.7C285.415 200.252 285.691 200.936 285.691 201.752C285.691 202.544 285.415 203.228 284.863 203.804C284.311 204.38 283.591 204.668 282.703 204.668C281.839 204.668 281.119 204.38 280.543 203.804C279.991 203.228 279.715 202.544 279.715 201.752ZM280.039 214.496H285.367V223.964C285.151 224.036 284.827 224.096 284.395 224.144C283.963 224.216 283.495 224.252 282.991 224.252C281.959 224.252 281.203 224.072 280.723 223.712C280.267 223.352 280.039 222.704 280.039 221.768V214.496ZM285.367 217.268H280.039V206.936C280.255 206.864 280.579 206.792 281.011 206.72C281.467 206.648 281.947 206.612 282.451 206.612C283.483 206.612 284.227 206.792 284.683 207.152C285.139 207.488 285.367 208.148 285.367 209.132V217.268ZM306.227 212.804V216.188H300.863V212.984C300.863 212.096 300.599 211.448 300.071 211.04C299.567 210.608 298.895 210.392 298.055 210.392C297.455 210.392 296.903 210.476 296.399 210.644C295.895 210.788 295.439 210.968 295.031 211.184V216.188H289.703V210.572C289.703 209.972 289.823 209.48 290.063 209.096C290.327 208.688 290.699 208.328 291.179 208.016C291.947 207.488 292.931 207.056 294.131 206.72C295.331 206.36 296.651 206.18 298.091 206.18C300.683 206.18 302.687 206.756 304.103 207.908C305.519 209.036 306.227 210.668 306.227 212.804ZM289.703 214.532H295.031V223.964C294.791 224.036 294.455 224.096 294.023 224.144C293.591 224.216 293.123 224.252 292.619 224.252C291.611 224.252 290.867 224.072 290.387 223.712C289.931 223.352 289.703 222.704 289.703 221.768V214.532ZM300.863 214.532H306.227V223.964C305.987 224.036 305.651 224.096 305.219 224.144C304.787 224.216 304.319 224.252 303.815 224.252C302.807 224.252 302.063 224.072 301.583 223.712C301.103 223.352 300.863 222.704 300.863 221.768V214.532ZM317.538 223.316C316.122 223.316 314.802 223.052 313.578 222.524C312.378 221.972 311.406 221.072 310.662 219.824C309.942 218.552 309.582 216.896 309.582 214.856C309.582 212.96 309.954 211.376 310.698 210.104C311.466 208.808 312.534 207.836 313.902 207.188C315.27 206.516 316.854 206.18 318.654 206.18C319.95 206.18 321.15 206.36 322.254 206.72C323.382 207.056 324.258 207.428 324.882 207.836C325.314 208.124 325.662 208.472 325.926 208.88C326.19 209.264 326.322 209.756 326.322 210.356V221.66H321.174V210.968C320.91 210.824 320.586 210.692 320.202 210.572C319.842 210.452 319.386 210.392 318.834 210.392C317.682 210.392 316.734 210.752 315.99 211.472C315.27 212.192 314.91 213.32 314.91 214.856C314.91 216.536 315.246 217.7 315.918 218.348C316.614 218.972 317.478 219.284 318.51 219.284C319.302 219.284 319.962 219.152 320.49 218.888C321.018 218.6 321.474 218.288 321.858 217.952L322.002 222.2C321.498 222.512 320.886 222.776 320.166 222.992C319.446 223.208 318.57 223.316 317.538 223.316ZM321.282 223.82V220.472H326.322V223.964C326.322 225.644 325.926 227.012 325.134 228.068C324.366 229.124 323.31 229.904 321.966 230.408C320.646 230.912 319.158 231.164 317.502 231.164C316.254 231.164 315.138 231.056 314.154 230.84C313.194 230.624 312.462 230.348 311.958 230.012C311.142 229.484 310.734 228.74 310.734 227.78C310.734 227.276 310.83 226.82 311.022 226.412C311.238 226.028 311.49 225.74 311.778 225.548C312.426 225.932 313.194 226.256 314.082 226.52C314.97 226.808 315.906 226.952 316.89 226.952C318.234 226.952 319.302 226.7 320.094 226.196C320.886 225.716 321.282 224.924 321.282 223.82ZM336.28 203.696C336.28 204.296 336.268 205.1 336.244 206.108C336.22 207.092 336.172 208.184 336.1 209.384C336.052 210.584 335.98 211.772 335.884 212.948C335.788 214.1 335.668 215.144 335.524 216.08C335.356 216.224 335.056 216.344 334.624 216.44C334.192 216.512 333.82 216.548 333.508 216.548C332.932 216.548 332.428 216.452 331.996 216.26C331.588 216.044 331.336 215.672 331.24 215.144C331.144 214.544 331.048 213.716 330.952 212.66C330.88 211.58 330.808 210.392 330.736 209.096C330.688 207.8 330.652 206.528 330.628 205.28C330.604 204.032 330.592 202.94 330.592 202.004C331.48 201.476 332.488 201.212 333.616 201.212C334.456 201.212 335.104 201.416 335.56 201.824C336.04 202.232 336.28 202.856 336.28 203.696ZM330.412 221.516C330.412 220.652 330.688 219.932 331.24 219.356C331.816 218.78 332.584 218.492 333.544 218.492C334.48 218.492 335.224 218.78 335.776 219.356C336.352 219.932 336.64 220.652 336.64 221.516C336.64 222.404 336.352 223.136 335.776 223.712C335.224 224.288 334.48 224.576 333.544 224.576C332.584 224.576 331.816 224.288 331.24 223.712C330.688 223.136 330.412 222.404 330.412 221.516Z" fill="#D45769"/>
<circle cx="87" cy="119" r="15" fill="#D45769"/>
<path d="M87.6303 113.48H87.4863C87.3263 113.992 87.1343 114.56 86.9103 115.184C86.7023 115.808 86.4863 116.464 86.2623 117.152C86.0383 117.824 85.8223 118.496 85.6143 119.168L85.1823 121.328C85.0863 121.632 84.9903 121.952 84.8943 122.288C84.8143 122.624 84.7263 122.952 84.6303 123.272C84.5343 123.592 84.4463 123.896 84.3663 124.184C84.2863 124.472 84.2063 124.744 84.1263 125C83.9503 125.048 83.7503 125.096 83.5263 125.144C83.3023 125.208 83.0383 125.24 82.7343 125.24C82.0623 125.24 81.5503 125.12 81.1983 124.88C80.8463 124.64 80.6703 124.288 80.6703 123.824C80.6703 123.632 80.6943 123.432 80.7423 123.224C80.8063 123.016 80.8783 122.776 80.9583 122.504C81.1023 121.976 81.3023 121.312 81.5583 120.512C81.8303 119.712 82.1183 118.848 82.4223 117.92C82.7423 116.976 83.0623 116.048 83.3823 115.136C83.7183 114.224 84.0223 113.384 84.2943 112.616C84.5823 111.848 84.8143 111.248 84.9903 110.816C85.2143 110.672 85.5663 110.544 86.0463 110.432C86.5423 110.304 87.0303 110.24 87.5103 110.24C88.1983 110.24 88.8143 110.344 89.3583 110.552C89.9023 110.744 90.2463 111.056 90.3903 111.488C90.6943 112.336 91.0223 113.32 91.3743 114.44C91.7423 115.544 92.1103 116.704 92.4783 117.92C92.8463 119.136 93.1983 120.32 93.5343 121.472C93.8863 122.608 94.1903 123.632 94.4463 124.544C94.2703 124.736 94.0143 124.896 93.6783 125.024C93.3423 125.168 92.9423 125.24 92.4783 125.24C91.8223 125.24 91.3583 125.12 91.0863 124.88C90.8143 124.64 90.6063 124.28 90.4623 123.8L89.6943 121.112L89.2863 119.072C89.0943 118.352 88.8943 117.656 88.6863 116.984C88.4783 116.312 88.2863 115.68 88.1103 115.088C87.9343 114.48 87.7743 113.944 87.6303 113.48ZM83.5743 121.76L84.9903 118.928H90.6063L91.0863 121.76H83.5743Z" fill="white"/>
<path d="M344.016 125.797H366.984M344.016 117.047H366.984M344.016 108.297H366.984" stroke="#D45769" stroke-width="2.5" stroke-linecap="round" stroke-linejoin="round"/>
<path d="M76.124 339.016C76.124 339.224 76.052 339.416 75.908 339.592C75.78 339.752 75.628 339.872 75.452 339.952C75.052 339.664 74.564 339.392 73.988 339.136C73.428 338.88 72.7 338.752 71.804 338.752C70.828 338.752 69.948 338.976 69.164 339.424C68.396 339.872 67.78 340.544 67.316 341.44C66.868 342.32 66.644 343.416 66.644 344.728C66.644 346.696 67.124 348.176 68.084 349.168C69.06 350.16 70.324 350.656 71.876 350.656C72.708 350.656 73.436 350.536 74.06 350.296C74.684 350.056 75.196 349.784 75.596 349.48C75.756 349.544 75.908 349.664 76.052 349.84C76.196 350 76.268 350.192 76.268 350.416C76.268 350.576 76.22 350.736 76.124 350.896C76.044 351.04 75.9 351.184 75.692 351.328C75.324 351.584 74.82 351.808 74.18 352C73.54 352.208 72.724 352.312 71.732 352.312C70.404 352.312 69.196 352.032 68.108 351.472C67.036 350.896 66.188 350.048 65.564 348.928C64.94 347.808 64.628 346.408 64.628 344.728C64.628 343.048 64.948 341.64 65.588 340.504C66.244 339.368 67.1 338.52 68.156 337.96C69.228 337.384 70.396 337.096 71.66 337.096C72.54 337.096 73.316 337.192 73.988 337.384C74.66 337.576 75.18 337.824 75.548 338.128C75.932 338.416 76.124 338.712 76.124 339.016ZM88.8654 347.224H86.9454V345.016C86.9454 344.056 86.6734 343.344 86.1294 342.88C85.6014 342.416 84.9134 342.184 84.0654 342.184C83.4414 342.184 82.8574 342.304 82.3134 342.544C81.7854 342.784 81.3374 343.072 80.9694 343.408L80.6094 341.848C80.9934 341.576 81.4974 341.304 82.1214 341.032C82.7614 340.744 83.4974 340.6 84.3294 340.6C85.6574 340.6 86.7454 340.96 87.5934 341.68C88.4414 342.4 88.8654 343.496 88.8654 344.968V347.224ZM79.2894 345.664H81.2094V351.952C81.1294 351.984 81.0094 352.016 80.8494 352.048C80.6894 352.096 80.5134 352.12 80.3214 352.12C79.9854 352.12 79.7294 352.056 79.5534 351.928C79.3774 351.784 79.2894 351.56 79.2894 351.256V345.664ZM86.9454 345.688L88.8654 345.712V351.952C88.7854 351.984 88.6574 352.016 88.4814 352.048C88.3214 352.096 88.1534 352.12 87.9774 352.12C87.6254 352.12 87.3614 352.056 87.1854 351.928C87.0254 351.784 86.9454 351.56 86.9454 351.256V345.688ZM81.2094 346.6H79.2894V336.448C79.3694 336.416 79.4894 336.384 79.6494 336.352C79.8254 336.304 80.0094 336.28 80.2014 336.28C80.5374 336.28 80.7854 336.352 80.9454 336.496C81.1214 336.624 81.2094 336.84 81.2094 337.144V346.6ZM102.756 346.456C102.756 347.64 102.532 348.672 102.084 349.552C101.636 350.432 101.004 351.112 100.188 351.592C99.3722 352.072 98.4122 352.312 97.3082 352.312C96.2042 352.312 95.2362 352.072 94.4042 351.592C93.5882 351.112 92.9562 350.432 92.5082 349.552C92.0602 348.672 91.8362 347.64 91.8362 346.456C91.8362 345.256 92.0602 344.224 92.5082 343.36C92.9722 342.48 93.6122 341.8 94.4282 341.32C95.2602 340.84 96.2202 340.6 97.3082 340.6C98.3962 340.6 99.3482 340.84 100.164 341.32C100.98 341.8 101.612 342.48 102.06 343.36C102.524 344.224 102.756 345.256 102.756 346.456ZM97.3082 342.184C96.2362 342.184 95.3802 342.568 94.7402 343.336C94.1162 344.088 93.8042 345.128 93.8042 346.456C93.8042 347.8 94.1082 348.848 94.7162 349.6C95.3402 350.352 96.2042 350.728 97.3082 350.728C98.3962 350.728 99.2442 350.352 99.8522 349.6C100.476 348.832 100.788 347.784 100.788 346.456C100.788 345.128 100.476 344.088 99.8522 343.336C99.2442 342.568 98.3962 342.184 97.3082 342.184ZM116.022 346.456C116.022 347.64 115.798 348.672 115.35 349.552C114.902 350.432 114.27 351.112 113.454 351.592C112.638 352.072 111.678 352.312 110.574 352.312C109.47 352.312 108.502 352.072 107.67 351.592C106.854 351.112 106.222 350.432 105.774 349.552C105.326 348.672 105.102 347.64 105.102 346.456C105.102 345.256 105.326 344.224 105.774 343.36C106.238 342.48 106.878 341.8 107.694 341.32C108.526 340.84 109.486 340.6 110.574 340.6C111.662 340.6 112.614 340.84 113.43 341.32C114.246 341.8 114.878 342.48 115.326 343.36C115.79 344.224 116.022 345.256 116.022 346.456ZM110.574 342.184C109.502 342.184 108.646 342.568 108.006 343.336C107.382 344.088 107.07 345.128 107.07 346.456C107.07 347.8 107.374 348.848 107.982 349.6C108.606 350.352 109.47 350.728 110.574 350.728C111.662 350.728 112.51 350.352 113.118 349.6C113.742 348.832 114.054 347.784 114.054 346.456C114.054 345.128 113.742 344.088 113.118 343.336C112.51 342.568 111.662 342.184 110.574 342.184ZM126.815 349.048C126.815 350.072 126.439 350.872 125.687 351.448C124.935 352.024 123.847 352.312 122.423 352.312C121.207 352.312 120.215 352.128 119.447 351.76C118.679 351.376 118.295 350.96 118.295 350.512C118.295 350.32 118.343 350.136 118.439 349.96C118.551 349.768 118.711 349.616 118.919 349.504C119.351 349.808 119.855 350.088 120.431 350.344C121.007 350.6 121.663 350.728 122.399 350.728C124.063 350.728 124.895 350.168 124.895 349.048C124.895 348.584 124.751 348.208 124.463 347.92C124.191 347.616 123.783 347.4 123.239 347.272L121.247 346.744C120.271 346.504 119.559 346.136 119.111 345.64C118.663 345.128 118.439 344.496 118.439 343.744C118.439 342.896 118.783 342.16 119.471 341.536C120.159 340.912 121.207 340.6 122.615 340.6C123.367 340.6 124.023 340.68 124.583 340.84C125.143 340.984 125.575 341.184 125.879 341.44C126.199 341.68 126.359 341.944 126.359 342.232C126.359 342.44 126.303 342.624 126.191 342.784C126.095 342.944 125.959 343.064 125.783 343.144C125.591 343.016 125.343 342.88 125.039 342.736C124.751 342.576 124.407 342.448 124.007 342.352C123.607 342.24 123.167 342.184 122.687 342.184C121.983 342.184 121.415 342.32 120.983 342.592C120.551 342.864 120.335 343.248 120.335 343.744C120.335 344.096 120.455 344.408 120.695 344.68C120.951 344.936 121.351 345.128 121.895 345.256L123.551 345.664C124.639 345.92 125.455 346.328 125.999 346.888C126.543 347.432 126.815 348.152 126.815 349.048ZM130.539 347.68L130.443 346.168L137.691 345.184C137.627 344.304 137.323 343.584 136.779 343.024C136.235 342.448 135.483 342.16 134.523 342.16C133.531 342.16 132.707 342.52 132.051 343.24C131.411 343.944 131.091 344.96 131.091 346.288V346.816C131.203 348.096 131.619 349.072 132.339 349.744C133.075 350.4 134.075 350.728 135.339 350.728C136.011 350.728 136.619 350.616 137.163 350.392C137.707 350.168 138.139 349.928 138.459 349.672C138.635 349.784 138.771 349.92 138.867 350.08C138.979 350.224 139.035 350.392 139.035 350.584C139.035 350.888 138.859 351.176 138.507 351.448C138.171 351.704 137.715 351.912 137.139 352.072C136.579 352.232 135.947 352.312 135.243 352.312C134.011 352.312 132.939 352.088 132.027 351.64C131.131 351.192 130.435 350.528 129.939 349.648C129.459 348.752 129.219 347.664 129.219 346.384C129.219 345.472 129.347 344.664 129.603 343.96C129.875 343.24 130.243 342.632 130.707 342.136C131.187 341.64 131.755 341.264 132.411 341.008C133.067 340.736 133.779 340.6 134.547 340.6C135.523 340.6 136.379 340.808 137.115 341.224C137.867 341.64 138.451 342.224 138.867 342.976C139.299 343.712 139.515 344.56 139.515 345.52C139.515 345.872 139.435 346.128 139.275 346.288C139.115 346.432 138.891 346.52 138.603 346.552L130.539 347.68ZM151.053 350.752C151.725 350.752 152.277 350.688 152.709 350.56C153.157 350.416 153.477 350.28 153.669 350.152V346.672L150.693 346.984C149.861 347.048 149.245 347.232 148.845 347.536C148.445 347.84 148.245 348.28 148.245 348.856C148.245 349.448 148.477 349.912 148.941 350.248C149.421 350.584 150.125 350.752 151.053 350.752ZM151.029 340.6C152.421 340.6 153.525 340.912 154.341 341.536C155.157 342.16 155.565 343.144 155.565 344.488V350.176C155.565 350.528 155.493 350.8 155.349 350.992C155.221 351.168 155.021 351.336 154.749 351.496C154.365 351.704 153.853 351.896 153.213 352.072C152.573 352.248 151.853 352.336 151.053 352.336C149.549 352.336 148.381 352.04 147.549 351.448C146.733 350.856 146.325 350 146.325 348.88C146.325 347.84 146.669 347.048 147.357 346.504C148.061 345.944 149.029 345.608 150.261 345.496L153.669 345.16V344.488C153.669 343.688 153.429 343.104 152.949 342.736C152.469 342.368 151.821 342.184 151.005 342.184C150.349 342.184 149.717 342.28 149.109 342.472C148.517 342.664 147.989 342.88 147.525 343.12C147.397 343.008 147.277 342.88 147.165 342.736C147.069 342.576 147.021 342.416 147.021 342.256C147.021 341.84 147.253 341.52 147.717 341.296C148.149 341.072 148.645 340.904 149.205 340.792C149.781 340.664 150.389 340.6 151.029 340.6ZM164.21 343.48H166.178V351.808L165.266 352C164.962 352 164.706 351.904 164.498 351.712C164.306 351.504 164.21 351.248 164.21 350.944V343.48ZM165.266 352V350.32H173.066C173.146 350.384 173.21 350.488 173.258 350.632C173.306 350.776 173.33 350.936 173.33 351.112C173.33 351.384 173.258 351.6 173.114 351.76C172.97 351.92 172.778 352 172.538 352H165.266ZM166.178 344.92H164.21V337.456C164.29 337.424 164.41 337.392 164.57 337.36C164.746 337.312 164.93 337.288 165.122 337.288C165.474 337.288 165.738 337.36 165.914 337.504C166.09 337.632 166.178 337.856 166.178 338.176V344.92ZM179.858 350.752C180.53 350.752 181.082 350.688 181.514 350.56C181.962 350.416 182.282 350.28 182.474 350.152V346.672L179.498 346.984C178.666 347.048 178.05 347.232 177.65 347.536C177.25 347.84 177.05 348.28 177.05 348.856C177.05 349.448 177.282 349.912 177.746 350.248C178.226 350.584 178.93 350.752 179.858 350.752ZM179.834 340.6C181.226 340.6 182.33 340.912 183.146 341.536C183.962 342.16 184.37 343.144 184.37 344.488V350.176C184.37 350.528 184.298 350.8 184.154 350.992C184.026 351.168 183.826 351.336 183.554 351.496C183.17 351.704 182.658 351.896 182.018 352.072C181.378 352.248 180.658 352.336 179.858 352.336C178.354 352.336 177.186 352.04 176.354 351.448C175.538 350.856 175.13 350 175.13 348.88C175.13 347.84 175.474 347.048 176.162 346.504C176.866 345.944 177.834 345.608 179.066 345.496L182.474 345.16V344.488C182.474 343.688 182.234 343.104 181.754 342.736C181.274 342.368 180.626 342.184 179.81 342.184C179.154 342.184 178.522 342.28 177.914 342.472C177.322 342.664 176.794 342.88 176.33 343.12C176.202 343.008 176.082 342.88 175.97 342.736C175.874 342.576 175.826 342.416 175.826 342.256C175.826 341.84 176.058 341.52 176.522 341.296C176.954 341.072 177.45 340.904 178.01 340.792C178.586 340.664 179.194 340.6 179.834 340.6ZM197.474 344.68V347.128H195.554V344.776C195.554 343.88 195.298 343.224 194.786 342.808C194.29 342.392 193.618 342.184 192.77 342.184C192.13 342.184 191.562 342.264 191.066 342.424C190.57 342.584 190.146 342.768 189.794 342.976V347.128H187.874V343.072C187.874 342.736 187.938 342.464 188.066 342.256C188.21 342.032 188.45 341.816 188.786 341.608C189.202 341.368 189.754 341.144 190.442 340.936C191.13 340.712 191.906 340.6 192.77 340.6C194.226 340.6 195.37 340.936 196.202 341.608C197.05 342.264 197.474 343.288 197.474 344.68ZM187.874 345.808H189.794V351.952C189.714 351.984 189.594 352.016 189.434 352.048C189.274 352.096 189.098 352.12 188.906 352.12C188.57 352.12 188.314 352.056 188.138 351.928C187.962 351.784 187.874 351.56 187.874 351.256V345.808ZM195.554 345.808H197.474V351.952C197.394 351.984 197.266 352.016 197.09 352.048C196.93 352.096 196.762 352.12 196.586 352.12C196.234 352.12 195.97 352.056 195.794 351.928C195.634 351.784 195.554 351.56 195.554 351.256V345.808ZM205.678 351.664C204.75 351.664 203.894 351.488 203.11 351.136C202.326 350.768 201.694 350.176 201.214 349.36C200.734 348.544 200.494 347.464 200.494 346.12C200.494 344.904 200.726 343.888 201.19 343.072C201.67 342.256 202.326 341.64 203.158 341.224C203.99 340.808 204.942 340.6 206.014 340.6C206.75 340.6 207.422 340.696 208.03 340.888C208.654 341.064 209.174 341.288 209.59 341.56C209.83 341.72 210.022 341.904 210.166 342.112C210.326 342.304 210.406 342.544 210.406 342.832V350.248H208.486V342.856C208.214 342.68 207.87 342.528 207.454 342.4C207.054 342.256 206.574 342.184 206.014 342.184C204.942 342.184 204.078 342.512 203.422 343.168C202.766 343.824 202.438 344.8 202.438 346.096C202.438 347.536 202.766 348.56 203.422 349.168C204.094 349.776 204.918 350.08 205.894 350.08C206.598 350.08 207.166 349.96 207.598 349.72C208.03 349.48 208.374 349.216 208.63 348.928L208.726 350.632C208.486 350.888 208.102 351.128 207.574 351.352C207.062 351.56 206.43 351.664 205.678 351.664ZM208.486 352.36V349.84H210.406V352.48C210.406 353.536 210.174 354.384 209.71 355.024C209.262 355.664 208.638 356.128 207.838 356.416C207.054 356.704 206.166 356.848 205.174 356.848C204.374 356.848 203.686 356.76 203.11 356.584C202.534 356.408 202.142 356.264 201.934 356.152C201.454 355.88 201.214 355.536 201.214 355.12C201.214 354.896 201.262 354.704 201.358 354.544C201.47 354.4 201.606 354.288 201.766 354.208C202.102 354.464 202.574 354.696 203.182 354.904C203.806 355.128 204.47 355.24 205.174 355.24C206.246 355.24 207.062 355.008 207.622 354.544C208.198 354.08 208.486 353.352 208.486 352.36ZM213.96 347.944V345.76H215.88V347.848C215.88 348.872 216.152 349.608 216.696 350.056C217.24 350.504 217.992 350.728 218.952 350.728C219.592 350.728 220.136 350.664 220.584 350.536C221.032 350.392 221.384 350.248 221.64 350.104V345.76H223.56V350.032C223.56 350.368 223.512 350.64 223.416 350.848C223.336 351.04 223.128 351.232 222.792 351.424C222.44 351.632 221.936 351.832 221.28 352.024C220.624 352.216 219.84 352.312 218.928 352.312C217.872 352.312 216.968 352.16 216.216 351.856C215.48 351.536 214.92 351.056 214.536 350.416C214.152 349.76 213.96 348.936 213.96 347.944ZM223.56 347.008H221.64V340.96C221.72 340.928 221.84 340.896 222 340.864C222.176 340.816 222.352 340.792 222.528 340.792C222.88 340.792 223.136 340.864 223.296 341.008C223.472 341.136 223.56 341.36 223.56 341.68V347.008ZM215.88 347.008H213.96V340.96C214.04 340.928 214.16 340.896 214.32 340.864C214.496 340.816 214.68 340.792 214.872 340.792C215.208 340.792 215.456 340.864 215.616 341.008C215.792 341.136 215.88 341.36 215.88 341.68V347.008ZM231.115 350.752C231.787 350.752 232.339 350.688 232.771 350.56C233.219 350.416 233.539 350.28 233.731 350.152V346.672L230.755 346.984C229.923 347.048 229.307 347.232 228.907 347.536C228.507 347.84 228.307 348.28 228.307 348.856C228.307 349.448 228.539 349.912 229.003 350.248C229.483 350.584 230.187 350.752 231.115 350.752ZM231.091 340.6C232.483 340.6 233.587 340.912 234.403 341.536C235.219 342.16 235.627 343.144 235.627 344.488V350.176C235.627 350.528 235.555 350.8 235.411 350.992C235.283 351.168 235.083 351.336 234.811 351.496C234.427 351.704 233.915 351.896 233.275 352.072C232.635 352.248 231.915 352.336 231.115 352.336C229.611 352.336 228.443 352.04 227.611 351.448C226.795 350.856 226.387 350 226.387 348.88C226.387 347.84 226.731 347.048 227.419 346.504C228.123 345.944 229.091 345.608 230.323 345.496L233.731 345.16V344.488C233.731 343.688 233.491 343.104 233.011 342.736C232.531 342.368 231.883 342.184 231.067 342.184C230.411 342.184 229.779 342.28 229.171 342.472C228.579 342.664 228.051 342.88 227.587 343.12C227.459 343.008 227.339 342.88 227.227 342.736C227.131 342.576 227.083 342.416 227.083 342.256C227.083 341.84 227.315 341.52 227.779 341.296C228.211 341.072 228.707 340.904 229.267 340.792C229.843 340.664 230.451 340.6 231.091 340.6ZM243.74 351.664C242.812 351.664 241.956 351.488 241.172 351.136C240.388 350.768 239.756 350.176 239.276 349.36C238.796 348.544 238.556 347.464 238.556 346.12C238.556 344.904 238.788 343.888 239.252 343.072C239.732 342.256 240.388 341.64 241.22 341.224C242.052 340.808 243.004 340.6 244.076 340.6C244.812 340.6 245.484 340.696 246.092 340.888C246.716 341.064 247.236 341.288 247.652 341.56C247.892 341.72 248.084 341.904 248.228 342.112C248.388 342.304 248.468 342.544 248.468 342.832V350.248H246.548V342.856C246.276 342.68 245.932 342.528 245.516 342.4C245.116 342.256 244.636 342.184 244.076 342.184C243.004 342.184 242.14 342.512 241.484 343.168C240.828 343.824 240.5 344.8 240.5 346.096C240.5 347.536 240.828 348.56 241.484 349.168C242.156 349.776 242.98 350.08 243.956 350.08C244.66 350.08 245.228 349.96 245.66 349.72C246.092 349.48 246.436 349.216 246.692 348.928L246.788 350.632C246.548 350.888 246.164 351.128 245.636 351.352C245.124 351.56 244.492 351.664 243.74 351.664ZM246.548 352.36V349.84H248.468V352.48C248.468 353.536 248.236 354.384 247.772 355.024C247.324 355.664 246.7 356.128 245.9 356.416C245.116 356.704 244.228 356.848 243.236 356.848C242.436 356.848 241.748 356.76 241.172 356.584C240.596 356.408 240.204 356.264 239.996 356.152C239.516 355.88 239.276 355.536 239.276 355.12C239.276 354.896 239.324 354.704 239.42 354.544C239.532 354.4 239.668 354.288 239.828 354.208C240.164 354.464 240.636 354.696 241.244 354.904C241.868 355.128 242.532 355.24 243.236 355.24C244.308 355.24 245.124 355.008 245.684 354.544C246.26 354.08 246.548 353.352 246.548 352.36ZM252.719 347.68L252.623 346.168L259.871 345.184C259.807 344.304 259.503 343.584 258.959 343.024C258.415 342.448 257.663 342.16 256.703 342.16C255.711 342.16 254.887 342.52 254.231 343.24C253.591 343.944 253.271 344.96 253.271 346.288V346.816C253.383 348.096 253.799 349.072 254.519 349.744C255.255 350.4 256.255 350.728 257.519 350.728C258.191 350.728 258.799 350.616 259.343 350.392C259.887 350.168 260.319 349.928 260.639 349.672C260.815 349.784 260.951 349.92 261.047 350.08C261.159 350.224 261.215 350.392 261.215 350.584C261.215 350.888 261.039 351.176 260.687 351.448C260.351 351.704 259.895 351.912 259.319 352.072C258.759 352.232 258.127 352.312 257.423 352.312C256.191 352.312 255.119 352.088 254.207 351.64C253.311 351.192 252.615 350.528 252.119 349.648C251.639 348.752 251.399 347.664 251.399 346.384C251.399 345.472 251.527 344.664 251.783 343.96C252.055 343.24 252.423 342.632 252.887 342.136C253.367 341.64 253.935 341.264 254.591 341.008C255.247 340.736 255.959 340.6 256.727 340.6C257.703 340.6 258.559 340.808 259.295 341.224C260.047 341.64 260.631 342.224 261.047 342.976C261.479 343.712 261.695 344.56 261.695 345.52C261.695 345.872 261.615 346.128 261.455 346.288C261.295 346.432 261.071 346.52 260.783 346.552L252.719 347.68Z" fill="black"/>
<path d="M71.0381 523.016C71.0381 523.224 70.9661 523.416 70.8221 523.592C70.6941 523.752 70.5421 523.872 70.3661 523.952C69.9661 523.664 69.4781 523.392 68.9021 523.136C68.3421 522.88 67.6141 522.752 66.7181 522.752C65.7421 522.752 64.8621 522.976 64.0781 523.424C63.3101 523.872 62.6941 524.544 62.2301 525.44C61.7821 526.32 61.5581 527.416 61.5581 528.728C61.5581 530.696 62.0381 532.176 62.9981 533.168C63.9741 534.16 65.2381 534.656 66.7901 534.656C67.6221 534.656 68.3501 534.536 68.9741 534.296C69.5981 534.056 70.1101 533.784 70.5101 533.48C70.6701 533.544 70.8221 533.664 70.9661 533.84C71.1101 534 71.1821 534.192 71.1821 534.416C71.1821 534.576 71.1341 534.736 71.0381 534.896C70.9581 535.04 70.8141 535.184 70.6061 535.328C70.2381 535.584 69.7341 535.808 69.0941 536C68.4541 536.208 67.6381 536.312 66.6461 536.312C65.3181 536.312 64.1101 536.032 63.0221 535.472C61.9501 534.896 61.1021 534.048 60.4781 532.928C59.8541 531.808 59.5421 530.408 59.5421 528.728C59.5421 527.048 59.8621 525.64 60.5021 524.504C61.1581 523.368 62.0141 522.52 63.0701 521.96C64.1421 521.384 65.3101 521.096 66.5741 521.096C67.4541 521.096 68.2301 521.192 68.9021 521.384C69.5741 521.576 70.0941 521.824 70.4621 522.128C70.8461 522.416 71.0381 522.712 71.0381 523.016ZM83.7795 531.224H81.8595V529.016C81.8595 528.056 81.5875 527.344 81.0435 526.88C80.5155 526.416 79.8275 526.184 78.9795 526.184C78.3555 526.184 77.7715 526.304 77.2275 526.544C76.6995 526.784 76.2515 527.072 75.8835 527.408L75.5235 525.848C75.9075 525.576 76.4115 525.304 77.0355 525.032C77.6755 524.744 78.4115 524.6 79.2435 524.6C80.5715 524.6 81.6595 524.96 82.5075 525.68C83.3555 526.4 83.7795 527.496 83.7795 528.968V531.224ZM74.2035 529.664H76.1235V535.952C76.0435 535.984 75.9235 536.016 75.7635 536.048C75.6035 536.096 75.4275 536.12 75.2355 536.12C74.8995 536.12 74.6435 536.056 74.4675 535.928C74.2915 535.784 74.2035 535.56 74.2035 535.256V529.664ZM81.8595 529.688L83.7795 529.712V535.952C83.6995 535.984 83.5715 536.016 83.3955 536.048C83.2355 536.096 83.0675 536.12 82.8915 536.12C82.5395 536.12 82.2755 536.056 82.0995 535.928C81.9395 535.784 81.8595 535.56 81.8595 535.256V529.688ZM76.1235 530.6H74.2035V520.448C74.2835 520.416 74.4035 520.384 74.5635 520.352C74.7395 520.304 74.9235 520.28 75.1155 520.28C75.4515 520.28 75.6995 520.352 75.8595 520.496C76.0355 520.624 76.1235 520.84 76.1235 521.144V530.6ZM97.6702 530.456C97.6702 531.64 97.4462 532.672 96.9982 533.552C96.5502 534.432 95.9182 535.112 95.1022 535.592C94.2862 536.072 93.3262 536.312 92.2222 536.312C91.1182 536.312 90.1502 536.072 89.3182 535.592C88.5022 535.112 87.8702 534.432 87.4222 533.552C86.9742 532.672 86.7502 531.64 86.7502 530.456C86.7502 529.256 86.9742 528.224 87.4222 527.36C87.8862 526.48 88.5262 525.8 89.3422 525.32C90.1742 524.84 91.1342 524.6 92.2222 524.6C93.3102 524.6 94.2622 524.84 95.0782 525.32C95.8942 525.8 96.5262 526.48 96.9742 527.36C97.4382 528.224 97.6702 529.256 97.6702 530.456ZM92.2222 526.184C91.1502 526.184 90.2942 526.568 89.6542 527.336C89.0302 528.088 88.7182 529.128 88.7182 530.456C88.7182 531.8 89.0222 532.848 89.6302 533.6C90.2542 534.352 91.1182 534.728 92.2222 534.728C93.3102 534.728 94.1582 534.352 94.7662 533.6C95.3902 532.832 95.7022 531.784 95.7022 530.456C95.7022 529.128 95.3902 528.088 94.7662 527.336C94.1582 526.568 93.3102 526.184 92.2222 526.184ZM110.936 530.456C110.936 531.64 110.712 532.672 110.264 533.552C109.816 534.432 109.184 535.112 108.368 535.592C107.552 536.072 106.592 536.312 105.488 536.312C104.384 536.312 103.416 536.072 102.584 535.592C101.768 535.112 101.136 534.432 100.688 533.552C100.24 532.672 100.016 531.64 100.016 530.456C100.016 529.256 100.24 528.224 100.688 527.36C101.152 526.48 101.792 525.8 102.608 525.32C103.44 524.84 104.4 524.6 105.488 524.6C106.576 524.6 107.528 524.84 108.344 525.32C109.16 525.8 109.792 526.48 110.24 527.36C110.704 528.224 110.936 529.256 110.936 530.456ZM105.488 526.184C104.416 526.184 103.56 526.568 102.92 527.336C102.296 528.088 101.984 529.128 101.984 530.456C101.984 531.8 102.288 532.848 102.896 533.6C103.52 534.352 104.384 534.728 105.488 534.728C106.576 534.728 107.424 534.352 108.032 533.6C108.656 532.832 108.968 531.784 108.968 530.456C108.968 529.128 108.656 528.088 108.032 527.336C107.424 526.568 106.576 526.184 105.488 526.184ZM121.729 533.048C121.729 534.072 121.353 534.872 120.601 535.448C119.849 536.024 118.761 536.312 117.337 536.312C116.121 536.312 115.129 536.128 114.361 535.76C113.593 535.376 113.209 534.96 113.209 534.512C113.209 534.32 113.257 534.136 113.353 533.96C113.465 533.768 113.625 533.616 113.833 533.504C114.265 533.808 114.769 534.088 115.345 534.344C115.921 534.6 116.577 534.728 117.313 534.728C118.977 534.728 119.809 534.168 119.809 533.048C119.809 532.584 119.665 532.208 119.377 531.92C119.105 531.616 118.697 531.4 118.153 531.272L116.161 530.744C115.185 530.504 114.473 530.136 114.025 529.64C113.577 529.128 113.353 528.496 113.353 527.744C113.353 526.896 113.697 526.16 114.385 525.536C115.073 524.912 116.121 524.6 117.529 524.6C118.281 524.6 118.937 524.68 119.497 524.84C120.057 524.984 120.489 525.184 120.793 525.44C121.113 525.68 121.273 525.944 121.273 526.232C121.273 526.44 121.217 526.624 121.105 526.784C121.009 526.944 120.873 527.064 120.697 527.144C120.505 527.016 120.257 526.88 119.953 526.736C119.665 526.576 119.321 526.448 118.921 526.352C118.521 526.24 118.081 526.184 117.601 526.184C116.897 526.184 116.329 526.32 115.897 526.592C115.465 526.864 115.249 527.248 115.249 527.744C115.249 528.096 115.369 528.408 115.609 528.68C115.865 528.936 116.265 529.128 116.809 529.256L118.465 529.664C119.553 529.92 120.369 530.328 120.913 530.888C121.457 531.432 121.729 532.152 121.729 533.048ZM125.453 531.68L125.357 530.168L132.605 529.184C132.541 528.304 132.237 527.584 131.693 527.024C131.149 526.448 130.397 526.16 129.437 526.16C128.445 526.16 127.621 526.52 126.965 527.24C126.325 527.944 126.005 528.96 126.005 530.288V530.816C126.117 532.096 126.533 533.072 127.253 533.744C127.989 534.4 128.989 534.728 130.253 534.728C130.925 534.728 131.533 534.616 132.077 534.392C132.621 534.168 133.053 533.928 133.373 533.672C133.549 533.784 133.685 533.92 133.781 534.08C133.893 534.224 133.949 534.392 133.949 534.584C133.949 534.888 133.773 535.176 133.421 535.448C133.085 535.704 132.629 535.912 132.053 536.072C131.493 536.232 130.861 536.312 130.157 536.312C128.925 536.312 127.853 536.088 126.941 535.64C126.045 535.192 125.349 534.528 124.853 533.648C124.373 532.752 124.133 531.664 124.133 530.384C124.133 529.472 124.261 528.664 124.517 527.96C124.789 527.24 125.157 526.632 125.621 526.136C126.101 525.64 126.669 525.264 127.325 525.008C127.981 524.736 128.693 524.6 129.461 524.6C130.437 524.6 131.293 524.808 132.029 525.224C132.781 525.64 133.365 526.224 133.781 526.976C134.213 527.712 134.429 528.56 134.429 529.52C134.429 529.872 134.349 530.128 134.189 530.288C134.029 530.432 133.805 530.52 133.517 530.552L125.453 531.68ZM145.967 534.752C146.639 534.752 147.191 534.688 147.623 534.56C148.071 534.416 148.391 534.28 148.583 534.152V530.672L145.607 530.984C144.775 531.048 144.159 531.232 143.759 531.536C143.359 531.84 143.159 532.28 143.159 532.856C143.159 533.448 143.391 533.912 143.855 534.248C144.335 534.584 145.039 534.752 145.967 534.752ZM145.943 524.6C147.335 524.6 148.439 524.912 149.255 525.536C150.071 526.16 150.479 527.144 150.479 528.488V534.176C150.479 534.528 150.407 534.8 150.263 534.992C150.135 535.168 149.935 535.336 149.663 535.496C149.279 535.704 148.767 535.896 148.127 536.072C147.487 536.248 146.767 536.336 145.967 536.336C144.463 536.336 143.295 536.04 142.463 535.448C141.647 534.856 141.239 534 141.239 532.88C141.239 531.84 141.583 531.048 142.271 530.504C142.975 529.944 143.943 529.608 145.175 529.496L148.583 529.16V528.488C148.583 527.688 148.343 527.104 147.863 526.736C147.383 526.368 146.735 526.184 145.919 526.184C145.263 526.184 144.631 526.28 144.023 526.472C143.431 526.664 142.903 526.88 142.439 527.12C142.311 527.008 142.191 526.88 142.079 526.736C141.983 526.576 141.935 526.416 141.935 526.256C141.935 525.84 142.167 525.52 142.631 525.296C143.063 525.072 143.559 524.904 144.119 524.792C144.695 524.664 145.303 524.6 145.943 524.6ZM159.124 527.48H161.092V535.808L160.18 536C159.876 536 159.62 535.904 159.412 535.712C159.22 535.504 159.124 535.248 159.124 534.944V527.48ZM160.18 536V534.32H167.98C168.06 534.384 168.124 534.488 168.172 534.632C168.22 534.776 168.244 534.936 168.244 535.112C168.244 535.384 168.172 535.6 168.028 535.76C167.884 535.92 167.692 536 167.452 536H160.18ZM161.092 528.92H159.124V521.456C159.204 521.424 159.324 521.392 159.484 521.36C159.66 521.312 159.844 521.288 160.036 521.288C160.388 521.288 160.652 521.36 160.828 521.504C161.004 521.632 161.092 521.856 161.092 522.176V528.92ZM180.873 530.456C180.873 531.64 180.649 532.672 180.201 533.552C179.753 534.432 179.121 535.112 178.305 535.592C177.489 536.072 176.529 536.312 175.425 536.312C174.321 536.312 173.353 536.072 172.521 535.592C171.705 535.112 171.073 534.432 170.625 533.552C170.177 532.672 169.953 531.64 169.953 530.456C169.953 529.256 170.177 528.224 170.625 527.36C171.089 526.48 171.729 525.8 172.545 525.32C173.377 524.84 174.337 524.6 175.425 524.6C176.513 524.6 177.465 524.84 178.281 525.32C179.097 525.8 179.729 526.48 180.177 527.36C180.641 528.224 180.873 529.256 180.873 530.456ZM175.425 526.184C174.353 526.184 173.497 526.568 172.857 527.336C172.233 528.088 171.921 529.128 171.921 530.456C171.921 531.8 172.225 532.848 172.833 533.6C173.457 534.352 174.321 534.728 175.425 534.728C176.513 534.728 177.361 534.352 177.969 533.6C178.593 532.832 178.905 531.784 178.905 530.456C178.905 529.128 178.593 528.088 177.969 527.336C177.361 526.568 176.513 526.184 175.425 526.184ZM188.979 526.208C187.891 526.208 186.987 526.576 186.267 527.312C185.547 528.048 185.187 529.104 185.187 530.48C185.187 531.84 185.531 532.888 186.219 533.624C186.923 534.36 187.843 534.728 188.979 534.728C189.651 534.728 190.211 534.64 190.659 534.464C191.107 534.272 191.507 534.056 191.859 533.816C192.035 533.912 192.179 534.032 192.291 534.176C192.403 534.32 192.459 534.496 192.459 534.704C192.459 535.152 192.123 535.536 191.451 535.856C190.795 536.16 189.971 536.312 188.979 536.312C187.875 536.312 186.883 536.104 186.003 535.688C185.139 535.256 184.459 534.608 183.963 533.744C183.467 532.88 183.219 531.792 183.219 530.48C183.219 529.184 183.475 528.104 183.987 527.24C184.499 526.36 185.187 525.704 186.051 525.272C186.931 524.824 187.891 524.6 188.931 524.6C189.923 524.6 190.739 524.768 191.379 525.104C192.035 525.44 192.363 525.824 192.363 526.256C192.363 526.448 192.307 526.616 192.195 526.76C192.083 526.904 191.939 527.016 191.763 527.096C191.411 526.856 191.019 526.648 190.587 526.472C190.171 526.296 189.635 526.208 188.979 526.208ZM199.358 534.752C200.03 534.752 200.582 534.688 201.014 534.56C201.462 534.416 201.782 534.28 201.974 534.152V530.672L198.998 530.984C198.166 531.048 197.55 531.232 197.15 531.536C196.75 531.84 196.55 532.28 196.55 532.856C196.55 533.448 196.782 533.912 197.246 534.248C197.726 534.584 198.43 534.752 199.358 534.752ZM199.334 524.6C200.726 524.6 201.83 524.912 202.646 525.536C203.462 526.16 203.87 527.144 203.87 528.488V534.176C203.87 534.528 203.798 534.8 203.654 534.992C203.526 535.168 203.326 535.336 203.054 535.496C202.67 535.704 202.158 535.896 201.518 536.072C200.878 536.248 200.158 536.336 199.358 536.336C197.854 536.336 196.686 536.04 195.854 535.448C195.038 534.856 194.63 534 194.63 532.88C194.63 531.84 194.974 531.048 195.662 530.504C196.366 529.944 197.334 529.608 198.566 529.496L201.974 529.16V528.488C201.974 527.688 201.734 527.104 201.254 526.736C200.774 526.368 200.126 526.184 199.31 526.184C198.654 526.184 198.022 526.28 197.414 526.472C196.822 526.664 196.294 526.88 195.83 527.12C195.702 527.008 195.582 526.88 195.47 526.736C195.374 526.576 195.326 526.416 195.326 526.256C195.326 525.84 195.558 525.52 196.022 525.296C196.454 525.072 196.95 524.904 197.51 524.792C198.086 524.664 198.694 524.6 199.334 524.6ZM207.398 529.664H209.318V532.976C209.318 533.616 209.502 534.072 209.87 534.344C210.238 534.6 210.742 534.728 211.382 534.728C211.654 534.728 211.958 534.68 212.294 534.584C212.63 534.488 212.91 534.376 213.134 534.248C213.23 534.344 213.318 534.464 213.398 534.608C213.478 534.752 213.518 534.92 213.518 535.112C213.518 535.464 213.31 535.752 212.894 535.976C212.478 536.2 211.902 536.312 211.166 536.312C210.046 536.312 209.134 536.064 208.43 535.568C207.742 535.072 207.398 534.248 207.398 533.096V529.664ZM208.382 526.736V525.152H213.254C213.302 525.216 213.35 525.32 213.398 525.464C213.446 525.608 213.47 525.76 213.47 525.92C213.47 526.176 213.406 526.376 213.278 526.52C213.15 526.664 212.974 526.736 212.75 526.736H208.382ZM209.318 530.384H207.398V521.696C207.478 521.664 207.598 521.632 207.758 521.6C207.934 521.552 208.118 521.528 208.31 521.528C208.646 521.528 208.894 521.6 209.054 521.744C209.23 521.872 209.318 522.088 209.318 522.392V530.384ZM216.136 521.408C216.136 521.072 216.256 520.792 216.496 520.568C216.736 520.328 217.032 520.208 217.384 520.208C217.752 520.208 218.048 520.328 218.272 520.568C218.496 520.792 218.608 521.072 218.608 521.408C218.608 521.744 218.496 522.032 218.272 522.272C218.048 522.496 217.752 522.608 217.384 522.608C217.032 522.608 216.736 522.496 216.496 522.272C216.256 522.032 216.136 521.744 216.136 521.408ZM216.424 529.664H218.344V535.952C218.264 535.984 218.144 536.016 217.984 536.048C217.824 536.096 217.648 536.12 217.456 536.12C217.12 536.12 216.864 536.056 216.688 535.928C216.512 535.784 216.424 535.56 216.424 535.256V529.664ZM218.344 530.6H216.424V524.96C216.504 524.928 216.624 524.896 216.784 524.864C216.96 524.816 217.144 524.792 217.336 524.792C217.672 524.792 217.92 524.864 218.08 525.008C218.256 525.136 218.344 525.36 218.344 525.68V530.6ZM232.389 530.456C232.389 531.64 232.165 532.672 231.717 533.552C231.269 534.432 230.637 535.112 229.821 535.592C229.005 536.072 228.045 536.312 226.941 536.312C225.837 536.312 224.869 536.072 224.037 535.592C223.221 535.112 222.589 534.432 222.141 533.552C221.693 532.672 221.469 531.64 221.469 530.456C221.469 529.256 221.693 528.224 222.141 527.36C222.605 526.48 223.245 525.8 224.061 525.32C224.893 524.84 225.853 524.6 226.941 524.6C228.029 524.6 228.981 524.84 229.797 525.32C230.613 525.8 231.245 526.48 231.693 527.36C232.157 528.224 232.389 529.256 232.389 530.456ZM226.941 526.184C225.869 526.184 225.013 526.568 224.373 527.336C223.749 528.088 223.437 529.128 223.437 530.456C223.437 531.8 223.741 532.848 224.349 533.6C224.973 534.352 225.837 534.728 226.941 534.728C228.029 534.728 228.877 534.352 229.485 533.6C230.109 532.832 230.421 531.784 230.421 530.456C230.421 529.128 230.109 528.088 229.485 527.336C228.877 526.568 228.029 526.184 226.941 526.184ZM244.959 528.68V531.128H243.039V528.776C243.039 527.88 242.783 527.224 242.271 526.808C241.775 526.392 241.103 526.184 240.255 526.184C239.615 526.184 239.047 526.264 238.551 526.424C238.055 526.584 237.631 526.768 237.279 526.976V531.128H235.359V527.072C235.359 526.736 235.423 526.464 235.551 526.256C235.695 526.032 235.935 525.816 236.271 525.608C236.687 525.368 237.239 525.144 237.927 524.936C238.615 524.712 239.391 524.6 240.255 524.6C241.711 524.6 242.855 524.936 243.687 525.608C244.535 526.264 244.959 527.288 244.959 528.68ZM235.359 529.808H237.279V535.952C237.199 535.984 237.079 536.016 236.919 536.048C236.759 536.096 236.583 536.12 236.391 536.12C236.055 536.12 235.799 536.056 235.623 535.928C235.447 535.784 235.359 535.56 235.359 535.256V529.808ZM243.039 529.808H244.959V535.952C244.879 535.984 244.751 536.016 244.575 536.048C244.415 536.096 244.247 536.12 244.071 536.12C243.719 536.12 243.455 536.056 243.279 535.928C243.119 535.784 243.039 535.56 243.039 535.256V529.808Z" fill="black"/>
<path d="M350.349 413.647L342.378 405.676C341.994 405.291 341.994 404.668 342.378 404.283L343.308 403.354C343.692 402.97 344.314 402.969 344.698 403.352L351.045 409.669L357.392 403.352C357.777 402.969 358.399 402.97 358.783 403.354L359.712 404.283C360.097 404.668 360.097 405.291 359.712 405.676L351.741 413.647C351.357 414.031 350.734 414.031 350.349 413.647Z" fill="black"/>
<rect x="56" y="381" width="326" height="55" rx="27.5" stroke="#D45769" stroke-width="2"/>
<path d="M350.349 595.647L342.378 587.676C341.994 587.291 341.994 586.668 342.378 586.283L343.308 585.354C343.692 584.97 344.314 584.969 344.698 585.352L351.045 591.669L357.392 585.352C357.777 584.969 358.399 584.97 358.783 585.354L359.712 586.283C360.097 586.668 360.097 587.291 359.712 587.676L351.741 595.647C351.357 596.031 350.734 596.031 350.349 595.647Z" fill="black"/>
<rect x="56" y="563" width="326" height="55" rx="27.5" stroke="#D45769" stroke-width="2"/>
<path d="M216.708 702.236V709.724C216.708 710.396 216.576 710.912 216.312 711.272C216.072 711.608 215.664 711.932 215.088 712.244C214.44 712.604 213.504 712.916 212.28 713.18C211.056 713.468 209.832 713.612 208.608 713.612C206.304 713.612 204.228 713.216 202.38 712.424C200.556 711.608 199.104 710.36 198.024 708.68C196.968 706.976 196.44 704.792 196.44 702.128C196.44 699.584 196.98 697.46 198.06 695.756C199.14 694.028 200.592 692.732 202.416 691.868C204.264 690.98 206.304 690.536 208.536 690.536C210.024 690.536 211.308 690.692 212.388 691.004C213.492 691.316 214.332 691.748 214.908 692.3C215.508 692.852 215.808 693.488 215.808 694.208C215.808 694.736 215.664 695.216 215.376 695.648C215.112 696.056 214.788 696.368 214.404 696.584C213.804 696.2 213.048 695.84 212.136 695.504C211.224 695.168 210.156 695 208.932 695C207.612 695 206.424 695.288 205.368 695.864C204.336 696.416 203.532 697.232 202.956 698.312C202.38 699.368 202.092 700.628 202.092 702.092C202.092 703.676 202.368 704.996 202.92 706.052C203.496 707.108 204.276 707.9 205.26 708.428C206.268 708.932 207.408 709.184 208.68 709.184C209.28 709.184 209.82 709.124 210.3 709.004C210.804 708.884 211.188 708.764 211.452 708.644V704.432H207.24C207.096 704.192 206.964 703.892 206.844 703.532C206.724 703.148 206.664 702.74 206.664 702.308C206.664 701.564 206.832 701.024 207.168 700.688C207.528 700.328 207.996 700.148 208.572 700.148H214.62C215.268 700.148 215.772 700.328 216.132 700.688C216.516 701.048 216.708 701.564 216.708 702.236ZM242.455 702.056C242.455 704.552 241.963 706.664 240.979 708.392C239.995 710.12 238.663 711.428 236.983 712.316C235.303 713.18 233.395 713.612 231.259 713.612C229.123 713.612 227.215 713.18 225.535 712.316C223.855 711.428 222.535 710.12 221.575 708.392C220.615 706.664 220.135 704.552 220.135 702.056C220.135 699.56 220.627 697.46 221.611 695.756C222.595 694.028 223.927 692.732 225.607 691.868C227.311 690.98 229.195 690.536 231.259 690.536C233.371 690.536 235.267 690.98 236.947 691.868C238.651 692.732 239.995 694.028 240.979 695.756C241.963 697.46 242.455 699.56 242.455 702.056ZM236.803 702.056C236.803 699.752 236.299 698 235.291 696.8C234.307 695.6 232.963 695 231.259 695C229.603 695 228.271 695.6 227.263 696.8C226.279 697.976 225.787 699.728 225.787 702.056C225.787 704.408 226.279 706.184 227.263 707.384C228.271 708.56 229.615 709.148 231.295 709.148C232.975 709.148 234.307 708.56 235.291 707.384C236.299 706.184 236.803 704.408 236.803 702.056Z" fill="#D4CFC9"/>
</g>
</g>
<path d="M36 58C36 43.0883 48.0883 31 63 31H376C390.912 31 403 43.0883 403 58V62H36V58Z" fill="#F8F8F8"/>
<path opacity="0.4" d="M347.766 45.1457C347.766 43.9491 348.736 42.979 349.932 42.979H367.246C368.443 42.979 369.413 43.9491 369.413 45.1457V51.854C369.413 53.0506 368.443 54.0207 367.246 54.0207H349.932C348.736 54.0207 347.766 53.0506 347.766 51.854V45.1457Z" stroke="#151515"/>
<path opacity="0.5" d="M370.941 46.375V50.625C371.773 50.265 372.314 49.4277 372.314 48.5C372.314 47.5723 371.773 46.735 370.941 46.375Z" fill="#151515"/>
<path d="M349.324 45.9373C349.324 45.201 349.921 44.604 350.658 44.604H366.52C367.257 44.604 367.854 45.201 367.854 45.9373V51.0623C367.854 51.7987 367.257 52.3957 366.52 52.3957H350.658C349.921 52.3957 349.324 51.7987 349.324 51.0623V45.9373Z" fill="#151515"/>
<path fill-rule="evenodd" clip-rule="evenodd" d="M334.225 44.8596C336.515 44.8597 338.717 45.7498 340.377 47.3458C340.502 47.469 340.702 47.4675 340.825 47.3423L342.02 46.1227C342.082 46.0593 342.117 45.9733 342.116 45.8838C342.116 45.7944 342.08 45.7088 342.017 45.6461C337.661 41.4233 330.788 41.4233 326.432 45.6461C326.368 45.7087 326.333 45.7943 326.332 45.8837C326.331 45.9732 326.366 46.0592 326.428 46.1227L327.624 47.3423C327.747 47.4676 327.946 47.4692 328.071 47.3458C329.731 45.7496 331.934 44.8596 334.225 44.8596ZM334.223 48.818C335.483 48.8179 336.697 49.3031 337.631 50.1792C337.758 50.3035 337.956 50.3008 338.08 50.1731L339.274 48.9223C339.337 48.8567 339.372 48.7677 339.371 48.6753C339.37 48.5828 339.334 48.4945 339.269 48.4303C336.426 45.6897 332.022 45.6897 329.179 48.4303C329.115 48.4945 329.078 48.5828 329.077 48.6753C329.076 48.7678 329.111 48.8568 329.174 48.9223L330.369 50.1731C330.492 50.3008 330.691 50.3035 330.817 50.1792C331.75 49.3036 332.964 48.8185 334.223 48.818ZM336.626 51.7118C336.628 51.8026 336.593 51.8901 336.528 51.9538L334.454 54.0693C334.394 54.1315 334.311 54.1665 334.224 54.1665C334.138 54.1665 334.055 54.1315 333.994 54.0693L331.92 51.9538C331.856 51.8901 331.82 51.8025 331.822 51.7117C331.824 51.6209 331.863 51.535 331.93 51.4741C333.254 50.3417 335.194 50.3417 336.519 51.4741C336.585 51.535 336.624 51.621 336.626 51.7118Z" fill="#151515"/>
<path fill-rule="evenodd" clip-rule="evenodd" d="M321.186 43.896C321.186 43.3092 320.725 42.8335 320.156 42.8335H319.127C318.558 42.8335 318.097 43.3092 318.097 43.896V53.1043C318.097 53.6911 318.558 54.1668 319.127 54.1668H320.156C320.725 54.1668 321.186 53.6911 321.186 53.1043V43.896ZM314.323 45.3127H315.352C315.921 45.3127 316.382 45.7884 316.382 46.3752V53.1043C316.382 53.6911 315.921 54.1668 315.352 54.1668H314.323C313.754 54.1668 313.293 53.6911 313.293 53.1043V46.3752C313.293 45.7884 313.754 45.3127 314.323 45.3127ZM310.548 47.7918H309.519C308.95 47.7918 308.489 48.2675 308.489 48.8543V53.1043C308.489 53.6911 308.95 54.1668 309.519 54.1668H310.548C311.117 54.1668 311.578 53.6911 311.578 53.1043V48.8543C311.578 48.2675 311.117 47.7918 310.548 47.7918ZM306.774 50.9793C306.774 50.3925 306.313 49.9168 305.744 49.9168H304.715C304.146 49.9168 303.686 50.3925 303.686 50.9793V53.1043C303.686 53.6911 304.146 54.1668 304.715 54.1668H305.744C306.313 54.1668 306.774 53.6911 306.774 53.1043V50.9793Z" fill="#151515"/>
<path d="M73.1217 44.4136C73.7369 44.4136 74.3033 44.5088 74.8209 44.6992C75.3433 44.8896 75.7608 45.1777 76.0733 45.5635C76.3858 45.9443 76.5421 46.4229 76.5421 46.999C76.5421 47.4287 76.4566 47.8047 76.2857 48.127C76.1197 48.4492 75.8927 48.7324 75.6046 48.9766C75.3165 49.2158 74.9893 49.4258 74.6231 49.6064C75.004 49.8066 75.3653 50.041 75.7071 50.3096C76.0489 50.5732 76.3272 50.8833 76.5421 51.2397C76.7618 51.5962 76.8717 52.0112 76.8717 52.4849C76.8717 53.0806 76.713 53.5981 76.3956 54.0376C76.0782 54.4722 75.6387 54.8091 75.0772 55.0483C74.5157 55.2876 73.8638 55.4072 73.1217 55.4072C72.3209 55.4072 71.6397 55.2925 71.0782 55.063C70.5167 54.8335 70.0894 54.5063 69.7965 54.0815C69.5035 53.6519 69.357 53.1392 69.357 52.5435C69.357 52.0552 69.4473 51.6304 69.628 51.269C69.8136 50.9077 70.0626 50.5977 70.3751 50.3389C70.6876 50.0752 71.0318 49.8506 71.4078 49.665C71.0904 49.4648 70.7999 49.2378 70.5362 48.9839C70.2774 48.73 70.0699 48.4395 69.9137 48.1123C69.7623 47.7852 69.6866 47.4092 69.6866 46.9844C69.6866 46.418 69.8453 45.9443 70.1627 45.5635C70.4849 45.1826 70.9073 44.897 71.4298 44.7065C71.9522 44.5112 72.5162 44.4136 73.1217 44.4136ZM71.4517 52.4116C71.4517 52.7974 71.5885 53.1172 71.8619 53.3711C72.1402 53.6201 72.5504 53.7446 73.0924 53.7446C73.6539 53.7446 74.0738 53.625 74.3521 53.3857C74.6304 53.1416 74.7696 52.8218 74.7696 52.4263C74.7696 52.1528 74.689 51.9136 74.5279 51.7085C74.3717 51.5034 74.1739 51.3203 73.9346 51.1592C73.6954 50.9932 73.4537 50.8394 73.2095 50.6978L73.0118 50.5952C72.6993 50.7368 72.4259 50.8955 72.1915 51.0713C71.962 51.2471 71.7813 51.4448 71.6495 51.6646C71.5177 51.8843 71.4517 52.1333 71.4517 52.4116ZM73.107 46.0688C72.7359 46.0688 72.4283 46.1641 72.1842 46.3545C71.94 46.5449 71.8179 46.8135 71.8179 47.1602C71.8179 47.4043 71.8765 47.6191 71.9937 47.8047C72.1158 47.9854 72.2745 48.144 72.4698 48.2808C72.67 48.4175 72.8873 48.5444 73.1217 48.6616C73.3463 48.5542 73.5562 48.4346 73.7515 48.3027C73.9469 48.1709 74.1055 48.0122 74.2276 47.8267C74.3497 47.6411 74.4107 47.4189 74.4107 47.1602C74.4107 46.8135 74.2862 46.5449 74.0372 46.3545C73.793 46.1641 73.483 46.0688 73.107 46.0688ZM78.5034 54.2134C78.5034 53.7544 78.6279 53.4321 78.877 53.2466C79.1309 53.061 79.436 52.9683 79.7925 52.9683C80.1392 52.9683 80.437 53.061 80.686 53.2466C80.9399 53.4321 81.0669 53.7544 81.0669 54.2134C81.0669 54.6528 80.9399 54.9702 80.686 55.1655C80.437 55.3608 80.1392 55.4585 79.7925 55.4585C79.436 55.4585 79.1309 55.3608 78.877 55.1655C78.6279 54.9702 78.5034 54.6528 78.5034 54.2134ZM78.5034 48.1636C78.5034 47.7046 78.6279 47.3823 78.877 47.1968C79.1309 47.0112 79.436 46.9185 79.7925 46.9185C80.1392 46.9185 80.437 47.0112 80.686 47.1968C80.9399 47.3823 81.0669 47.7046 81.0669 48.1636C81.0669 48.6079 80.9399 48.9277 80.686 49.123C80.437 49.3135 80.1392 49.4087 79.7925 49.4087C79.436 49.4087 79.1309 49.3135 78.877 49.123C78.6279 48.9277 78.5034 48.6079 78.5034 48.1636ZM88.353 55.2607H86.0898V49.0645C86.0898 48.8936 86.0922 48.6836 86.0971 48.4346C86.102 48.1807 86.1093 47.9219 86.1191 47.6582C86.1288 47.3896 86.1386 47.1479 86.1484 46.9331C86.0947 46.9966 85.9848 47.1064 85.8188 47.2627C85.6576 47.4141 85.5063 47.5508 85.3647 47.6729L84.1342 48.6616L83.0429 47.2993L86.4926 44.5527H88.353V55.2607ZM95.4706 48.4199C96.1249 48.4199 96.7059 48.5444 97.2137 48.7935C97.7264 49.0425 98.1292 49.4087 98.4222 49.8921C98.7152 50.3755 98.8617 50.9712 98.8617 51.6792C98.8617 52.4507 98.7005 53.1172 98.3783 53.6787C98.0609 54.2354 97.5848 54.6626 96.9501 54.9604C96.3202 55.2583 95.534 55.4072 94.5917 55.4072C94.0301 55.4072 93.5003 55.3584 93.0023 55.2607C92.5091 55.168 92.077 55.0239 91.7059 54.8286V52.873C92.077 53.0684 92.5213 53.2344 93.0389 53.3711C93.5614 53.5029 94.0521 53.5688 94.5111 53.5688C94.9603 53.5688 95.3387 53.5103 95.6463 53.3931C95.954 53.271 96.1859 53.0854 96.3421 52.8364C96.5033 52.5825 96.5838 52.2603 96.5838 51.8696C96.5838 51.3472 96.4081 50.9468 96.0565 50.6685C95.7049 50.3901 95.1654 50.251 94.4378 50.251C94.1595 50.251 93.869 50.2778 93.5663 50.3315C93.2684 50.3853 93.0194 50.439 92.8192 50.4927L91.9183 50.0093L92.3211 44.5527H98.1292V46.4717H94.306L94.1083 48.5737C94.2743 48.5396 94.4549 48.5054 94.6502 48.4712C94.8456 48.437 95.119 48.4199 95.4706 48.4199Z" fill="#151515"/>
<path d="M159 31H279C279 45.3594 267.359 57 253 57H185C170.641 57 159 45.3594 159 31Z" fill="#222222"/>
<rect x="190" y="41" width="54" height="4" rx="2" fill="#393939"/>
<circle cx="250" cy="43" r="2" fill="#393939"/>
<rect x="31.5" y="27.5" width="375" height="840" rx="49.5" stroke="#222222" stroke-width="15"/>
</g>
<defs>
<filter id="filter0_dii_566_492" x="0" y="0" width="438" height="903" filterUnits="userSpaceOnUse" color-interpolation-filters="sRGB">
<feFlood flood-opacity="0" result="BackgroundImageFix"/>
<feColorMatrix in="SourceAlpha" type="matrix" values="0 0 0 0 0 0 0 0 0 0 0 0 0 0 0 0 0 0 127 0" result="hardAlpha"/>
<feOffset dy="4"/>
<feGaussianBlur stdDeviation="12"/>
<feColorMatrix type="matrix" values="0 0 0 0 0 0 0 0 0 0 0 0 0 0 0 0 0 0 0.35 0"/>
<feBlend mode="normal" in2="BackgroundImageFix" result="effect1_dropShadow_566_492"/>
<feBlend mode="normal" in="SourceGraphic" in2="effect1_dropShadow_566_492" result="shape"/>
<feColorMatrix in="SourceAlpha" type="matrix" values="0 0 0 0 0 0 0 0 0 0 0 0 0 0 0 0 0 0 127 0" result="hardAlpha"/>
<feOffset dx="-9" dy="-10"/>
<feGaussianBlur stdDeviation="5"/>
<feComposite in2="hardAlpha" operator="arithmetic" k2="-1" k3="1"/>
<feColorMatrix type="matrix" values="0 0 0 0 0.916667 0 0 0 0 0.916667 0 0 0 0 0.916667 0 0 0 0.19 0"/>
<feBlend mode="normal" in2="shape" result="effect2_innerShadow_566_492"/>
<feColorMatrix in="SourceAlpha" type="matrix" values="0 0 0 0 0 0 0 0 0 0 0 0 0 0 0 0 0 0 127 0" result="hardAlpha"/>
<feOffset dx="-3" dy="-7"/>
<feGaussianBlur stdDeviation="2.5"/>
<feComposite in2="hardAlpha" operator="arithmetic" k2="-1" k3="1"/>
<feColorMatrix type="matrix" values="0 0 0 0 0.233333 0 0 0 0 0.233333 0 0 0 0 0.233333 0 0 0 0.17 0"/>
<feBlend mode="normal" in2="effect2_innerShadow_566_492" result="effect3_innerShadow_566_492"/>
</filter>
<filter id="filter1_d_566_492" x="39" y="770" width="372" height="96" filterUnits="userSpaceOnUse" color-interpolation-filters="sRGB">
<feFlood flood-opacity="0" result="BackgroundImageFix"/>
<feColorMatrix in="SourceAlpha" type="matrix" values="0 0 0 0 0 0 0 0 0 0 0 0 0 0 0 0 0 0 127 0" result="hardAlpha"/>
<feOffset dx="8"/>
<feGaussianBlur stdDeviation="2"/>
<feColorMatrix type="matrix" values="0 0 0 0 0 0 0 0 0 0 0 0 0 0 0 0 0 0 0.25 0"/>
<feBlend mode="normal" in2="BackgroundImageFix" result="effect1_dropShadow_566_492"/>
<feBlend mode="normal" in="SourceGraphic" in2="effect1_dropShadow_566_492" result="shape"/>
</filter>
<clipPath id="clip0_566_492">
<path d="M39 62H399V840C399 851.598 389.598 861 378 861H60C48.402 861 39 851.598 39 840V62Z" fill="white"/>
</clipPath>
<clipPath id="clip1_566_492">
<rect width="360" height="800" fill="white" transform="translate(39 62)"/>
</clipPath>
</defs>
</svg>
