<svg width="388" height="423" viewBox="0 0 388 423" fill="none" xmlns="http://www.w3.org/2000/svg">
<path d="M345.549 81.6548L344.73 82.6306V83.9044V253.747V255.327L345.915 256.372L370.914 278.412L268.695 417.593L199.037 380.845L193.893 345.577L193.641 343.849L192.108 343.011L18.6817 248.268L50.9087 224.478L56.7059 220.198L49.7582 218.288L5.67338 206.162L53.2131 137.093L53.8451 136.175L53.8297 135.06L53.0297 77.4203L53.0125 76.1834L52.2218 75.2319L7.87425 21.8679L41.2527 6.3225L138.683 3.52291L139.101 3.72312C139.873 4.09254 141.005 4.63416 142.447 5.32319C145.331 6.70125 149.454 8.66902 154.41 11.0282C164.323 15.7464 177.573 22.0312 190.918 28.296C204.259 34.5591 217.71 40.809 228.02 45.4544C233.171 47.7751 237.564 49.7072 240.776 51.0427C242.375 51.7077 243.725 52.2428 244.747 52.6065C245.251 52.7858 245.736 52.9455 246.16 53.0578C246.369 53.1131 246.628 53.1744 246.903 53.2151L246.908 53.2158C247.083 53.2417 247.685 53.331 248.384 53.1765L248.422 53.1683L248.459 53.1593C249.088 53.006 251.073 52.2992 253.645 51.3661C256.371 50.3773 260.087 49.0088 264.451 47.391C273.181 44.1546 284.527 39.9116 295.772 35.6937C307.017 31.4755 318.166 27.281 326.503 24.1412C330.671 22.5713 334.137 21.2649 336.56 20.3511L338.997 19.4321L381.401 38.926L345.549 81.6548Z" fill="#00A5A2" stroke="#00807D" stroke-width="7"/>
<path d="M251.934 60.0967C219.991 60.0967 194 83.2807 194 111.767C194 125.333 200.63 143.373 213.705 165.389C224.205 183.065 236.353 199.049 242.672 207.002C243.739 208.361 245.135 209.466 246.746 210.228C248.358 210.99 250.138 211.387 251.945 211.387C253.751 211.387 255.532 210.99 257.143 210.228C258.754 209.466 260.15 208.361 261.218 207.002C267.525 199.049 279.684 183.065 290.185 165.389C303.238 143.38 309.868 125.34 309.868 111.767C309.868 83.2807 283.877 60.0967 251.934 60.0967ZM251.934 135.744C247.351 135.744 242.87 134.477 239.059 132.102C235.248 129.727 232.278 126.351 230.524 122.402C228.77 118.453 228.311 114.107 229.206 109.914C230.1 105.722 232.307 101.87 235.548 98.8477C238.789 95.8249 242.918 93.7664 247.413 92.9325C251.908 92.0985 256.568 92.5265 260.802 94.1624C265.036 95.7983 268.656 98.5686 271.202 102.123C273.748 105.677 275.107 109.856 275.107 114.131C275.101 119.861 272.657 125.355 268.313 129.407C263.968 133.459 258.078 135.738 251.934 135.744Z" fill="#DD2844"/>
</svg>
