<svg width="50" height="50" viewBox="0 0 50 50" fill="none" xmlns="http://www.w3.org/2000/svg">
<path d="M42.1688 18.523L31.5166 7.88442L35.0882 4.31737C36.049 3.35781 37.2295 2.87803 38.6298 2.87803C40.0283 2.87803 41.208 3.35781 42.1688 4.31737L45.7404 7.88442C46.7012 8.84398 47.1816 10.0221 47.1816 11.4189C47.1816 12.8174 46.7012 13.9964 45.7404 14.9559L42.1688 18.523ZM2.44246 47.56V36.9215L13.7212 25.6571L0.5 12.3276L12.3427 0.5L25.6266 13.8295L31.5166 7.88442L42.1688 18.523L36.2788 24.4055L49.5 37.735L37.72 49.5L24.3734 36.2331L13.0946 47.56H2.44246ZM17.2928 22.09L22.055 17.334L19.0473 14.3301L16.0396 17.2714L12.5307 13.7669L15.4757 10.7631L12.2801 7.6341L7.58056 12.3902L17.2928 22.09ZM37.6573 42.4285L42.4194 37.6724L39.2238 34.5434L36.2788 37.4847L32.7072 33.9802L35.7148 30.9764L32.6445 27.9725L27.8824 32.7286L37.6573 42.4285ZM7.45524 42.5536H10.9642L35.0882 18.523L31.5166 14.9559L7.45524 39.0492V42.5536Z" fill="white"/>
</svg>
