<svg width="24" height="24" viewBox="0 0 24 24" fill="none" xmlns="http://www.w3.org/2000/svg">
<path d="M6.00019 12.0002L4.41419 13.5862C4.03924 13.9612 3.82861 14.4699 3.82861 15.0002C3.82861 15.5305 4.03924 16.0391 4.41419 16.4142L7.58619 19.5862C7.96124 19.9611 8.46986 20.1718 9.00019 20.1718C9.53051 20.1718 10.0391 19.9611 10.4142 19.5862L19.5862 10.4142C19.9611 10.0391 20.1718 9.53051 20.1718 9.00019C20.1718 8.46986 19.9611 7.96124 19.5862 7.58619L16.4142 4.41419C16.0391 4.03924 15.5305 3.82861 15.0002 3.82861C14.4699 3.82861 13.9612 4.03924 13.5862 4.41419L12.0002 6.00019M6.00019 12.0002L8.00019 14.0002M6.00019 12.0002L9.00019 9.00019M12.0002 6.00019L14.0002 8.00019M12.0002 6.00019L9.00019 9.00019M9.00019 9.00019L12.0002 12.0002" stroke="black" stroke-width="2" stroke-linecap="round" stroke-linejoin="round"/>
</svg>
